STARTFONT 2.1
COMMENT
COMMENT Converted from OpenType font "Patriot-Bold.otf" by "otf2bdf 3.0".
COMMENT
FONT -FreeType-Patriot Bold-Medium-R-Normal--44-320-100-100-P-220-ISO10646-1
SIZE 32 100 100
FONTBOUNDINGBOX 77 58 -18 -12
STARTPROPERTIES 19
FOUNDRY "FreeType"
FAMILY_NAME "Patriot Bold"
WEIGHT_NAME "Medium"
SLANT "R"
SETWIDTH_NAME "Normal"
ADD_STYLE_NAME ""
PIXEL_SIZE 44
POINT_SIZE 320
RESOLUTION_X 100
RESOLUTION_Y 100
SPACING "P"
AVERAGE_WIDTH 220
CHARSET_REGISTRY "ISO10646"
CHARSET_ENCODING "1"
FONT_ASCENT 44
FONT_DESCENT 8
COPYRIGHT "Copyright © 2020 by Behalf Studio. All rights reserved."
_OTF_FONTFILE "Patriot-Bold.otf"
_OTF_PSNAME "Patriot-Bold"
ENDPROPERTIES
CHARS 426
STARTCHAR 0020
ENCODING 32
SWIDTH 382 0
DWIDTH 17 0
BBX 0 0 0 0
BITMAP
ENDCHAR
STARTCHAR 0021
ENCODING 33
SWIDTH 270 0
DWIDTH 12 0
BBX 7 32 3 -1
BITMAP
FC
FC
FC
FC
FC
FC
FC
FC
FC
FC
FC
FC
FC
FC
FC
FC
FC
FC
FC
FC
00
00
00
00
78
FC
FE
FE
FE
FE
7C
10
ENDCHAR
STARTCHAR 0022
ENCODING 34
SWIDTH 337 0
DWIDTH 15 0
BBX 10 10 3 21
BITMAP
F3C0
F3C0
F3C0
F3C0
F3C0
F3C0
F3C0
F3C0
F3C0
F3C0
ENDCHAR
STARTCHAR 0023
ENCODING 35
SWIDTH 652 0
DWIDTH 29 0
BBX 24 31 3 0
BITMAP
03E0F8
03E0F8
03E0F8
03E0F8
03E0F8
03E1F8
07E1F8
07C1F0
07C1F0
7FFFFF
7FFFFF
7FFFFF
7FFFFF
0FC3F0
0F83E0
0F83E0
0F83E0
0F83E0
FFFFFC
FFFFFC
FFFFFC
FFFFFC
1F07C0
1F07C0
1F07C0
1F07C0
1F0FC0
3F0FC0
3E0F80
3E0F80
3E0F80
ENDCHAR
STARTCHAR 0024
ENCODING 36
SWIDTH 562 0
DWIDTH 25 0
BBX 20 41 3 -5
BITMAP
01F000
01F000
01F000
01F000
01F800
0FFE00
1FFF00
3FFF80
7FFFC0
7FFFE0
7FFFE0
7F0FE0
7E07C0
7E0400
7F0000
7F8000
7FE000
3FF000
1FFC00
0FFE00
07FF00
01FF80
00FFC0
003FE0
001FE0
000FF0
0007F0
1C07F0
FE07F0
FE0FF0
FFFFE0
7FFFE0
7FFFE0
3FFFC0
1FFF80
07FE00
01F000
01F000
01F000
01F000
01F000
ENDCHAR
STARTCHAR 0025
ENCODING 37
SWIDTH 945 0
DWIDTH 42 0
BBX 37 33 3 -1
BITMAP
07E0000000
1FF8003E00
3FFC003E00
7FFE007C00
FFFE00F800
FC3E01F000
F83F01F000
F81F03E000
F81F07C000
F83F07C000
FC7E0F8000
FFFE1F0000
7FFC3F0000
3FF83E0000
1FF07C0000
0300F80000
0000F80000
0001F03F00
0003E0FFC0
0003E1FFE0
0007C3FFF0
000F83FFF0
001F87E1F8
001F07C0F8
003E07C0F8
007C07C0F8
007C07C1F8
00F807E1F8
01F003FFF0
01F003FFF0
03E001FFE0
07C0007F80
0000000C00
ENDCHAR
STARTCHAR 0026
ENCODING 38
SWIDTH 675 0
DWIDTH 30 0
BBX 25 33 3 -1
BITMAP
00F80000
07FF0000
0FFFC000
1FFFE000
3FFFF000
7FFFF000
7FDFE000
7F03C000
7E018000
FE000000
FE000000
7E000000
7F000000
7FFFFF80
3FFFFF80
1FFFFF80
3FFFFF80
7FFFFF80
7FFFFF80
FF80FE00
FE00FE00
FE00FE00
FC01FC00
FC01FC00
FE01FC00
FF03FC00
FFFFF800
7FFFF800
7FFFF000
3FFFE000
1FFFC000
07FF0000
00780000
ENDCHAR
STARTCHAR 0027
ENCODING 39
SWIDTH 202 0
DWIDTH 9 0
BBX 4 10 3 21
BITMAP
F0
F0
F0
F0
F0
F0
F0
F0
F0
F0
ENDCHAR
STARTCHAR 0028
ENCODING 40
SWIDTH 360 0
DWIDTH 16 0
BBX 10 42 3 -7
BITMAP
0100
0380
07C0
07C0
0FC0
0F80
1F00
1F00
3E00
3E00
7C00
7C00
7C00
F800
F800
F800
F800
F000
F000
F000
F000
F000
F000
F000
F000
F000
F800
F800
F800
7800
7C00
7C00
7C00
3E00
3E00
1F00
1F00
0F80
0FC0
07C0
03C0
0380
ENDCHAR
STARTCHAR 0029
ENCODING 41
SWIDTH 360 0
DWIDTH 16 0
BBX 11 42 3 -7
BITMAP
1000
7000
F800
F800
7C00
7E00
3E00
1F00
1F00
0F00
0F80
0F80
07C0
07C0
07C0
03C0
03C0
03E0
03E0
03E0
03E0
03E0
03E0
03E0
03E0
03C0
03C0
03C0
07C0
07C0
0780
0F80
0F80
1F00
1F00
3F00
3E00
7C00
7C00
F800
F800
3000
ENDCHAR
STARTCHAR 002A
ENCODING 42
SWIDTH 450 0
DWIDTH 20 0
BBX 16 15 2 16
BITMAP
0180
03C0
03E0
03C0
33CE
7DDF
FFBF
7FFF
3FFE
07E0
0F78
1F78
1F7C
1E7C
1C38
ENDCHAR
STARTCHAR 002B
ENCODING 43
SWIDTH 585 0
DWIDTH 26 0
BBX 20 21 3 4
BITMAP
01F800
01F800
01F800
01F800
01F800
01F800
01F800
01F800
FFFFF0
FFFFF0
FFFFF0
FFFFF0
FFFFF0
01F800
01F800
01F800
01F800
01F800
01F800
01F800
01F800
ENDCHAR
STARTCHAR 002C
ENCODING 44
SWIDTH 270 0
DWIDTH 12 0
BBX 7 8 3 -5
BITMAP
3E
3C
7C
78
78
F8
F0
F0
ENDCHAR
STARTCHAR 002D
ENCODING 45
SWIDTH 450 0
DWIDTH 20 0
BBX 15 4 3 8
BITMAP
FFFE
FFFE
FFFE
FFFE
ENDCHAR
STARTCHAR 002E
ENCODING 46
SWIDTH 270 0
DWIDTH 12 0
BBX 7 8 3 -1
BITMAP
78
FC
FE
FE
FE
FE
7C
10
ENDCHAR
STARTCHAR 002F
ENCODING 47
SWIDTH 427 0
DWIDTH 19 0
BBX 14 33 3 -1
BITMAP
007C
00FC
00F8
00F8
00F8
01F8
01F0
01F0
03F0
03E0
03E0
03E0
07E0
07C0
07C0
0FC0
0F80
0F80
0F80
1F80
1F00
1F00
3F00
3E00
3E00
3E00
7E00
7C00
7C00
FC00
F800
F800
F800
ENDCHAR
STARTCHAR 0030
ENCODING 48
SWIDTH 742 0
DWIDTH 33 0
BBX 29 33 2 -1
BITMAP
000F8000
00FFF800
03FFFC00
07FFFF00
0FFFFF80
1FFFFFC0
3FF8FFE0
3FC01FE0
7F800FF0
7F0007F0
FE0003F8
FE0003F8
FC0001F8
FC0001F8
FC0001F8
FC0001F8
FC0001F8
FC0001F8
FC0001F8
FC0001F8
FC0001F8
FE0003F8
7E0003F0
7F0007F0
7F800FF0
3FC01FE0
3FF8FFE0
1FFFFFC0
0FFFFF80
07FFFF00
01FFFC00
007FF000
00078000
ENDCHAR
STARTCHAR 0031
ENCODING 49
SWIDTH 337 0
DWIDTH 15 0
BBX 11 31 2 0
BITMAP
07E0
07E0
07E0
FFE0
FFE0
FFE0
FFE0
FFE0
FFE0
07E0
07E0
07E0
07E0
07E0
07E0
07E0
07E0
07E0
07E0
07E0
07E0
07E0
07E0
07E0
07E0
07E0
07E0
07E0
07E0
07E0
07E0
ENDCHAR
STARTCHAR 0032
ENCODING 50
SWIDTH 562 0
DWIDTH 25 0
BBX 22 32 2 0
BITMAP
00FC00
07FF00
0FFFC0
1FFFE0
3FFFF0
7FFFF0
7FCFF8
FF03F8
FE01F8
FE01F8
FE01F8
0001F8
0001F8
0003F8
0007F0
0007F0
000FE0
001FE0
003FC0
007F80
007F00
00FE00
01FE00
03FC00
07F800
0FF000
1FFFFC
3FFFFC
7FFFFC
FFFFFC
FFFFFC
FFFFFC
ENDCHAR
STARTCHAR 0033
ENCODING 51
SWIDTH 540 0
DWIDTH 24 0
BBX 21 32 2 -1
BITMAP
7FFFE0
7FFFE0
7FFFE0
7FFFC0
7FFF80
7FFF00
007E00
00FE00
01FC00
03F800
07FC00
0FFF00
1FFF80
3FFFC0
1FFFE0
0FFFE0
060FF0
0007F0
0003F0
0003F8
0003F8
0003F8
0003F0
0807F0
3C07F0
7F3FE0
FFFFE0
FFFFC0
7FFF80
1FFF00
0FFE00
01E000
ENDCHAR
STARTCHAR 0034
ENCODING 52
SWIDTH 562 0
DWIDTH 25 0
BBX 23 31 1 0
BITMAP
000FF0
007FF0
01FFF0
03FFF0
07FFF0
0FFFF0
1FFBF0
1FE3F0
3FC3F0
3F83F0
7F03F0
7F03F0
7E03F0
FE03F0
FE03F0
FC03F0
FC03F0
FFFFFE
FFFFFE
FFFFFE
FFFFFE
FFFFFE
FFFFFE
0003F0
0003F0
0003F0
0003F0
0003F0
0003F0
0003F0
0003F0
ENDCHAR
STARTCHAR 0035
ENCODING 53
SWIDTH 540 0
DWIDTH 24 0
BBX 21 32 2 -1
BITMAP
3FFFF0
3FFFF0
3FFFF0
3FFFF0
3FFFF0
3FFFF0
7E0000
7E0000
7E0000
7E0000
7FFE00
7FFF80
7FFFC0
7FFFE0
7FFFF0
7FFFF0
3E07F8
0C03F8
0001F8
0001F8
0001F8
0001F8
0001F8
0C03F8
1E07F8
3F9FF0
FFFFF0
7FFFE0
3FFFC0
1FFF80
07FE00
007000
ENDCHAR
STARTCHAR 0036
ENCODING 54
SWIDTH 630 0
DWIDTH 28 0
BBX 25 32 2 -1
BITMAP
001FE000
003FC000
007F8000
007F0000
00FF0000
01FE0000
01FC0000
03F80000
07FA0000
0FFFE000
0FFFF000
1FFFF800
3FFFFC00
3FFFFE00
7FC1FE00
7F007F00
7E007F00
FE003F00
FE003F80
FC003F80
FC003F80
FE003F00
FE003F00
7F007F00
7F80FF00
7FE7FE00
3FFFFE00
1FFFFC00
0FFFF800
07FFF000
01FFC000
001C0000
ENDCHAR
STARTCHAR 0037
ENCODING 55
SWIDTH 495 0
DWIDTH 22 0
BBX 21 31 2 0
BITMAP
FFFFF8
FFFFF8
FFFFF8
FFFFF0
FFFFF0
FFFFE0
000FE0
000FE0
000FC0
001FC0
001F80
003F80
3FFFE0
3FFFE0
3FFFE0
3FFFE0
3FFFE0
3FFFE0
00FC00
01FC00
01F800
01F800
03F800
03F000
07F000
07E000
07E000
0FE000
0FC000
1FC000
1F8000
ENDCHAR
STARTCHAR 0038
ENCODING 56
SWIDTH 562 0
DWIDTH 25 0
BBX 23 33 1 -1
BITMAP
007C00
01FF80
07FFC0
0FFFE0
0FFFF0
1FFFF0
1FC3F0
1F83F8
1F81F8
1F81F8
1F83F8
1FEFF0
0FFFF0
0FFFE0
0FFFF0
1FFFF8
3FFFFC
7F83FC
7F00FC
7E00FE
FE007E
FE007E
FE007E
7E00FE
7F00FE
7F01FC
7FE7FC
3FFFF8
1FFFF8
0FFFF0
07FFE0
01FF80
003C00
ENDCHAR
STARTCHAR 0039
ENCODING 57
SWIDTH 607 0
DWIDTH 27 0
BBX 24 32 2 0
BITMAP
007E00
03FF80
07FFE0
1FFFF0
3FFFF8
3FFFFC
7FC7FE
7F00FE
FE007F
FE007F
FC003F
FC003F
FC003F
FC003F
FC007F
FE007F
FF00FE
7F83FE
7FFFFC
3FFFFC
1FFFF8
0FFFF0
03FFF0
000FE0
001FC0
003FC0
007F80
007F00
00FE00
01FE00
03FC00
03F800
ENDCHAR
STARTCHAR 003A
ENCODING 58
SWIDTH 270 0
DWIDTH 12 0
BBX 7 24 3 -1
BITMAP
10
7C
FE
FE
FE
FE
FE
7C
00
00
00
00
00
00
00
00
78
FC
FE
FE
FE
FE
7C
10
ENDCHAR
STARTCHAR 003B
ENCODING 59
SWIDTH 292 0
DWIDTH 13 0
BBX 8 28 3 -5
BITMAP
08
3E
7F
FF
FF
7F
7E
3C
00
00
00
00
00
00
00
00
00
00
00
00
3E
3C
7C
78
78
F8
F0
F0
ENDCHAR
STARTCHAR 003C
ENCODING 60
SWIDTH 562 0
DWIDTH 25 0
BBX 20 20 3 4
BITMAP
000010
0000F0
0007F0
001FF0
00FFF0
07FFC0
3FFE00
FFF000
FF8000
FC0000
FE0000
FFC000
FFF000
3FFE00
07FFC0
00FFF0
003FF0
0007F0
0000F0
000010
ENDCHAR
STARTCHAR 003D
ENCODING 61
SWIDTH 585 0
DWIDTH 26 0
BBX 20 15 3 7
BITMAP
FFFFF0
FFFFF0
FFFFF0
FFFFF0
FFFFF0
000000
000000
000000
000000
000000
FFFFF0
FFFFF0
FFFFF0
FFFFF0
FFFFF0
ENDCHAR
STARTCHAR 003E
ENCODING 62
SWIDTH 562 0
DWIDTH 25 0
BBX 20 20 3 4
BITMAP
800000
F00000
FE0000
FF8000
FFF000
3FFE00
0FFFC0
01FFF0
003FF0
0007F0
0003F0
001FF0
00FFF0
07FFC0
3FFE00
FFF000
FFC000
FE0000
F00000
800000
ENDCHAR
STARTCHAR 003F
ENCODING 63
SWIDTH 450 0
DWIDTH 20 0
BBX 15 33 3 -1
BITMAP
03C0
1FF0
3FF8
7FFC
FFFE
FFFE
F87E
187E
007E
00FE
00FC
01F8
03F8
03F0
07E0
07E0
0FC0
0FC0
0FC0
0F80
0F80
0F80
0000
0000
0000
0780
0FC0
1FE0
1FE0
1FE0
1FC0
0FC0
0300
ENDCHAR
STARTCHAR 0040
ENCODING 64
SWIDTH 810 0
DWIDTH 36 0
BBX 31 33 3 -1
BITMAP
000FF800
007FFF00
01FFFFC0
03FFFFE0
07E003F0
0F8000F8
1F000078
3E00003C
3C00003C
780FDE1E
781FFE1E
F03FFE1E
F07FFE1E
F07E7C1E
F07C3C1E
F0FC3C1E
F0FC3C1E
F0FC3C3E
F0FE7C3C
F07FFEFC
F07FFFF8
F03FDFF0
781F8FE0
78000000
3C000000
3E000000
1F000060
0FC001F0
07F007F0
03FFFFE0
00FFFF80
003FFE00
0007F000
ENDCHAR
STARTCHAR 0041
ENCODING 65
SWIDTH 562 0
DWIDTH 25 0
BBX 23 32 2 0
BITMAP
00F800
07FE00
0FFF80
1FFFC0
3FFFE0
7FFFE0
7FDFF0
7F07F0
FE07F0
FE07F0
FE03F0
FE03F0
FE03F0
FE03F0
FE03F0
FE03F0
FE03F0
FE03F0
FE03F0
FE03F0
FE03F0
FE03F0
FE03F0
FE03F0
FE03F0
FE03F0
FFFFFE
FFFFFE
FFFFFE
FFFFFE
FFFFFE
FFFFFE
ENDCHAR
STARTCHAR 0042
ENCODING 66
SWIDTH 630 0
DWIDTH 28 0
BBX 25 31 2 0
BITMAP
3FFFC000
3FFFF800
3FFFFC00
3FFFFE00
3FFFFF00
3FFFFF00
3F80FF00
3F807F80
3F803F80
3F803F80
3F803F00
3F807F00
FFFFFF00
FFFFFE00
FFFFFE00
FFFFFE00
FFFFFF00
FFFFFF00
3F80FF80
3F803F80
3F801F80
3F801F80
3F801F80
3F803F80
3F807F80
3FFFFF80
3FFFFF00
3FFFFF00
3FFFFE00
3FFFF800
3FFFE000
ENDCHAR
STARTCHAR 0043
ENCODING 67
SWIDTH 675 0
DWIDTH 30 0
BBX 28 33 2 -1
BITMAP
0007E000
003FFE00
01FFFF80
03FFFFC0
07FFFFE0
0FFFFFF0
1FFF7FE0
3FF007C0
3FC00380
7F800100
7F000000
FF000000
FE000000
FE000000
FC000000
FC000000
FC000000
FC000000
FE000000
FE000000
FE000000
FF000000
7F000000
7F800100
3FC00380
3FF00FC0
1FFFFFE0
0FFFFFF0
07FFFFE0
03FFFFC0
00FFFF80
003FFE00
0003C000
ENDCHAR
STARTCHAR 0044
ENCODING 68
SWIDTH 675 0
DWIDTH 30 0
BBX 26 31 3 0
BITMAP
FFFE0000
FFFFC000
FFFFF000
FFFFF800
FFFFFC00
FFFFFE00
FC07FF00
FC01FF00
FC007F80
FC003F80
FC003F80
FC001FC0
FC001FC0
FC001FC0
FC001FC0
FC001FC0
FC001FC0
FC001FC0
FC001FC0
FC001FC0
FC003F80
FC007F80
FC00FF80
FC01FF00
FC0FFF00
FFFFFE00
FFFFFC00
FFFFF800
FFFFE000
FFFFC000
FFFC0000
ENDCHAR
STARTCHAR 0045
ENCODING 69
SWIDTH 517 0
DWIDTH 23 0
BBX 22 31 1 0
BITMAP
1FFF00
1FFF00
1FFF00
1FFF00
1FFF00
1FFF00
1FC000
1FC000
1FC000
1FC000
1FC000
1FC000
FFFFC0
FFFFC0
FFFFC0
FFFFC0
FFFFC0
FFFFC0
1FC000
1FC000
1FC000
1FC000
1FC000
1FC000
1FC000
1FFFFC
1FFFFC
1FFFFC
1FFFFC
1FFFFC
1FFFFC
ENDCHAR
STARTCHAR 0046
ENCODING 70
SWIDTH 472 0
DWIDTH 21 0
BBX 20 31 1 0
BITMAP
1FFFF0
1FFFF0
1FFFF0
1FFFF0
1FFFF0
1FFFF0
1FC000
1FC000
1FC000
1FC000
1FC000
1FC000
1FC000
FFFFE0
FFFFE0
FFFFE0
FFFFE0
FFFFE0
FFFFE0
1FC000
1FC000
1FC000
1FC000
1FC000
1FC000
1FC000
1FC000
1FC000
1FC000
1FC000
1FC000
ENDCHAR
STARTCHAR 0047
ENCODING 71
SWIDTH 810 0
DWIDTH 36 0
BBX 34 33 2 -1
BITMAP
0007E00000
003FFE0000
00FFFF8000
03FFFFC000
07FFFFE000
0FFFFFF000
1FFF7FE000
3FF007C000
3FC0038000
7F80010000
7F00000000
FF00000000
FE00000000
FE00000000
FC01FFFFC0
FC01FFFFC0
FC01FFFFC0
FC01FFFFC0
FE01FFFFC0
FE01FFFFC0
FE00007F00
FF0000FE00
7F0000FE00
7F8001FE00
3FC003FC00
3FF00FFC00
1FFFFFF800
0FFFFFF000
07FFFFE000
03FFFFC000
00FFFF8000
003FFE0000
0001C00000
ENDCHAR
STARTCHAR 0048
ENCODING 72
SWIDTH 585 0
DWIDTH 26 0
BBX 23 31 1 0
BITMAP
1FC0FE
1FC0FE
1FC0FE
1FC0FE
1FC0FE
1FC0FE
1FC0FE
1FC0FE
1FC0FE
1FC0FE
1FC0FE
1FC0FE
1FC0FE
1FC0FE
FFFFFE
FFFFFE
FFFFFE
FFFFFE
FFFFFE
FFFFFE
1FC0FE
1FC0FE
1FC0FE
1FC0FE
1FC0FE
1FC0FE
1FC0FE
1FC0FE
1FC0FE
1FC0FE
1FC0FE
ENDCHAR
STARTCHAR 0049
ENCODING 73
SWIDTH 247 0
DWIDTH 11 0
BBX 13 36 -1 0
BITMAP
0200
0200
0300
0700
0780
FFF8
7FF0
3FE0
1FC0
1FC0
1FC0
18E0
3020
0000
0000
0000
0000
1FC0
1FC0
1FC0
1FC0
1FC0
1FC0
1FC0
1FC0
1FC0
1FC0
1FC0
1FC0
1FC0
1FC0
1FC0
1FC0
1FC0
1FC0
1FC0
ENDCHAR
STARTCHAR 004A
ENCODING 74
SWIDTH 472 0
DWIDTH 21 0
BBX 18 32 1 -1
BITMAP
00FFC0
00FFC0
00FFC0
00FFC0
00FFC0
00FFC0
000FC0
000FC0
000FC0
000FC0
000FC0
000FC0
000FC0
000FC0
000FC0
000FC0
000FC0
000FC0
000FC0
000FC0
000FC0
000FC0
001FC0
041FC0
1C1FC0
7FFFC0
FFFF80
FFFF80
7FFF00
3FFE00
0FF800
01E000
ENDCHAR
STARTCHAR 004B
ENCODING 75
SWIDTH 585 0
DWIDTH 26 0
BBX 23 31 1 0
BITMAP
1FC1F8
1FC1F8
1FC1F8
1FC1F8
1FC1F8
1FC1F8
1FC1F8
1FC3F8
1FC3F8
1FC3F8
1FC3F8
1FC7F0
FFFFF0
FFFFF0
FFFFF0
FFFFF8
FFFFF8
FFFFFC
1FC1FC
1FC0FE
1FC0FE
1FC0FE
1FC0FE
1FC0FE
1FC0FE
1FC0FE
1FC0FE
1FC0FE
1FC0FE
1FC0FE
1FC0FE
ENDCHAR
STARTCHAR 004C
ENCODING 76
SWIDTH 472 0
DWIDTH 21 0
BBX 17 31 3 0
BITMAP
FC0000
FC0000
FC0000
FC0000
FC0000
FC0000
FC0000
FC0000
FC0000
FC0000
FC0000
FC0000
FC0000
FC0000
FC0000
FC0000
FC0000
FC0000
FC0000
FC0000
FC0000
FC0000
FC0000
FC0000
FC0000
FFFF80
FFFF80
FFFF80
FFFF80
FFFF80
FFFF80
ENDCHAR
STARTCHAR 004D
ENCODING 77
SWIDTH 877 0
DWIDTH 39 0
BBX 36 32 1 0
BITMAP
1000000000
1C00E003F0
3E00F803F0
7F00FC03F0
FFC0FE03F0
FFE0FF03F0
7FF0FFC3F0
1FF8FFE3F0
1FFEFFF3F0
1FFFFFFFF0
1FFFFFFFF0
1FFFFFFFF0
1FFFFFFFF0
1FDFFE7FF0
1FCFFE3FF0
1FC3FE1FF0
1FC1FE0FF0
1FC0FE03F0
1FC0FE03F0
1FC0FE03F0
1FC0FE03F0
1FC0FE03F0
1FC0FE03F0
1FC0FE03F0
1FC0FE03F0
1FC0FE03F0
1FC0FE03F0
1FC0FE03F0
1FC0FE03F0
1FC0FE03F0
1FC0FE03F0
1FC0FE03F0
ENDCHAR
STARTCHAR 004E
ENCODING 78
SWIDTH 585 0
DWIDTH 26 0
BBX 22 32 1 0
BITMAP
100000
1C00FC
3E00FC
7F00FC
FFC0FC
FFE0FC
7FF0FC
3FF8FC
3FFEFC
3FFFFC
3FFFFC
3FFFFC
3FFFFC
3F9FFC
3F8FFC
3F87FC
3F83FC
3F80FC
3F80FC
3F80FC
3F80FC
3F80FC
3F80FC
3F80FC
3F80FC
3F80FC
3F80FC
3F80FC
3F80FC
3F80FC
3F80FC
3F80FC
ENDCHAR
STARTCHAR 004F
ENCODING 79
SWIDTH 810 0
DWIDTH 36 0
BBX 33 33 2 -1
BITMAP
0007E00000
003FFE0000
00FFFF8000
03FFFFE000
07FFFFF000
0FFFFFF800
1FFF7FFC00
3FF007FE00
3FC001FE00
7F8000FF00
7F00007F00
FF00007F00
FE00003F80
FE00003F80
FC00003F80
FC00003F80
FC00003F80
FC00003F80
FE00003F80
FE00003F80
FE00003F80
FF00007F00
7F00007F00
7F8000FF00
3FC003FE00
3FF007FC00
1FFFFFFC00
0FFFFFF800
07FFFFF000
03FFFFE000
00FFFF8000
003FFE0000
0001C00000
ENDCHAR
STARTCHAR 0050
ENCODING 80
SWIDTH 585 0
DWIDTH 26 0
BBX 24 31 1 0
BITMAP
1FFF80
1FFFF0
1FFFF8
1FFFFC
1FFFFE
1FFFFE
1F80FF
1F807F
1F803F
1F803F
1F803F
1F807F
1F807F
1F81FF
FFFFFE
FFFFFE
FFFFFC
FFFFF8
FFFFE0
FFFF00
1F8000
1F8000
1F8000
1F8000
1F8000
1F8000
1F8000
1F8000
1F8000
1F8000
1F8000
ENDCHAR
STARTCHAR 0051
ENCODING 81
SWIDTH 810 0
DWIDTH 36 0
BBX 33 34 2 -2
BITMAP
0007E00000
003FFE0000
00FFFF8000
03FFFFE000
07FFFFF000
0FFFFFF800
1FFF7FFC00
3FF007FE00
3FC001FE00
7F8000FF00
7F00007F00
FF00007F00
FE00003F80
FE00003F80
FC00003F80
FC00003F80
FC00003F80
FC00003F80
FE00003F80
FE00003F80
FE00003F80
FF00007F00
7F00007F00
7F8000FF00
3FC003FE00
3FF007FC00
1FFFFFFC00
0FFFFFFE00
07FFFFFF00
03FFFFFF00
00FFFFFE00
003FFE7C00
0001E03800
0000001000
ENDCHAR
STARTCHAR 0052
ENCODING 82
SWIDTH 607 0
DWIDTH 27 0
BBX 25 31 1 0
BITMAP
1FFFE000
1FFFF800
1FFFFC00
1FFFFE00
1FFFFF00
1FFFFF00
1FC07F80
1FC03F80
1FC01F80
1FC01F80
1FC01F80
1FC03F80
1FC07F80
FFFFFF00
FFFFFF00
FFFFFE00
FFFFFC00
FFFFFC00
FFFFFC00
1FC3FE00
1FC0FE00
1FC07F00
1FC07F00
1FC07F00
1FC07F00
1FC07F00
1FC07F00
1FC07F00
1FC07F00
1FC07F00
1FC07F00
ENDCHAR
STARTCHAR 0053
ENCODING 83
SWIDTH 517 0
DWIDTH 23 0
BBX 21 33 1 -1
BITMAP
00F800
07FF00
0FFF80
1FFFC0
3FFFE0
3FFFE0
3FFFF0
7F87F0
7F03C0
7F0200
3F8000
3FC000
3FE000
1FF800
0FFE00
07FF00
03FF80
01FFC0
007FE0
001FF0
000FF0
0007F8
0003F8
0E03F8
FE03F8
7F07F8
7FFFF0
3FFFF0
3FFFE0
1FFFE0
0FFFC0
03FF00
007800
ENDCHAR
STARTCHAR 0054
ENCODING 84
SWIDTH 517 0
DWIDTH 23 0
BBX 21 31 1 0
BITMAP
FFFFF8
FFFFF8
FFFFF8
FFFFF8
FFFFF8
FFFFF8
01FC00
01FC00
01FC00
01FC00
01FC00
01FC00
01FC00
01FC00
01FC00
01FC00
01FC00
01FC00
01FC00
01FC00
01FC00
01FC00
01FC00
01FC00
01FC00
01FC00
01FC00
01FC00
01FC00
01FC00
01FC00
ENDCHAR
STARTCHAR 0055
ENCODING 85
SWIDTH 540 0
DWIDTH 24 0
BBX 20 32 2 -1
BITMAP
FE03F0
FE03F0
FE03F0
FE03F0
FE03F0
FE03F0
FE03F0
FE03F0
FE03F0
FE03F0
FE03F0
FE03F0
FE03F0
FE03F0
FE03F0
FE03F0
FE03F0
FE03F0
FE03F0
FE03F0
FE03F0
FE07F0
FE07F0
FE07F0
7F0FF0
7FFFE0
7FFFE0
3FFFC0
1FFFC0
0FFF80
07FE00
00F000
ENDCHAR
STARTCHAR 0056
ENCODING 86
SWIDTH 495 0
DWIDTH 22 0
BBX 19 31 1 0
BITMAP
FC07E0
FC07E0
FC07E0
FC07E0
FC07E0
FC07E0
FC07E0
FC07E0
FC07E0
FC07E0
FC07E0
FC07E0
FC07E0
FC0FE0
FC0FE0
FC0FE0
FC0FE0
FE0FE0
FE0FE0
FE0FE0
FE0FC0
7E1FC0
7F1FC0
7F1FC0
3FBF80
3FBF80
1FFF00
1FFF00
0FFE00
07FC00
07F800
ENDCHAR
STARTCHAR 0057
ENCODING 87
SWIDTH 787 0
DWIDTH 35 0
BBX 32 31 1 0
BITMAP
FC07E07F
FC07E07F
FC07E07F
FC07E07F
FC07E07F
FC07E07F
FC07E07F
FC07E07F
FC07E07F
FC07E07F
FC07E07F
FC07E07F
FC07E07F
FC0FE07F
FC0FE07F
FC0FE07F
FC0FE07F
FE0FE07F
FE0FF07F
FE0FF07E
FE0FF0FE
7E1FF0FE
7F1FF8FE
7F1FF9FC
3FBFF9FC
3FBFFDFC
1FFFFFF8
1FFFFFF0
0FFE7FF0
07FC3FE0
07F83FC0
ENDCHAR
STARTCHAR 0058
ENCODING 88
SWIDTH 540 0
DWIDTH 24 0
BBX 20 31 2 0
BITMAP
FE03F0
FE03F0
FE03F0
FE03F0
FE03F0
FE03F0
FE03F0
FE03F0
7E07F0
7F07F0
7FFFF0
3FFFE0
3FFFE0
1FFFC0
3FFFC0
3FFFE0
7FFFF0
7F07F0
7E07F0
FE03F0
FE03F0
FE03F0
FE03F0
FE03F0
FE03F0
FE03F0
FE03F0
FE03F0
FE03F0
FE03F0
FE03F0
ENDCHAR
STARTCHAR 0059
ENCODING 89
SWIDTH 517 0
DWIDTH 23 0
BBX 20 31 2 0
BITMAP
FE07F0
FE07F0
FE07F0
FE07F0
FE07F0
FE07F0
FE07F0
FE07F0
FE07F0
FE07F0
FE07F0
FE07F0
FE07F0
FE07F0
FE07F0
FE07F0
FE0FF0
FF1FE0
7FFFE0
7FFFC0
3FFFC0
1FFF80
0FFE00
03F800
01F800
01F800
01F800
01F800
01F800
01F800
01F800
ENDCHAR
STARTCHAR 005A
ENCODING 90
SWIDTH 540 0
DWIDTH 24 0
BBX 22 31 1 0
BITMAP
FFFFFC
FFFFFC
FFFFFC
FFFFFC
FFFFF8
FFFFF0
0007F0
000FE0
001FE0
001FC0
003F80
003F80
007F00
00FF00
00FE00
01FC00
01FC00
03F800
07F800
07F000
0FF000
0FE000
1FC000
1FC000
3F8000
7FFFF8
7FFFF8
FFFFF8
FFFFF8
FFFFF8
FFFFF8
ENDCHAR
STARTCHAR 005B
ENCODING 91
SWIDTH 270 0
DWIDTH 12 0
BBX 7 44 3 -7
BITMAP
FE
FE
FE
FE
F0
F0
F0
F0
F0
F0
F0
F0
F0
F0
F0
F0
F0
F0
F0
F0
F0
F0
F0
F0
F0
F0
F0
F0
F0
F0
F0
F0
F0
F0
F0
F0
F0
F0
F0
F0
FE
FE
FE
FE
ENDCHAR
STARTCHAR 005C
ENCODING 92
SWIDTH 427 0
DWIDTH 19 0
BBX 14 33 3 -1
BITMAP
F800
F800
F800
FC00
7C00
7C00
7E00
3E00
3E00
3E00
3F00
1F00
1F00
1F80
0F80
0F80
0F80
0FC0
07C0
07C0
07E0
03E0
03E0
03E0
01F0
01F0
01F0
01F8
00F8
00F8
00FC
007C
007C
ENDCHAR
STARTCHAR 005D
ENCODING 93
SWIDTH 270 0
DWIDTH 12 0
BBX 7 44 3 -7
BITMAP
FE
FE
FE
FE
1E
1E
1E
1E
1E
1E
1E
1E
1E
1E
1E
1E
1E
1E
1E
1E
1E
1E
1E
1E
1E
1E
1E
1E
1E
1E
1E
1E
1E
1E
1E
1E
1E
1E
1E
1E
FE
FE
FE
FE
ENDCHAR
STARTCHAR 005E
ENCODING 94
SWIDTH 540 0
DWIDTH 24 0
BBX 18 12 3 15
BITMAP
03F000
07F800
07F800
0FFC00
0FFC00
1F3E00
1F3F00
3E1F00
7C0F80
7C0F80
F807C0
F807C0
ENDCHAR
STARTCHAR 005F
ENCODING 95
SWIDTH 540 0
DWIDTH 24 0
BBX 19 4 3 -6
BITMAP
FFFFE0
FFFFE0
FFFFE0
FFFFE0
ENDCHAR
STARTCHAR 0060
ENCODING 96
SWIDTH 157 0
DWIDTH 7 0
BBX 7 6 0 34
BITMAP
F8
78
3C
3C
1E
1E
ENDCHAR
STARTCHAR 0061
ENCODING 97
SWIDTH 562 0
DWIDTH 25 0
BBX 23 32 2 0
BITMAP
00F800
07FE00
0FFF80
1FFFC0
3FFFE0
7FFFE0
7FDFF0
7F07F0
FE07F0
FE07F0
FE03F0
FE03F0
FE03F0
FE03F0
FE03F0
FE03F0
FE03F0
FE03F0
FE03F0
FE03F0
FE03F0
FE03F0
FE03F0
FE03F0
FE03F0
FE03F0
FFFFFE
FFFFFE
FFFFFE
FFFFFE
FFFFFE
FFFFFE
ENDCHAR
STARTCHAR 0062
ENCODING 98
SWIDTH 630 0
DWIDTH 28 0
BBX 25 31 2 0
BITMAP
3FFFC000
3FFFF800
3FFFFC00
3FFFFE00
3FFFFF00
3FFFFF00
3F80FF00
3F807F80
3F803F80
3F803F80
3F803F00
3F807F00
FFFFFF00
FFFFFE00
FFFFFE00
FFFFFE00
FFFFFF00
FFFFFF00
3F80FF80
3F803F80
3F801F80
3F801F80
3F801F80
3F803F80
3F807F80
3FFFFF80
3FFFFF00
3FFFFF00
3FFFFE00
3FFFF800
3FFFE000
ENDCHAR
STARTCHAR 0063
ENCODING 99
SWIDTH 675 0
DWIDTH 30 0
BBX 28 33 2 -1
BITMAP
0007E000
003FFE00
01FFFF80
03FFFFC0
07FFFFE0
0FFFFFF0
1FFF7FE0
3FF007C0
3FC00380
7F800100
7F000000
FF000000
FE000000
FE000000
FC000000
FC000000
FC000000
FC000000
FE000000
FE000000
FE000000
FF000000
7F000000
7F800100
3FC00380
3FF00FC0
1FFFFFE0
0FFFFFF0
07FFFFE0
03FFFFC0
00FFFF80
003FFE00
0003C000
ENDCHAR
STARTCHAR 0064
ENCODING 100
SWIDTH 675 0
DWIDTH 30 0
BBX 26 31 3 0
BITMAP
FFFE0000
FFFFC000
FFFFF000
FFFFF800
FFFFFC00
FFFFFE00
FC07FF00
FC01FF00
FC007F80
FC003F80
FC003F80
FC001FC0
FC001FC0
FC001FC0
FC001FC0
FC001FC0
FC001FC0
FC001FC0
FC001FC0
FC001FC0
FC003F80
FC007F80
FC00FF80
FC01FF00
FC0FFF00
FFFFFE00
FFFFFC00
FFFFF800
FFFFE000
FFFFC000
FFFC0000
ENDCHAR
STARTCHAR 0065
ENCODING 101
SWIDTH 517 0
DWIDTH 23 0
BBX 22 31 1 0
BITMAP
1FFF00
1FFF00
1FFF00
1FFF00
1FFF00
1FFF00
1FC000
1FC000
1FC000
1FC000
1FC000
1FC000
FFFFC0
FFFFC0
FFFFC0
FFFFC0
FFFFC0
FFFFC0
1FC000
1FC000
1FC000
1FC000
1FC000
1FC000
1FC000
1FFFFC
1FFFFC
1FFFFC
1FFFFC
1FFFFC
1FFFFC
ENDCHAR
STARTCHAR 0066
ENCODING 102
SWIDTH 472 0
DWIDTH 21 0
BBX 20 31 1 0
BITMAP
1FFFF0
1FFFF0
1FFFF0
1FFFF0
1FFFF0
1FFFF0
1FC000
1FC000
1FC000
1FC000
1FC000
1FC000
1FC000
FFFFE0
FFFFE0
FFFFE0
FFFFE0
FFFFE0
FFFFE0
1FC000
1FC000
1FC000
1FC000
1FC000
1FC000
1FC000
1FC000
1FC000
1FC000
1FC000
1FC000
ENDCHAR
STARTCHAR 0067
ENCODING 103
SWIDTH 810 0
DWIDTH 36 0
BBX 34 33 2 -1
BITMAP
0007E00000
003FFE0000
00FFFF8000
03FFFFC000
07FFFFE000
0FFFFFF000
1FFF7FE000
3FF007C000
3FC0038000
7F80010000
7F00000000
FF00000000
FE00000000
FE00000000
FC01FFFFC0
FC01FFFFC0
FC01FFFFC0
FC01FFFFC0
FE01FFFFC0
FE01FFFFC0
FE00007F00
FF0000FE00
7F0000FE00
7F8001FE00
3FC003FC00
3FF00FFC00
1FFFFFF800
0FFFFFF000
07FFFFE000
03FFFFC000
00FFFF8000
003FFE0000
0001C00000
ENDCHAR
STARTCHAR 0068
ENCODING 104
SWIDTH 585 0
DWIDTH 26 0
BBX 23 31 1 0
BITMAP
1FC0FE
1FC0FE
1FC0FE
1FC0FE
1FC0FE
1FC0FE
1FC0FE
1FC0FE
1FC0FE
1FC0FE
1FC0FE
1FC0FE
1FC0FE
1FC0FE
FFFFFE
FFFFFE
FFFFFE
FFFFFE
FFFFFE
FFFFFE
1FC0FE
1FC0FE
1FC0FE
1FC0FE
1FC0FE
1FC0FE
1FC0FE
1FC0FE
1FC0FE
1FC0FE
1FC0FE
ENDCHAR
STARTCHAR 0069
ENCODING 105
SWIDTH 247 0
DWIDTH 11 0
BBX 13 36 -1 0
BITMAP
0200
0200
0300
0700
0780
FFF8
7FF0
3FE0
1FC0
1FC0
1FC0
18E0
3020
0000
0000
0000
0000
1FC0
1FC0
1FC0
1FC0
1FC0
1FC0
1FC0
1FC0
1FC0
1FC0
1FC0
1FC0
1FC0
1FC0
1FC0
1FC0
1FC0
1FC0
1FC0
ENDCHAR
STARTCHAR 006A
ENCODING 106
SWIDTH 472 0
DWIDTH 21 0
BBX 18 32 1 -1
BITMAP
00FFC0
00FFC0
00FFC0
00FFC0
00FFC0
00FFC0
000FC0
000FC0
000FC0
000FC0
000FC0
000FC0
000FC0
000FC0
000FC0
000FC0
000FC0
000FC0
000FC0
000FC0
000FC0
000FC0
001FC0
041FC0
1C1FC0
7FFFC0
FFFF80
FFFF80
7FFF00
3FFE00
0FF800
01E000
ENDCHAR
STARTCHAR 006B
ENCODING 107
SWIDTH 585 0
DWIDTH 26 0
BBX 23 31 1 0
BITMAP
1FC1F8
1FC1F8
1FC1F8
1FC1F8
1FC1F8
1FC1F8
1FC1F8
1FC3F8
1FC3F8
1FC3F8
1FC3F8
1FC7F0
FFFFF0
FFFFF0
FFFFF0
FFFFF8
FFFFF8
FFFFFC
1FC1FC
1FC0FE
1FC0FE
1FC0FE
1FC0FE
1FC0FE
1FC0FE
1FC0FE
1FC0FE
1FC0FE
1FC0FE
1FC0FE
1FC0FE
ENDCHAR
STARTCHAR 006C
ENCODING 108
SWIDTH 472 0
DWIDTH 21 0
BBX 17 31 3 0
BITMAP
FC0000
FC0000
FC0000
FC0000
FC0000
FC0000
FC0000
FC0000
FC0000
FC0000
FC0000
FC0000
FC0000
FC0000
FC0000
FC0000
FC0000
FC0000
FC0000
FC0000
FC0000
FC0000
FC0000
FC0000
FC0000
FFFF80
FFFF80
FFFF80
FFFF80
FFFF80
FFFF80
ENDCHAR
STARTCHAR 006D
ENCODING 109
SWIDTH 877 0
DWIDTH 39 0
BBX 36 32 1 0
BITMAP
1000000000
1C00E003F0
3E00F803F0
7F00FC03F0
FFC0FE03F0
FFE0FF03F0
7FF0FFC3F0
1FF8FFE3F0
1FFEFFF3F0
1FFFFFFFF0
1FFFFFFFF0
1FFFFFFFF0
1FFFFFFFF0
1FDFFE7FF0
1FCFFE3FF0
1FC3FE1FF0
1FC1FE0FF0
1FC0FE03F0
1FC0FE03F0
1FC0FE03F0
1FC0FE03F0
1FC0FE03F0
1FC0FE03F0
1FC0FE03F0
1FC0FE03F0
1FC0FE03F0
1FC0FE03F0
1FC0FE03F0
1FC0FE03F0
1FC0FE03F0
1FC0FE03F0
1FC0FE03F0
ENDCHAR
STARTCHAR 006E
ENCODING 110
SWIDTH 585 0
DWIDTH 26 0
BBX 22 32 1 0
BITMAP
100000
1C00FC
3E00FC
7F00FC
FFC0FC
FFE0FC
7FF0FC
3FF8FC
3FFEFC
3FFFFC
3FFFFC
3FFFFC
3FFFFC
3F9FFC
3F8FFC
3F87FC
3F83FC
3F80FC
3F80FC
3F80FC
3F80FC
3F80FC
3F80FC
3F80FC
3F80FC
3F80FC
3F80FC
3F80FC
3F80FC
3F80FC
3F80FC
3F80FC
ENDCHAR
STARTCHAR 006F
ENCODING 111
SWIDTH 810 0
DWIDTH 36 0
BBX 33 33 2 -1
BITMAP
0007E00000
003FFE0000
00FFFF8000
03FFFFE000
07FFFFF000
0FFFFFF800
1FFF7FFC00
3FF007FE00
3FC001FE00
7F8000FF00
7F00007F00
FF00007F00
FE00003F80
FE00003F80
FC00003F80
FC00003F80
FC00003F80
FC00003F80
FE00003F80
FE00003F80
FE00003F80
FF00007F00
7F00007F00
7F8000FF00
3FC003FE00
3FF007FC00
1FFFFFFC00
0FFFFFF800
07FFFFF000
03FFFFE000
00FFFF8000
003FFE0000
0001C00000
ENDCHAR
STARTCHAR 0070
ENCODING 112
SWIDTH 585 0
DWIDTH 26 0
BBX 24 31 1 0
BITMAP
1FFF80
1FFFF0
1FFFF8
1FFFFC
1FFFFE
1FFFFE
1F80FF
1F807F
1F803F
1F803F
1F803F
1F807F
1F807F
1F81FF
FFFFFE
FFFFFE
FFFFFC
FFFFF8
FFFFE0
FFFF00
1F8000
1F8000
1F8000
1F8000
1F8000
1F8000
1F8000
1F8000
1F8000
1F8000
1F8000
ENDCHAR
STARTCHAR 0071
ENCODING 113
SWIDTH 810 0
DWIDTH 36 0
BBX 33 34 2 -2
BITMAP
0007E00000
003FFE0000
00FFFF8000
03FFFFE000
07FFFFF000
0FFFFFF800
1FFF7FFC00
3FF007FE00
3FC001FE00
7F8000FF00
7F00007F00
FF00007F00
FE00003F80
FE00003F80
FC00003F80
FC00003F80
FC00003F80
FC00003F80
FE00003F80
FE00003F80
FE00003F80
FF00007F00
7F00007F00
7F8000FF00
3FC003FE00
3FF007FC00
1FFFFFFC00
0FFFFFFE00
07FFFFFF00
03FFFFFF00
00FFFFFE00
003FFE7C00
0001E03800
0000001000
ENDCHAR
STARTCHAR 0072
ENCODING 114
SWIDTH 607 0
DWIDTH 27 0
BBX 25 31 1 0
BITMAP
1FFFE000
1FFFF800
1FFFFC00
1FFFFE00
1FFFFF00
1FFFFF00
1FC07F80
1FC03F80
1FC01F80
1FC01F80
1FC01F80
1FC03F80
1FC07F80
FFFFFF00
FFFFFF00
FFFFFE00
FFFFFC00
FFFFFC00
FFFFFC00
1FC3FE00
1FC0FE00
1FC07F00
1FC07F00
1FC07F00
1FC07F00
1FC07F00
1FC07F00
1FC07F00
1FC07F00
1FC07F00
1FC07F00
ENDCHAR
STARTCHAR 0073
ENCODING 115
SWIDTH 517 0
DWIDTH 23 0
BBX 21 33 1 -1
BITMAP
00F800
07FF00
0FFF80
1FFFC0
3FFFE0
3FFFE0
3FFFF0
7F87F0
7F03C0
7F0200
3F8000
3FC000
3FE000
1FF800
0FFE00
07FF00
03FF80
01FFC0
007FE0
001FF0
000FF0
0007F8
0003F8
0E03F8
FE03F8
7F07F8
7FFFF0
3FFFF0
3FFFE0
1FFFE0
0FFFC0
03FF00
007800
ENDCHAR
STARTCHAR 0074
ENCODING 116
SWIDTH 517 0
DWIDTH 23 0
BBX 21 31 1 0
BITMAP
FFFFF8
FFFFF8
FFFFF8
FFFFF8
FFFFF8
FFFFF8
01FC00
01FC00
01FC00
01FC00
01FC00
01FC00
01FC00
01FC00
01FC00
01FC00
01FC00
01FC00
01FC00
01FC00
01FC00
01FC00
01FC00
01FC00
01FC00
01FC00
01FC00
01FC00
01FC00
01FC00
01FC00
ENDCHAR
STARTCHAR 0075
ENCODING 117
SWIDTH 540 0
DWIDTH 24 0
BBX 20 32 2 -1
BITMAP
FE03F0
FE03F0
FE03F0
FE03F0
FE03F0
FE03F0
FE03F0
FE03F0
FE03F0
FE03F0
FE03F0
FE03F0
FE03F0
FE03F0
FE03F0
FE03F0
FE03F0
FE03F0
FE03F0
FE03F0
FE03F0
FE07F0
FE07F0
FE07F0
7F0FF0
7FFFE0
7FFFE0
3FFFC0
1FFFC0
0FFF80
07FE00
00F000
ENDCHAR
STARTCHAR 0076
ENCODING 118
SWIDTH 495 0
DWIDTH 22 0
BBX 19 31 1 0
BITMAP
FC07E0
FC07E0
FC07E0
FC07E0
FC07E0
FC07E0
FC07E0
FC07E0
FC07E0
FC07E0
FC07E0
FC07E0
FC07E0
FC0FE0
FC0FE0
FC0FE0
FC0FE0
FE0FE0
FE0FE0
FE0FE0
FE0FC0
7E1FC0
7F1FC0
7F1FC0
3FBF80
3FBF80
1FFF00
1FFF00
0FFE00
07FC00
07F800
ENDCHAR
STARTCHAR 0077
ENCODING 119
SWIDTH 787 0
DWIDTH 35 0
BBX 32 31 1 0
BITMAP
FC07E07F
FC07E07F
FC07E07F
FC07E07F
FC07E07F
FC07E07F
FC07E07F
FC07E07F
FC07E07F
FC07E07F
FC07E07F
FC07E07F
FC07E07F
FC0FE07F
FC0FE07F
FC0FE07F
FC0FE07F
FE0FE07F
FE0FF07F
FE0FF07E
FE0FF0FE
7E1FF0FE
7F1FF8FE
7F1FF9FC
3FBFF9FC
3FBFFDFC
1FFFFFF8
1FFFFFF0
0FFE7FF0
07FC3FE0
07F83FC0
ENDCHAR
STARTCHAR 0078
ENCODING 120
SWIDTH 540 0
DWIDTH 24 0
BBX 20 31 2 0
BITMAP
FE03F0
FE03F0
FE03F0
FE03F0
FE03F0
FE03F0
FE03F0
FE03F0
7E07F0
7F07F0
7FFFF0
3FFFE0
3FFFE0
1FFFC0
3FFFC0
3FFFE0
7FFFF0
7F07F0
7E07F0
FE03F0
FE03F0
FE03F0
FE03F0
FE03F0
FE03F0
FE03F0
FE03F0
FE03F0
FE03F0
FE03F0
FE03F0
ENDCHAR
STARTCHAR 0079
ENCODING 121
SWIDTH 517 0
DWIDTH 23 0
BBX 20 31 2 0
BITMAP
FE07F0
FE07F0
FE07F0
FE07F0
FE07F0
FE07F0
FE07F0
FE07F0
FE07F0
FE07F0
FE07F0
FE07F0
FE07F0
FE07F0
FE07F0
FE07F0
FE0FF0
FF1FE0
7FFFE0
7FFFC0
3FFFC0
1FFF80
0FFE00
03F800
01F800
01F800
01F800
01F800
01F800
01F800
01F800
ENDCHAR
STARTCHAR 007A
ENCODING 122
SWIDTH 540 0
DWIDTH 24 0
BBX 22 31 1 0
BITMAP
FFFFFC
FFFFFC
FFFFFC
FFFFFC
FFFFF8
FFFFF0
0007F0
000FE0
001FE0
001FC0
003F80
003F80
007F00
00FF00
00FE00
01FC00
01FC00
03F800
07F800
07F000
0FF000
0FE000
1FC000
1FC000
3F8000
7FFFF8
7FFFF8
FFFFF8
FFFFF8
FFFFF8
FFFFF8
ENDCHAR
STARTCHAR 007B
ENCODING 123
SWIDTH 337 0
DWIDTH 15 0
BBX 10 44 3 -7
BITMAP
07C0
0FC0
1FC0
1FC0
1F00
3E00
3E00
3E00
3E00
3E00
3E00
3E00
3E00
3E00
3E00
3E00
3E00
3E00
3C00
FC00
FC00
F800
F800
FC00
7C00
3E00
3E00
3E00
3E00
3E00
3E00
3E00
3E00
3E00
3E00
3E00
3E00
3E00
3E00
1FC0
1FC0
1FC0
0FC0
07C0
ENDCHAR
STARTCHAR 007C
ENCODING 124
SWIDTH 180 0
DWIDTH 8 0
BBX 3 36 3 -5
BITMAP
E0
E0
E0
E0
E0
E0
E0
E0
E0
E0
E0
E0
E0
E0
E0
E0
E0
E0
E0
E0
E0
E0
E0
E0
E0
E0
E0
E0
E0
E0
E0
E0
E0
E0
E0
E0
ENDCHAR
STARTCHAR 007D
ENCODING 125
SWIDTH 337 0
DWIDTH 15 0
BBX 10 44 3 -7
BITMAP
F000
FC00
FC00
FE00
3E00
1E00
1E00
1E00
1E00
1E00
1E00
1E00
1E00
1E00
1E00
1E00
1E00
1E00
1F00
1FC0
0FC0
07C0
07C0
0FC0
1F80
1F00
1E00
1E00
1E00
1E00
1E00
1E00
1E00
1E00
1E00
1E00
1E00
1E00
1E00
FE00
FE00
FC00
FC00
F000
ENDCHAR
STARTCHAR 007E
ENCODING 126
SWIDTH 562 0
DWIDTH 25 0
BBX 20 7 3 11
BITMAP
3C0000
FFE030
FFFFF0
FFFFF0
FFFFF0
81FFF0
000F80
ENDCHAR
STARTCHAR 00A1
ENCODING 161
SWIDTH 270 0
DWIDTH 12 0
BBX 7 32 3 -5
BITMAP
38
FC
FE
FE
FE
FE
7C
38
00
00
00
00
FC
FC
FC
FC
FC
FC
FC
FC
FC
FC
FC
FC
FC
FC
FC
FC
FC
FC
FC
FC
ENDCHAR
STARTCHAR 00A2
ENCODING 162
SWIDTH 517 0
DWIDTH 23 0
BBX 18 27 3 2
BITMAP
01F000
01F000
01F000
03FC00
0FFF00
1FFF80
3FFFC0
7FFF80
7E0700
FC0200
F80000
F80000
F80000
F80000
F80000
F80000
F80000
FC0200
7F0700
7FFF80
3FFFC0
1FFF80
07FF00
03FC00
01F000
01F000
01F000
ENDCHAR
STARTCHAR 00A3
ENCODING 163
SWIDTH 562 0
DWIDTH 25 0
BBX 20 32 3 0
BITMAP
000F80
00FFF0
03FFF0
07FFF0
0FFFF0
1FFFF0
1FFFF0
1FE010
3FC000
3F8000
3F8000
3F8000
3F8000
1F8000
FFFF80
FFFF80
FFFF80
FFFF80
FFFF80
0FE000
07E000
07F000
07F000
0FE000
1FE000
FFE000
FFC000
FFFFF0
FFFFF0
FFFFF0
FFFFF0
FFFFF0
ENDCHAR
STARTCHAR 00A4
ENCODING 164
SWIDTH 607 0
DWIDTH 27 0
BBX 22 22 3 4
BITMAP
300030
787878
FFFFFC
FFFFF8
7FFFF0
3F87E0
3E01F0
3C01F0
7C00F0
7800F8
7800F8
7800F8
7800F0
3C00F0
3E01F0
3F03E0
3FFFF0
7FFFF8
FFFFFC
F9FEFC
700078
200030
ENDCHAR
STARTCHAR 00A5
ENCODING 165
SWIDTH 675 0
DWIDTH 30 0
BBX 25 31 3 0
BITMAP
FE007F80
FF007F00
7F00FF00
7F80FE00
3F81FE00
3FC1FC00
1FC3FC00
1FE3F800
0FE3F800
0FF7F000
07F7F000
07FFE000
03FFE000
03FFC000
01FFC000
1FFFF800
1FFFF800
1FFFF800
1FFFF800
1FFFF800
007F0000
007F0000
1FFFF800
1FFFF800
1FFFF800
1FFFF800
007F0000
007F0000
007F0000
007F0000
007F0000
ENDCHAR
STARTCHAR 00A6
ENCODING 166
SWIDTH 180 0
DWIDTH 8 0
BBX 3 36 3 -5
BITMAP
E0
E0
E0
E0
E0
E0
E0
E0
E0
E0
E0
E0
E0
E0
00
00
00
00
00
00
00
00
E0
E0
E0
E0
E0
E0
E0
E0
E0
E0
E0
E0
E0
E0
ENDCHAR
STARTCHAR 00A7
ENCODING 167
SWIDTH 495 0
DWIDTH 22 0
BBX 17 37 3 -5
BITMAP
01E000
0FF800
3FFC00
3FFE00
7FFF00
7FFF00
FE3F80
FE1E00
7E1000
7F0000
7F8000
3FE000
1FF000
0FFC00
3FFE00
7FFF00
FFFF00
FC3F80
F81F80
FC1F80
FE3F00
7FFF00
7FFE00
3FFC00
0FF000
07FC00
01FE00
00FE00
007F00
1C3F00
FC3F00
FFFF00
FFFF00
7FFE00
3FFE00
1FFC00
07F000
ENDCHAR
STARTCHAR 00A8
ENCODING 168
SWIDTH 405 0
DWIDTH 18 0
BBX 19 8 0 33
BITMAP
180300
7E0FC0
7F0FE0
FF1FE0
FF1FE0
FF1FE0
7E0FC0
3C0780
ENDCHAR
STARTCHAR 00A9
ENCODING 169
SWIDTH 855 0
DWIDTH 38 0
BBX 33 33 3 -1
BITMAP
0007F00000
007FFE0000
01FFFF8000
03F80FC000
07C003E000
0F0000F000
1E00007800
3C00003C00
3807E01E00
701FF80E00
703FFC0F00
F07FF80700
E0FC300700
E0F8000700
E0F0000780
E0F0000780
E0F0000780
E0F0000780
E0F0000780
E0F8000700
E07C300700
F07FF80F00
703FFC0F00
781FF80E00
3807E01E00
3C00003C00
1E00007800
0F0000F000
07C003E000
03F81FC000
01FFFF8000
007FFE0000
0007E00000
ENDCHAR
STARTCHAR 00AB
ENCODING 171
SWIDTH 630 0
DWIDTH 28 0
BBX 23 19 3 4
BITMAP
03F07E
03F0FC
07E1F8
0FC3F0
1F83E0
1F07E0
3F0FC0
7E1F80
FC1F00
FC3F00
FC1F80
7E1F80
3F0FC0
1F87E0
1F83F0
0FC3F0
07E1F8
03F0FC
01F07E
ENDCHAR
STARTCHAR 00AC
ENCODING 172
SWIDTH 585 0
DWIDTH 26 0
BBX 20 13 3 4
BITMAP
FFFFF0
FFFFF0
FFFFF0
FFFFF0
FFFFF0
0001F0
0001F0
0001F0
0001F0
0001F0
0001F0
0001F0
0001F0
ENDCHAR
STARTCHAR 00AE
ENCODING 174
SWIDTH 517 0
DWIDTH 23 0
BBX 18 18 3 14
BITMAP
07F000
1FFC00
380E00
700700
63E380
C3F180
C33180
C331C0
C7F0C0
C7F0C0
C331C0
C33180
E33380
600300
380700
1E3E00
0FF800
01E000
ENDCHAR
STARTCHAR 00AF
ENCODING 175
SWIDTH 270 0
DWIDTH 12 0
BBX 13 5 0 34
BITMAP
FFF8
FFF8
FFF8
FFF8
FFF8
ENDCHAR
STARTCHAR 00B0
ENCODING 176
SWIDTH 360 0
DWIDTH 16 0
BBX 10 11 3 21
BITMAP
0C00
7F80
FF80
E1C0
C0C0
C0C0
C0C0
E1C0
FFC0
7F80
1E00
ENDCHAR
STARTCHAR 00B1
ENCODING 177
SWIDTH 585 0
DWIDTH 26 0
BBX 20 20 3 4
BITMAP
01F800
01F800
01F800
01F800
FFFFF0
FFFFF0
FFFFF0
FFFFF0
FFFFF0
01F800
01F800
01F800
01F800
01F800
000000
000000
FFFFF0
FFFFF0
FFFFF0
FFFFF0
ENDCHAR
STARTCHAR 00B4
ENCODING 180
SWIDTH 157 0
DWIDTH 7 0
BBX 7 6 0 34
BITMAP
3E
3C
7C
78
70
F0
ENDCHAR
STARTCHAR 00B6
ENCODING 182
SWIDTH 540 0
DWIDTH 24 0
BBX 19 36 3 -5
BITMAP
07F1E0
1FF1E0
3FF1E0
7FF1E0
7FF1E0
FFF1E0
FFF1E0
FFF1E0
FFF1E0
FFF1E0
FFF1E0
FFF1E0
FFF1E0
7FF1E0
3FF1E0
1FF1E0
0FF1E0
01F1E0
0071E0
0071E0
0071E0
0071E0
0071E0
0071E0
0071E0
0071E0
0071E0
0071E0
0071E0
0071E0
0071E0
0071E0
0071E0
0071E0
0071E0
0071E0
ENDCHAR
STARTCHAR 00B7
ENCODING 183
SWIDTH 270 0
DWIDTH 12 0
BBX 7 8 3 8
BITMAP
38
FC
FE
FE
FE
FE
FC
38
ENDCHAR
STARTCHAR 00B8
ENCODING 184
SWIDTH 225 0
DWIDTH 10 0
BBX 10 10 0 -10
BITMAP
0700
0700
0780
07C0
01C0
21C0
7FC0
FFC0
7F80
1F00
ENDCHAR
STARTCHAR 00BB
ENCODING 187
SWIDTH 630 0
DWIDTH 28 0
BBX 23 19 3 4
BITMAP
FC3F80
7E1F80
3F0FC0
3F87E0
1F87F0
0FC3F0
07E1F8
07F0FC
03F0FC
01F87E
03F07C
03E0FC
07E1F8
0FC3F0
1F87E0
3F07E0
3F0FC0
7E1F80
FC3F00
ENDCHAR
STARTCHAR 00BF
ENCODING 191
SWIDTH 450 0
DWIDTH 20 0
BBX 15 32 3 -5
BITMAP
03E0
07E0
0FF0
0FF0
0FF0
07F0
03E0
0000
0000
0000
0000
07E0
07E0
07E0
07E0
0FC0
0FC0
1FC0
1F80
3F00
7F00
7E00
FC00
FC00
F820
FC3C
FEFE
FFFE
FFFC
7FF8
3FF0
0FC0
ENDCHAR
STARTCHAR 00C0
ENCODING 192
SWIDTH 562 0
DWIDTH 25 0
BBX 23 40 2 0
BITMAP
07C000
03C000
03E000
01E000
00F000
00F000
000000
000000
00F800
07FE00
0FFF80
1FFFC0
3FFFE0
7FFFE0
7FDFF0
7F07F0
FE07F0
FE07F0
FE03F0
FE03F0
FE03F0
FE03F0
FE03F0
FE03F0
FE03F0
FE03F0
FE03F0
FE03F0
FE03F0
FE03F0
FE03F0
FE03F0
FE03F0
FE03F0
FFFFFE
FFFFFE
FFFFFE
FFFFFE
FFFFFE
FFFFFE
ENDCHAR
STARTCHAR 00C1
ENCODING 193
SWIDTH 562 0
DWIDTH 25 0
BBX 23 40 2 0
BITMAP
001F00
003E00
003C00
007C00
007800
007000
000000
000000
00F800
07FE00
0FFF80
1FFFC0
3FFFE0
7FFFE0
7FDFF0
7F07F0
FE07F0
FE07F0
FE03F0
FE03F0
FE03F0
FE03F0
FE03F0
FE03F0
FE03F0
FE03F0
FE03F0
FE03F0
FE03F0
FE03F0
FE03F0
FE03F0
FE03F0
FE03F0
FFFFFE
FFFFFE
FFFFFE
FFFFFE
FFFFFE
FFFFFE
ENDCHAR
STARTCHAR 00C2
ENCODING 194
SWIDTH 562 0
DWIDTH 25 0
BBX 23 40 2 1
BITMAP
006000
00F000
00F800
01FC00
03FE00
07FF00
000000
000000
00F800
07FE00
0FFF80
1FFFC0
3FFFE0
7FFFE0
7FDFF0
7F07F0
FE07F0
FE07F0
FE03F0
FE03F0
FE03F0
FE03F0
FE03F0
FE03F0
FE03F0
FE03F0
FE03F0
FE03F0
FE03F0
FE03F0
FE03F0
FE03F0
FE03F0
FE03F0
FFFFFE
FFFFFE
FFFFFE
FFFFFE
FFFFFE
FFFFFE
ENDCHAR
STARTCHAR 00C3
ENCODING 195
SWIDTH 562 0
DWIDTH 25 0
BBX 23 40 2 0
BITMAP
078000
0FFE00
0FFE00
0FFE00
087E00
000000
000000
000000
00F800
07FE00
0FFF80
1FFFC0
3FFFE0
7FFFE0
7FDFF0
7F07F0
FE07F0
FE07F0
FE03F0
FE03F0
FE03F0
FE03F0
FE03F0
FE03F0
FE03F0
FE03F0
FE03F0
FE03F0
FE03F0
FE03F0
FE03F0
FE03F0
FE03F0
FE03F0
FFFFFE
FFFFFE
FFFFFE
FFFFFE
FFFFFE
FFFFFE
ENDCHAR
STARTCHAR 00C4
ENCODING 196
SWIDTH 562 0
DWIDTH 25 0
BBX 23 41 2 0
BITMAP
0C0180
3F07E0
3F8FF0
7F8FF0
7F8FF0
7F8FF0
3F07E0
1E03C0
000000
00F800
07FE00
0FFF80
1FFFC0
3FFFE0
7FFFE0
7FDFF0
7F07F0
FE07F0
FE07F0
FE03F0
FE03F0
FE03F0
FE03F0
FE03F0
FE03F0
FE03F0
FE03F0
FE03F0
FE03F0
FE03F0
FE03F0
FE03F0
FE03F0
FE03F0
FE03F0
FFFFFE
FFFFFE
FFFFFE
FFFFFE
FFFFFE
FFFFFE
ENDCHAR
STARTCHAR 00C5
ENCODING 197
SWIDTH 562 0
DWIDTH 25 0
BBX 23 43 2 0
BITMAP
007000
01FC00
03FC00
039E00
030E00
038E00
03DE00
03FC00
01F800
000000
000000
00F800
07FE00
0FFF80
1FFFC0
3FFFE0
7FFFE0
7FDFF0
7F07F0
FE07F0
FE07F0
FE03F0
FE03F0
FE03F0
FE03F0
FE03F0
FE03F0
FE03F0
FE03F0
FE03F0
FE03F0
FE03F0
FE03F0
FE03F0
FE03F0
FE03F0
FE03F0
FFFFFE
FFFFFE
FFFFFE
FFFFFE
FFFFFE
FFFFFE
ENDCHAR
STARTCHAR 00C7
ENCODING 199
SWIDTH 675 0
DWIDTH 30 0
BBX 28 42 2 -10
BITMAP
0007E000
003FFE00
01FFFF80
03FFFFC0
07FFFFE0
0FFFFFF0
1FFF7FE0
3FF007C0
3FC00380
7F800100
7F000000
FF000000
FE000000
FE000000
FC000000
FC000000
FC000000
FC000000
FE000000
FE000000
FE000000
FF000000
7F000000
7F800100
3FC00380
3FF00FC0
1FFFFFE0
0FFFFFF0
07FFFFE0
03FFFFC0
00FFFF80
003FFE00
0003C000
00070000
00078000
0003C000
0000E000
0030E000
007FE000
007FE000
003FC000
000F0000
ENDCHAR
STARTCHAR 00C8
ENCODING 200
SWIDTH 517 0
DWIDTH 23 0
BBX 22 40 1 0
BITMAP
0F8000
07C000
03C000
03C000
01E000
00E000
000000
000000
000000
1FFF00
1FFF00
1FFF00
1FFF00
1FFF00
1FFF00
1FC000
1FC000
1FC000
1FC000
1FC000
1FC000
FFFFC0
FFFFC0
FFFFC0
FFFFC0
FFFFC0
FFFFC0
1FC000
1FC000
1FC000
1FC000
1FC000
1FC000
1FC000
1FFFFC
1FFFFC
1FFFFC
1FFFFC
1FFFFC
1FFFFC
ENDCHAR
STARTCHAR 00C9
ENCODING 201
SWIDTH 517 0
DWIDTH 23 0
BBX 22 40 1 0
BITMAP
003E00
003C00
007C00
007800
00F000
00F000
000000
000000
000000
1FFF00
1FFF00
1FFF00
1FFF00
1FFF00
1FFF00
1FC000
1FC000
1FC000
1FC000
1FC000
1FC000
FFFFC0
FFFFC0
FFFFC0
FFFFC0
FFFFC0
FFFFC0
1FC000
1FC000
1FC000
1FC000
1FC000
1FC000
1FC000
1FFFFC
1FFFFC
1FFFFC
1FFFFC
1FFFFC
1FFFFC
ENDCHAR
STARTCHAR 00CA
ENCODING 202
SWIDTH 517 0
DWIDTH 23 0
BBX 22 40 1 1
BITMAP
006000
00E000
01F000
03F800
07FC00
0FFE00
000000
000000
000000
1FFF00
1FFF00
1FFF00
1FFF00
1FFF00
1FFF00
1FC000
1FC000
1FC000
1FC000
1FC000
1FC000
FFFFC0
FFFFC0
FFFFC0
FFFFC0
FFFFC0
FFFFC0
1FC000
1FC000
1FC000
1FC000
1FC000
1FC000
1FC000
1FFFFC
1FFFFC
1FFFFC
1FFFFC
1FFFFC
1FFFFC
ENDCHAR
STARTCHAR 00CB
ENCODING 203
SWIDTH 517 0
DWIDTH 23 0
BBX 22 41 1 0
BITMAP
1C0380
3E07C0
7F0FE0
7F0FE0
7F0FE0
7F0FE0
7E0FC0
1C0380
000000
000000
1FFF00
1FFF00
1FFF00
1FFF00
1FFF00
1FFF00
1FC000
1FC000
1FC000
1FC000
1FC000
1FC000
FFFFC0
FFFFC0
FFFFC0
FFFFC0
FFFFC0
FFFFC0
1FC000
1FC000
1FC000
1FC000
1FC000
1FC000
1FC000
1FFFFC
1FFFFC
1FFFFC
1FFFFC
1FFFFC
1FFFFC
ENDCHAR
STARTCHAR 00CC
ENCODING 204
SWIDTH 247 0
DWIDTH 11 0
BBX 8 28 1 0
BITMAP
F0
F8
78
3C
3C
1E
00
00
00
3F
3F
3F
3F
3F
3F
3F
3F
3F
3F
3F
3F
3F
3F
3F
3F
3F
3F
3F
ENDCHAR
STARTCHAR 00CD
ENCODING 205
SWIDTH 247 0
DWIDTH 11 0
BBX 8 28 3 0
BITMAP
1F
1E
3E
3C
38
78
00
00
00
FC
FC
FC
FC
FC
FC
FC
FC
FC
FC
FC
FC
FC
FC
FC
FC
FC
FC
FC
ENDCHAR
STARTCHAR 00CE
ENCODING 206
SWIDTH 247 0
DWIDTH 11 0
BBX 10 28 1 1
BITMAP
0C00
1E00
3F00
7F00
FF80
FFC0
0000
0000
0000
3F00
3F00
3F00
3F00
3F00
3F00
3F00
3F00
3F00
3F00
3F00
3F00
3F00
3F00
3F00
3F00
3F00
3F00
3F00
ENDCHAR
STARTCHAR 00CF
ENCODING 207
SWIDTH 247 0
DWIDTH 11 0
BBX 18 29 -3 0
BITMAP
380700
7C0F80
FE1FC0
FE1FC0
FE1FC0
FE1FC0
7E0FC0
380700
000000
000000
03F000
03F000
03F000
03F000
03F000
03F000
03F000
03F000
03F000
03F000
03F000
03F000
03F000
03F000
03F000
03F000
03F000
03F000
03F000
ENDCHAR
STARTCHAR 00D1
ENCODING 209
SWIDTH 585 0
DWIDTH 26 0
BBX 22 40 1 0
BITMAP
01E000
03FF80
03FF80
03FF80
021F80
000000
000000
000000
100000
1C00FC
3E00FC
7F00FC
FFC0FC
FFE0FC
7FF0FC
3FF8FC
3FFEFC
3FFFFC
3FFFFC
3FFFFC
3FFFFC
3F9FFC
3F8FFC
3F87FC
3F83FC
3F80FC
3F80FC
3F80FC
3F80FC
3F80FC
3F80FC
3F80FC
3F80FC
3F80FC
3F80FC
3F80FC
3F80FC
3F80FC
3F80FC
3F80FC
ENDCHAR
STARTCHAR 00D2
ENCODING 210
SWIDTH 810 0
DWIDTH 36 0
BBX 33 41 2 -1
BITMAP
001F000000
000F000000
000F800000
0007800000
0003C00000
0003C00000
0000000000
0000000000
0007E00000
003FFE0000
00FFFF8000
03FFFFE000
07FFFFF000
0FFFFFF800
1FFF7FFC00
3FF007FE00
3FC001FE00
7F8000FF00
7F00007F00
FF00007F00
FE00003F80
FE00003F80
FC00003F80
FC00003F80
FC00003F80
FC00003F80
FE00003F80
FE00003F80
FE00003F80
FF00007F00
7F00007F00
7F8000FF00
3FC003FE00
3FF007FC00
1FFFFFFC00
0FFFFFF800
07FFFFF000
03FFFFE000
00FFFF8000
003FFE0000
0001C00000
ENDCHAR
STARTCHAR 00D3
ENCODING 211
SWIDTH 810 0
DWIDTH 36 0
BBX 33 41 2 -1
BITMAP
00007C0000
0000780000
0000F00000
0000F00000
0001E00000
0001C00000
0000000000
0000000000
0007E00000
003FFE0000
00FFFF8000
03FFFFE000
07FFFFF000
0FFFFFF800
1FFF7FFC00
3FF007FE00
3FC001FE00
7F8000FF00
7F00007F00
FF00007F00
FE00003F80
FE00003F80
FC00003F80
FC00003F80
FC00003F80
FC00003F80
FE00003F80
FE00003F80
FE00003F80
FF00007F00
7F00007F00
7F8000FF00
3FC003FE00
3FF007FC00
1FFFFFFC00
0FFFFFF800
07FFFFF000
03FFFFE000
00FFFF8000
003FFE0000
0001C00000
ENDCHAR
STARTCHAR 00D4
ENCODING 212
SWIDTH 810 0
DWIDTH 36 0
BBX 33 41 2 0
BITMAP
0001800000
0001C00000
0003E00000
0007F00000
000FF80000
001FFC0000
0000000000
0000000000
0007E00000
003FFE0000
00FFFF8000
03FFFFE000
07FFFFF000
0FFFFFF800
1FFF7FFC00
3FF007FE00
3FC001FE00
7F8000FF00
7F00007F00
FF00007F00
FE00003F80
FE00003F80
FC00003F80
FC00003F80
FC00003F80
FC00003F80
FE00003F80
FE00003F80
FE00003F80
FF00007F00
7F00007F00
7F8000FF00
3FC003FE00
3FF007FC00
1FFFFFFC00
0FFFFFF800
07FFFFF000
03FFFFE000
00FFFF8000
003FFE0000
0001C00000
ENDCHAR
STARTCHAR 00D5
ENCODING 213
SWIDTH 810 0
DWIDTH 36 0
BBX 33 41 2 -1
BITMAP
001E000000
003FF80000
003FF80000
003FF80000
0021F80000
0000000000
0000000000
0000000000
0007E00000
003FFE0000
00FFFF8000
03FFFFE000
07FFFFF000
0FFFFFF800
1FFF7FFC00
3FF007FE00
3FC001FE00
7F8000FF00
7F00007F00
FF00007F00
FE00003F80
FE00003F80
FC00003F80
FC00003F80
FC00003F80
FC00003F80
FE00003F80
FE00003F80
FE00003F80
FF00007F00
7F00007F00
7F8000FF00
3FC003FE00
3FF007FC00
1FFFFFFC00
0FFFFFF800
07FFFFF000
03FFFFE000
00FFFF8000
003FFE0000
0001C00000
ENDCHAR
STARTCHAR 00D6
ENCODING 214
SWIDTH 810 0
DWIDTH 36 0
BBX 33 42 2 -1
BITMAP
0038060000
00FC1F8000
00FE1FC000
01FE3FC000
01FE3FC000
00FE1FC000
00FC1F8000
00780F0000
0000000000
0007E00000
003FFE0000
00FFFF8000
03FFFFE000
07FFFFF000
0FFFFFF800
1FFF7FFC00
3FF007FE00
3FC001FE00
7F8000FF00
7F00007F00
FF00007F00
FE00003F80
FE00003F80
FC00003F80
FC00003F80
FC00003F80
FC00003F80
FE00003F80
FE00003F80
FE00003F80
FF00007F00
7F00007F00
7F8000FF00
3FC003FE00
3FF007FC00
1FFFFFFC00
0FFFFFF800
07FFFFF000
03FFFFE000
00FFFF8000
003FFE0000
0001C00000
ENDCHAR
STARTCHAR 00D7
ENCODING 215
SWIDTH 540 0
DWIDTH 24 0
BBX 19 19 3 6
BITMAP
300180
7803C0
FC07E0
FE0FC0
7F1F80
3FBF00
1FFE00
0FFC00
07F800
03F800
07FC00
0FFE00
1FFF00
3FBF80
7F1FC0
FE0FE0
7C07C0
380380
100100
ENDCHAR
STARTCHAR 00D8
ENCODING 216
SWIDTH 787 0
DWIDTH 35 0
BBX 34 35 1 -2
BITMAP
0000000400
0003F00E00
003FFF1F00
00FFFFFF00
01FFFFFE00
07FFFFFC00
0FFFFFFC00
1FFF3FFC00
1FF003FE00
3FE007FF00
3FC00FFF00
7F801FFF80
7F003F3F80
7F007E3F80
FE00FC1F80
FE00F81FC0
FE01F81FC0
FE03F01FC0
FE07E01FC0
FE0FC01FC0
FE1F801F80
7F3F003F80
7F3E003F80
7FFE007F80
3FFC00FF00
3FF801FF00
1FF807FE00
0FFFFFFC00
0FFFFFF800
1FFFFFF000
1FFFFFE000
3FFFFFC000
3E1FFE0000
1C01C00000
0800000000
ENDCHAR
STARTCHAR 00D9
ENCODING 217
SWIDTH 540 0
DWIDTH 24 0
BBX 20 41 2 -1
BITMAP
07C000
07C000
03C000
01E000
01E000
00F000
000000
000000
000000
FE03F0
FE03F0
FE03F0
FE03F0
FE03F0
FE03F0
FE03F0
FE03F0
FE03F0
FE03F0
FE03F0
FE03F0
FE03F0
FE03F0
FE03F0
FE03F0
FE03F0
FE03F0
FE03F0
FE03F0
FE03F0
FE07F0
FE07F0
FE07F0
7F0FF0
7FFFE0
7FFFE0
3FFFC0
1FFFC0
0FFF80
07FE00
00F000
ENDCHAR
STARTCHAR 00DA
ENCODING 218
SWIDTH 540 0
DWIDTH 24 0
BBX 20 41 2 -1
BITMAP
001E00
003E00
003C00
007800
007800
00F000
000000
000000
000000
FE03F0
FE03F0
FE03F0
FE03F0
FE03F0
FE03F0
FE03F0
FE03F0
FE03F0
FE03F0
FE03F0
FE03F0
FE03F0
FE03F0
FE03F0
FE03F0
FE03F0
FE03F0
FE03F0
FE03F0
FE03F0
FE07F0
FE07F0
FE07F0
7F0FF0
7FFFE0
7FFFE0
3FFFC0
1FFFC0
0FFF80
07FE00
00F000
ENDCHAR
STARTCHAR 00DB
ENCODING 219
SWIDTH 540 0
DWIDTH 24 0
BBX 20 41 2 0
BITMAP
006000
00F000
01F800
01FC00
03FE00
07FE00
000000
000000
000000
FE03F0
FE03F0
FE03F0
FE03F0
FE03F0
FE03F0
FE03F0
FE03F0
FE03F0
FE03F0
FE03F0
FE03F0
FE03F0
FE03F0
FE03F0
FE03F0
FE03F0
FE03F0
FE03F0
FE03F0
FE03F0
FE07F0
FE07F0
FE07F0
7F0FF0
7FFFE0
7FFFE0
3FFFC0
1FFFC0
0FFF80
07FE00
00F000
ENDCHAR
STARTCHAR 00DC
ENCODING 220
SWIDTH 540 0
DWIDTH 24 0
BBX 20 42 2 -1
BITMAP
0C0380
3F07E0
7F0FE0
7F8FF0
7F8FF0
7F0FE0
3F07E0
1E0380
000000
000000
FE03F0
FE03F0
FE03F0
FE03F0
FE03F0
FE03F0
FE03F0
FE03F0
FE03F0
FE03F0
FE03F0
FE03F0
FE03F0
FE03F0
FE03F0
FE03F0
FE03F0
FE03F0
FE03F0
FE03F0
FE03F0
FE07F0
FE07F0
FE07F0
7F0FF0
7FFFE0
7FFFE0
3FFFC0
1FFFC0
0FFF80
07FE00
00F000
ENDCHAR
STARTCHAR 00DD
ENCODING 221
SWIDTH 517 0
DWIDTH 23 0
BBX 20 40 2 0
BITMAP
003E00
003E00
003C00
007800
007800
00F000
000000
000000
000000
FE07F0
FE07F0
FE07F0
FE07F0
FE07F0
FE07F0
FE07F0
FE07F0
FE07F0
FE07F0
FE07F0
FE07F0
FE07F0
FE07F0
FE07F0
FE07F0
FE0FF0
FF1FE0
7FFFE0
7FFFC0
3FFFC0
1FFF80
0FFE00
03F800
01F800
01F800
01F800
01F800
01F800
01F800
01F800
ENDCHAR
STARTCHAR 00E0
ENCODING 224
SWIDTH 562 0
DWIDTH 25 0
BBX 23 40 2 0
BITMAP
07C000
03C000
03E000
01E000
00F000
00F000
000000
000000
00F800
07FE00
0FFF80
1FFFC0
3FFFE0
7FFFE0
7FDFF0
7F07F0
FE07F0
FE07F0
FE03F0
FE03F0
FE03F0
FE03F0
FE03F0
FE03F0
FE03F0
FE03F0
FE03F0
FE03F0
FE03F0
FE03F0
FE03F0
FE03F0
FE03F0
FE03F0
FFFFFE
FFFFFE
FFFFFE
FFFFFE
FFFFFE
FFFFFE
ENDCHAR
STARTCHAR 00E1
ENCODING 225
SWIDTH 562 0
DWIDTH 25 0
BBX 23 40 2 0
BITMAP
001F00
003E00
003C00
007C00
007800
007000
000000
000000
00F800
07FE00
0FFF80
1FFFC0
3FFFE0
7FFFE0
7FDFF0
7F07F0
FE07F0
FE07F0
FE03F0
FE03F0
FE03F0
FE03F0
FE03F0
FE03F0
FE03F0
FE03F0
FE03F0
FE03F0
FE03F0
FE03F0
FE03F0
FE03F0
FE03F0
FE03F0
FFFFFE
FFFFFE
FFFFFE
FFFFFE
FFFFFE
FFFFFE
ENDCHAR
STARTCHAR 00E2
ENCODING 226
SWIDTH 562 0
DWIDTH 25 0
BBX 23 40 2 1
BITMAP
006000
00F000
00F800
01FC00
03FE00
07FF00
000000
000000
00F800
07FE00
0FFF80
1FFFC0
3FFFE0
7FFFE0
7FDFF0
7F07F0
FE07F0
FE07F0
FE03F0
FE03F0
FE03F0
FE03F0
FE03F0
FE03F0
FE03F0
FE03F0
FE03F0
FE03F0
FE03F0
FE03F0
FE03F0
FE03F0
FE03F0
FE03F0
FFFFFE
FFFFFE
FFFFFE
FFFFFE
FFFFFE
FFFFFE
ENDCHAR
STARTCHAR 00E3
ENCODING 227
SWIDTH 562 0
DWIDTH 25 0
BBX 23 40 2 0
BITMAP
078000
0FFE00
0FFE00
0FFE00
087E00
000000
000000
000000
00F800
07FE00
0FFF80
1FFFC0
3FFFE0
7FFFE0
7FDFF0
7F07F0
FE07F0
FE07F0
FE03F0
FE03F0
FE03F0
FE03F0
FE03F0
FE03F0
FE03F0
FE03F0
FE03F0
FE03F0
FE03F0
FE03F0
FE03F0
FE03F0
FE03F0
FE03F0
FFFFFE
FFFFFE
FFFFFE
FFFFFE
FFFFFE
FFFFFE
ENDCHAR
STARTCHAR 00E4
ENCODING 228
SWIDTH 562 0
DWIDTH 25 0
BBX 23 41 2 0
BITMAP
0C0180
3F07E0
3F8FF0
7F8FF0
7F8FF0
7F8FF0
3F07E0
1E03C0
000000
00F800
07FE00
0FFF80
1FFFC0
3FFFE0
7FFFE0
7FDFF0
7F07F0
FE07F0
FE07F0
FE03F0
FE03F0
FE03F0
FE03F0
FE03F0
FE03F0
FE03F0
FE03F0
FE03F0
FE03F0
FE03F0
FE03F0
FE03F0
FE03F0
FE03F0
FE03F0
FFFFFE
FFFFFE
FFFFFE
FFFFFE
FFFFFE
FFFFFE
ENDCHAR
STARTCHAR 00E5
ENCODING 229
SWIDTH 562 0
DWIDTH 25 0
BBX 23 43 2 0
BITMAP
007000
01FC00
03FC00
039E00
030E00
038E00
03DE00
03FC00
01F800
000000
000000
00F800
07FE00
0FFF80
1FFFC0
3FFFE0
7FFFE0
7FDFF0
7F07F0
FE07F0
FE07F0
FE03F0
FE03F0
FE03F0
FE03F0
FE03F0
FE03F0
FE03F0
FE03F0
FE03F0
FE03F0
FE03F0
FE03F0
FE03F0
FE03F0
FE03F0
FE03F0
FFFFFE
FFFFFE
FFFFFE
FFFFFE
FFFFFE
FFFFFE
ENDCHAR
STARTCHAR 00E7
ENCODING 231
SWIDTH 675 0
DWIDTH 30 0
BBX 28 42 2 -10
BITMAP
0007E000
003FFE00
01FFFF80
03FFFFC0
07FFFFE0
0FFFFFF0
1FFF7FE0
3FF007C0
3FC00380
7F800100
7F000000
FF000000
FE000000
FE000000
FC000000
FC000000
FC000000
FC000000
FE000000
FE000000
FE000000
FF000000
7F000000
7F800100
3FC00380
3FF00FC0
1FFFFFE0
0FFFFFF0
07FFFFE0
03FFFFC0
00FFFF80
003FFE00
0003C000
00070000
00078000
0003C000
0000E000
0030E000
007FE000
007FE000
003FC000
000F0000
ENDCHAR
STARTCHAR 00E8
ENCODING 232
SWIDTH 517 0
DWIDTH 23 0
BBX 22 40 1 0
BITMAP
0F8000
07C000
03C000
03C000
01E000
00E000
000000
000000
000000
1FFF00
1FFF00
1FFF00
1FFF00
1FFF00
1FFF00
1FC000
1FC000
1FC000
1FC000
1FC000
1FC000
FFFFC0
FFFFC0
FFFFC0
FFFFC0
FFFFC0
FFFFC0
1FC000
1FC000
1FC000
1FC000
1FC000
1FC000
1FC000
1FFFFC
1FFFFC
1FFFFC
1FFFFC
1FFFFC
1FFFFC
ENDCHAR
STARTCHAR 00E9
ENCODING 233
SWIDTH 517 0
DWIDTH 23 0
BBX 22 40 1 0
BITMAP
003E00
003C00
007C00
007800
00F000
00F000
000000
000000
000000
1FFF00
1FFF00
1FFF00
1FFF00
1FFF00
1FFF00
1FC000
1FC000
1FC000
1FC000
1FC000
1FC000
FFFFC0
FFFFC0
FFFFC0
FFFFC0
FFFFC0
FFFFC0
1FC000
1FC000
1FC000
1FC000
1FC000
1FC000
1FC000
1FFFFC
1FFFFC
1FFFFC
1FFFFC
1FFFFC
1FFFFC
ENDCHAR
STARTCHAR 00EA
ENCODING 234
SWIDTH 517 0
DWIDTH 23 0
BBX 22 40 1 1
BITMAP
006000
00E000
01F000
03F800
07FC00
0FFE00
000000
000000
000000
1FFF00
1FFF00
1FFF00
1FFF00
1FFF00
1FFF00
1FC000
1FC000
1FC000
1FC000
1FC000
1FC000
FFFFC0
FFFFC0
FFFFC0
FFFFC0
FFFFC0
FFFFC0
1FC000
1FC000
1FC000
1FC000
1FC000
1FC000
1FC000
1FFFFC
1FFFFC
1FFFFC
1FFFFC
1FFFFC
1FFFFC
ENDCHAR
STARTCHAR 00EB
ENCODING 235
SWIDTH 517 0
DWIDTH 23 0
BBX 22 41 1 0
BITMAP
1C0380
3E07C0
7F0FE0
7F0FE0
7F0FE0
7F0FE0
7E0FC0
1C0380
000000
000000
1FFF00
1FFF00
1FFF00
1FFF00
1FFF00
1FFF00
1FC000
1FC000
1FC000
1FC000
1FC000
1FC000
FFFFC0
FFFFC0
FFFFC0
FFFFC0
FFFFC0
FFFFC0
1FC000
1FC000
1FC000
1FC000
1FC000
1FC000
1FC000
1FFFFC
1FFFFC
1FFFFC
1FFFFC
1FFFFC
1FFFFC
ENDCHAR
STARTCHAR 00EC
ENCODING 236
SWIDTH 247 0
DWIDTH 11 0
BBX 8 28 1 0
BITMAP
F0
F8
78
3C
3C
1E
00
00
00
3F
3F
3F
3F
3F
3F
3F
3F
3F
3F
3F
3F
3F
3F
3F
3F
3F
3F
3F
ENDCHAR
STARTCHAR 00ED
ENCODING 237
SWIDTH 247 0
DWIDTH 11 0
BBX 8 28 3 0
BITMAP
1F
1E
3E
3C
38
78
00
00
00
FC
FC
FC
FC
FC
FC
FC
FC
FC
FC
FC
FC
FC
FC
FC
FC
FC
FC
FC
ENDCHAR
STARTCHAR 00EE
ENCODING 238
SWIDTH 247 0
DWIDTH 11 0
BBX 10 28 1 1
BITMAP
0C00
1E00
3F00
7F00
FF80
FFC0
0000
0000
0000
3F00
3F00
3F00
3F00
3F00
3F00
3F00
3F00
3F00
3F00
3F00
3F00
3F00
3F00
3F00
3F00
3F00
3F00
3F00
ENDCHAR
STARTCHAR 00EF
ENCODING 239
SWIDTH 247 0
DWIDTH 11 0
BBX 18 29 -3 0
BITMAP
380700
7C0F80
FE1FC0
FE1FC0
FE1FC0
FE1FC0
7E0FC0
380700
000000
000000
03F000
03F000
03F000
03F000
03F000
03F000
03F000
03F000
03F000
03F000
03F000
03F000
03F000
03F000
03F000
03F000
03F000
03F000
03F000
ENDCHAR
STARTCHAR 00F1
ENCODING 241
SWIDTH 585 0
DWIDTH 26 0
BBX 22 40 1 0
BITMAP
01E000
03FF80
03FF80
03FF80
021F80
000000
000000
000000
100000
1C00FC
3E00FC
7F00FC
FFC0FC
FFE0FC
7FF0FC
3FF8FC
3FFEFC
3FFFFC
3FFFFC
3FFFFC
3FFFFC
3F9FFC
3F8FFC
3F87FC
3F83FC
3F80FC
3F80FC
3F80FC
3F80FC
3F80FC
3F80FC
3F80FC
3F80FC
3F80FC
3F80FC
3F80FC
3F80FC
3F80FC
3F80FC
3F80FC
ENDCHAR
STARTCHAR 00F2
ENCODING 242
SWIDTH 810 0
DWIDTH 36 0
BBX 33 41 2 -1
BITMAP
001F000000
000F000000
000F800000
0007800000
0003C00000
0003C00000
0000000000
0000000000
0007E00000
003FFE0000
00FFFF8000
03FFFFE000
07FFFFF000
0FFFFFF800
1FFF7FFC00
3FF007FE00
3FC001FE00
7F8000FF00
7F00007F00
FF00007F00
FE00003F80
FE00003F80
FC00003F80
FC00003F80
FC00003F80
FC00003F80
FE00003F80
FE00003F80
FE00003F80
FF00007F00
7F00007F00
7F8000FF00
3FC003FE00
3FF007FC00
1FFFFFFC00
0FFFFFF800
07FFFFF000
03FFFFE000
00FFFF8000
003FFE0000
0001C00000
ENDCHAR
STARTCHAR 00F3
ENCODING 243
SWIDTH 810 0
DWIDTH 36 0
BBX 33 41 2 -1
BITMAP
00007C0000
0000780000
0000F00000
0000F00000
0001E00000
0001C00000
0000000000
0000000000
0007E00000
003FFE0000
00FFFF8000
03FFFFE000
07FFFFF000
0FFFFFF800
1FFF7FFC00
3FF007FE00
3FC001FE00
7F8000FF00
7F00007F00
FF00007F00
FE00003F80
FE00003F80
FC00003F80
FC00003F80
FC00003F80
FC00003F80
FE00003F80
FE00003F80
FE00003F80
FF00007F00
7F00007F00
7F8000FF00
3FC003FE00
3FF007FC00
1FFFFFFC00
0FFFFFF800
07FFFFF000
03FFFFE000
00FFFF8000
003FFE0000
0001C00000
ENDCHAR
STARTCHAR 00F4
ENCODING 244
SWIDTH 810 0
DWIDTH 36 0
BBX 33 41 2 0
BITMAP
0001800000
0001C00000
0003E00000
0007F00000
000FF80000
001FFC0000
0000000000
0000000000
0007E00000
003FFE0000
00FFFF8000
03FFFFE000
07FFFFF000
0FFFFFF800
1FFF7FFC00
3FF007FE00
3FC001FE00
7F8000FF00
7F00007F00
FF00007F00
FE00003F80
FE00003F80
FC00003F80
FC00003F80
FC00003F80
FC00003F80
FE00003F80
FE00003F80
FE00003F80
FF00007F00
7F00007F00
7F8000FF00
3FC003FE00
3FF007FC00
1FFFFFFC00
0FFFFFF800
07FFFFF000
03FFFFE000
00FFFF8000
003FFE0000
0001C00000
ENDCHAR
STARTCHAR 00F5
ENCODING 245
SWIDTH 810 0
DWIDTH 36 0
BBX 33 41 2 -1
BITMAP
001E000000
003FF80000
003FF80000
003FF80000
0021F80000
0000000000
0000000000
0000000000
0007E00000
003FFE0000
00FFFF8000
03FFFFE000
07FFFFF000
0FFFFFF800
1FFF7FFC00
3FF007FE00
3FC001FE00
7F8000FF00
7F00007F00
FF00007F00
FE00003F80
FE00003F80
FC00003F80
FC00003F80
FC00003F80
FC00003F80
FE00003F80
FE00003F80
FE00003F80
FF00007F00
7F00007F00
7F8000FF00
3FC003FE00
3FF007FC00
1FFFFFFC00
0FFFFFF800
07FFFFF000
03FFFFE000
00FFFF8000
003FFE0000
0001C00000
ENDCHAR
STARTCHAR 00F6
ENCODING 246
SWIDTH 810 0
DWIDTH 36 0
BBX 33 42 2 -1
BITMAP
0038060000
00FC1F8000
00FE1FC000
01FE3FC000
01FE3FC000
00FE1FC000
00FC1F8000
00780F0000
0000000000
0007E00000
003FFE0000
00FFFF8000
03FFFFE000
07FFFFF000
0FFFFFF800
1FFF7FFC00
3FF007FE00
3FC001FE00
7F8000FF00
7F00007F00
FF00007F00
FE00003F80
FE00003F80
FC00003F80
FC00003F80
FC00003F80
FC00003F80
FE00003F80
FE00003F80
FE00003F80
FF00007F00
7F00007F00
7F8000FF00
3FC003FE00
3FF007FC00
1FFFFFFC00
0FFFFFF800
07FFFFF000
03FFFFE000
00FFFF8000
003FFE0000
0001C00000
ENDCHAR
STARTCHAR 00F7
ENCODING 247
SWIDTH 585 0
DWIDTH 26 0
BBX 20 22 3 3
BITMAP
00F000
01F800
01F800
01F800
01F800
00F000
000000
000000
FFFFF0
FFFFF0
FFFFF0
FFFFF0
FFFFF0
000000
000000
004000
00F000
01F800
01F800
01F800
01F800
00F000
ENDCHAR
STARTCHAR 00F8
ENCODING 248
SWIDTH 787 0
DWIDTH 35 0
BBX 34 35 1 -2
BITMAP
0000000400
0003F00E00
003FFF1F00
00FFFFFF00
01FFFFFE00
07FFFFFC00
0FFFFFFC00
1FFF3FFC00
1FF003FE00
3FE007FF00
3FC00FFF00
7F801FFF80
7F003F3F80
7F007E3F80
FE00FC1F80
FE00F81FC0
FE01F81FC0
FE03F01FC0
FE07E01FC0
FE0FC01FC0
FE1F801F80
7F3F003F80
7F3E003F80
7FFE007F80
3FFC00FF00
3FF801FF00
1FF807FE00
0FFFFFFC00
0FFFFFF800
1FFFFFF000
1FFFFFE000
3FFFFFC000
3E1FFE0000
1C01C00000
0800000000
ENDCHAR
STARTCHAR 00F9
ENCODING 249
SWIDTH 540 0
DWIDTH 24 0
BBX 20 41 2 -1
BITMAP
07C000
07C000
03C000
01E000
01E000
00F000
000000
000000
000000
FE03F0
FE03F0
FE03F0
FE03F0
FE03F0
FE03F0
FE03F0
FE03F0
FE03F0
FE03F0
FE03F0
FE03F0
FE03F0
FE03F0
FE03F0
FE03F0
FE03F0
FE03F0
FE03F0
FE03F0
FE03F0
FE07F0
FE07F0
FE07F0
7F0FF0
7FFFE0
7FFFE0
3FFFC0
1FFFC0
0FFF80
07FE00
00F000
ENDCHAR
STARTCHAR 00FA
ENCODING 250
SWIDTH 540 0
DWIDTH 24 0
BBX 20 41 2 -1
BITMAP
001E00
003E00
003C00
007800
007800
00F000
000000
000000
000000
FE03F0
FE03F0
FE03F0
FE03F0
FE03F0
FE03F0
FE03F0
FE03F0
FE03F0
FE03F0
FE03F0
FE03F0
FE03F0
FE03F0
FE03F0
FE03F0
FE03F0
FE03F0
FE03F0
FE03F0
FE03F0
FE07F0
FE07F0
FE07F0
7F0FF0
7FFFE0
7FFFE0
3FFFC0
1FFFC0
0FFF80
07FE00
00F000
ENDCHAR
STARTCHAR 00FB
ENCODING 251
SWIDTH 540 0
DWIDTH 24 0
BBX 20 41 2 0
BITMAP
006000
00F000
01F800
01FC00
03FE00
07FE00
000000
000000
000000
FE03F0
FE03F0
FE03F0
FE03F0
FE03F0
FE03F0
FE03F0
FE03F0
FE03F0
FE03F0
FE03F0
FE03F0
FE03F0
FE03F0
FE03F0
FE03F0
FE03F0
FE03F0
FE03F0
FE03F0
FE03F0
FE07F0
FE07F0
FE07F0
7F0FF0
7FFFE0
7FFFE0
3FFFC0
1FFFC0
0FFF80
07FE00
00F000
ENDCHAR
STARTCHAR 00FC
ENCODING 252
SWIDTH 540 0
DWIDTH 24 0
BBX 20 42 2 -1
BITMAP
0C0380
3F07E0
7F0FE0
7F8FF0
7F8FF0
7F0FE0
3F07E0
1E0380
000000
000000
FE03F0
FE03F0
FE03F0
FE03F0
FE03F0
FE03F0
FE03F0
FE03F0
FE03F0
FE03F0
FE03F0
FE03F0
FE03F0
FE03F0
FE03F0
FE03F0
FE03F0
FE03F0
FE03F0
FE03F0
FE03F0
FE07F0
FE07F0
FE07F0
7F0FF0
7FFFE0
7FFFE0
3FFFC0
1FFFC0
0FFF80
07FE00
00F000
ENDCHAR
STARTCHAR 00FD
ENCODING 253
SWIDTH 517 0
DWIDTH 23 0
BBX 20 40 2 0
BITMAP
003E00
003E00
003C00
007800
007800
00F000
000000
000000
000000
FE07F0
FE07F0
FE07F0
FE07F0
FE07F0
FE07F0
FE07F0
FE07F0
FE07F0
FE07F0
FE07F0
FE07F0
FE07F0
FE07F0
FE07F0
FE07F0
FE0FF0
FF1FE0
7FFFE0
7FFFC0
3FFFC0
1FFF80
0FFE00
03F800
01F800
01F800
01F800
01F800
01F800
01F800
01F800
ENDCHAR
STARTCHAR 00FF
ENCODING 255
SWIDTH 517 0
DWIDTH 23 0
BBX 20 41 2 0
BITMAP
1C0380
3E07C0
7F0FE0
7F0FE0
7F0FE0
7F0FE0
3F07E0
1C0380
000000
000000
FE07F0
FE07F0
FE07F0
FE07F0
FE07F0
FE07F0
FE07F0
FE07F0
FE07F0
FE07F0
FE07F0
FE07F0
FE07F0
FE07F0
FE07F0
FE07F0
FE0FF0
FF1FE0
7FFFE0
7FFFC0
3FFFC0
1FFF80
0FFE00
03F800
01F800
01F800
01F800
01F800
01F800
01F800
01F800
ENDCHAR
STARTCHAR 0100
ENCODING 256
SWIDTH 562 0
DWIDTH 25 0
BBX 23 39 2 0
BITMAP
0FFF80
0FFF80
0FFF80
0FFF80
0FFF80
000000
000000
00F800
07FE00
0FFF80
1FFFC0
3FFFE0
7FFFE0
7FDFF0
7F07F0
FE07F0
FE07F0
FE03F0
FE03F0
FE03F0
FE03F0
FE03F0
FE03F0
FE03F0
FE03F0
FE03F0
FE03F0
FE03F0
FE03F0
FE03F0
FE03F0
FE03F0
FE03F0
FFFFFE
FFFFFE
FFFFFE
FFFFFE
FFFFFE
FFFFFE
ENDCHAR
STARTCHAR 0101
ENCODING 257
SWIDTH 562 0
DWIDTH 25 0
BBX 23 39 2 0
BITMAP
0FFF80
0FFF80
0FFF80
0FFF80
0FFF80
000000
000000
00F800
07FE00
0FFF80
1FFFC0
3FFFE0
7FFFE0
7FDFF0
7F07F0
FE07F0
FE07F0
FE03F0
FE03F0
FE03F0
FE03F0
FE03F0
FE03F0
FE03F0
FE03F0
FE03F0
FE03F0
FE03F0
FE03F0
FE03F0
FE03F0
FE03F0
FE03F0
FFFFFE
FFFFFE
FFFFFE
FFFFFE
FFFFFE
FFFFFE
ENDCHAR
STARTCHAR 0102
ENCODING 258
SWIDTH 562 0
DWIDTH 25 0
BBX 23 39 2 0
BITMAP
07FE00
07FE00
03FE00
01FC00
00F800
000000
000000
00F800
07FE00
0FFF80
1FFFC0
3FFFE0
7FFFE0
7FDFF0
7F07F0
FE07F0
FE07F0
FE03F0
FE03F0
FE03F0
FE03F0
FE03F0
FE03F0
FE03F0
FE03F0
FE03F0
FE03F0
FE03F0
FE03F0
FE03F0
FE03F0
FE03F0
FE03F0
FFFFFE
FFFFFE
FFFFFE
FFFFFE
FFFFFE
FFFFFE
ENDCHAR
STARTCHAR 0103
ENCODING 259
SWIDTH 562 0
DWIDTH 25 0
BBX 23 39 2 0
BITMAP
07FE00
07FE00
03FE00
01FC00
00F800
000000
000000
00F800
07FE00
0FFF80
1FFFC0
3FFFE0
7FFFE0
7FDFF0
7F07F0
FE07F0
FE07F0
FE03F0
FE03F0
FE03F0
FE03F0
FE03F0
FE03F0
FE03F0
FE03F0
FE03F0
FE03F0
FE03F0
FE03F0
FE03F0
FE03F0
FE03F0
FE03F0
FFFFFE
FFFFFE
FFFFFE
FFFFFE
FFFFFE
FFFFFE
ENDCHAR
STARTCHAR 0104
ENCODING 260
SWIDTH 562 0
DWIDTH 25 0
BBX 25 41 2 -9
BITMAP
00F80000
07FE0000
0FFF8000
1FFFC000
3FFFE000
7FFFE000
7FDFF000
7F07F000
FE07F000
FE07F000
FE03F000
FE03F000
FE03F000
FE03F000
FE03F000
FE03F000
FE03F000
FE03F000
FE03F000
FE03F000
FE03F000
FE03F000
FE03F000
FE03F000
FE03F000
FE03F000
FFFFFE00
FFFFFE00
FFFFFE00
FFFFFE00
FFFFFE00
FFFFFE00
00007800
0000F000
0001E000
0001C000
0001C200
0001E700
0001FF80
0000FF00
00007E00
ENDCHAR
STARTCHAR 0105
ENCODING 261
SWIDTH 562 0
DWIDTH 25 0
BBX 25 41 2 -9
BITMAP
00F80000
07FE0000
0FFF8000
1FFFC000
3FFFE000
7FFFE000
7FDFF000
7F07F000
FE07F000
FE07F000
FE03F000
FE03F000
FE03F000
FE03F000
FE03F000
FE03F000
FE03F000
FE03F000
FE03F000
FE03F000
FE03F000
FE03F000
FE03F000
FE03F000
FE03F000
FE03F000
FFFFFE00
FFFFFE00
FFFFFE00
FFFFFE00
FFFFFE00
FFFFFE00
00007800
0000F000
0001E000
0001C000
0001C200
0001E700
0001FF80
0000FF00
00007E00
ENDCHAR
STARTCHAR 0106
ENCODING 262
SWIDTH 675 0
DWIDTH 30 0
BBX 28 41 2 -1
BITMAP
00007800
0000F800
0000F000
0001E000
0001E000
0003C000
00000000
00000000
0007E000
003FFE00
01FFFF80
03FFFFC0
07FFFFE0
0FFFFFF0
1FFF7FE0
3FF007C0
3FC00380
7F800100
7F000000
FF000000
FE000000
FE000000
FC000000
FC000000
FC000000
FC000000
FE000000
FE000000
FE000000
FF000000
7F000000
7F800100
3FC00380
3FF00FC0
1FFFFFE0
0FFFFFF0
07FFFFE0
03FFFFC0
00FFFF80
003FFE00
0003C000
ENDCHAR
STARTCHAR 0107
ENCODING 263
SWIDTH 675 0
DWIDTH 30 0
BBX 28 41 2 -1
BITMAP
00007800
0000F800
0000F000
0001E000
0001E000
0003C000
00000000
00000000
0007E000
003FFE00
01FFFF80
03FFFFC0
07FFFFE0
0FFFFFF0
1FFF7FE0
3FF007C0
3FC00380
7F800100
7F000000
FF000000
FE000000
FE000000
FC000000
FC000000
FC000000
FC000000
FE000000
FE000000
FE000000
FF000000
7F000000
7F800100
3FC00380
3FF00FC0
1FFFFFE0
0FFFFFF0
07FFFFE0
03FFFFC0
00FFFF80
003FFE00
0003C000
ENDCHAR
STARTCHAR 010A
ENCODING 266
SWIDTH 675 0
DWIDTH 30 0
BBX 28 42 2 0
BITMAP
0003E000
0007F000
000FF000
000FF000
0007F000
0007E000
0003C000
00000000
00000000
0007E000
003FFE00
01FFFF80
03FFFFC0
07FFFFE0
0FFFFFF0
1FFF7FE0
3FF007C0
3FC00380
7F800100
7F000000
FF000000
FE000000
FE000000
FC000000
FC000000
FC000000
FC000000
FE000000
FE000000
FE000000
FF000000
7F000000
7F800100
3FC00380
3FF00FC0
1FFFFFE0
0FFFFFF0
07FFFFE0
03FFFFC0
00FFFF80
003FFE00
0003C000
ENDCHAR
STARTCHAR 010B
ENCODING 267
SWIDTH 675 0
DWIDTH 30 0
BBX 28 42 2 0
BITMAP
0003E000
0007F000
000FF000
000FF000
0007F000
0007E000
0003C000
00000000
00000000
0007E000
003FFE00
01FFFF80
03FFFFC0
07FFFFE0
0FFFFFF0
1FFF7FE0
3FF007C0
3FC00380
7F800100
7F000000
FF000000
FE000000
FE000000
FC000000
FC000000
FC000000
FC000000
FE000000
FE000000
FE000000
FF000000
7F000000
7F800100
3FC00380
3FF00FC0
1FFFFFE0
0FFFFFF0
07FFFFE0
03FFFFC0
00FFFF80
003FFE00
0003C000
ENDCHAR
STARTCHAR 010C
ENCODING 268
SWIDTH 675 0
DWIDTH 30 0
BBX 28 41 2 -1
BITMAP
001FF800
001FF800
000FF000
0007E000
0003C000
00018000
00000000
00000000
0007E000
003FFE00
01FFFF80
03FFFFC0
07FFFFE0
0FFFFFF0
1FFF7FE0
3FF007C0
3FC00380
7F800100
7F000000
FF000000
FE000000
FE000000
FC000000
FC000000
FC000000
FC000000
FE000000
FE000000
FE000000
FF000000
7F000000
7F800100
3FC00380
3FF00FC0
1FFFFFE0
0FFFFFF0
07FFFFE0
03FFFFC0
00FFFF80
003FFE00
0003C000
ENDCHAR
STARTCHAR 010D
ENCODING 269
SWIDTH 675 0
DWIDTH 30 0
BBX 28 41 2 -1
BITMAP
001FF800
001FF800
000FF000
0007E000
0003C000
00018000
00000000
00000000
0007E000
003FFE00
01FFFF80
03FFFFC0
07FFFFE0
0FFFFFF0
1FFF7FE0
3FF007C0
3FC00380
7F800100
7F000000
FF000000
FE000000
FE000000
FC000000
FC000000
FC000000
FC000000
FE000000
FE000000
FE000000
FF000000
7F000000
7F800100
3FC00380
3FF00FC0
1FFFFFE0
0FFFFFF0
07FFFFE0
03FFFFC0
00FFFF80
003FFE00
0003C000
ENDCHAR
STARTCHAR 010E
ENCODING 270
SWIDTH 675 0
DWIDTH 30 0
BBX 26 40 3 0
BITMAP
0FFE0000
07FC0000
03FC0000
01F80000
00F00000
00600000
00000000
00000000
00000000
FFFE0000
FFFFC000
FFFFF000
FFFFF800
FFFFFC00
FFFFFE00
FC07FF00
FC01FF00
FC007F80
FC003F80
FC003F80
FC001FC0
FC001FC0
FC001FC0
FC001FC0
FC001FC0
FC001FC0
FC001FC0
FC001FC0
FC001FC0
FC003F80
FC007F80
FC00FF80
FC01FF00
FC0FFF00
FFFFFE00
FFFFFC00
FFFFF800
FFFFE000
FFFFC000
FFFC0000
ENDCHAR
STARTCHAR 010F
ENCODING 271
SWIDTH 675 0
DWIDTH 30 0
BBX 26 40 3 0
BITMAP
0FFE0000
07FC0000
03FC0000
01F80000
00F00000
00600000
00000000
00000000
00000000
FFFE0000
FFFFC000
FFFFF000
FFFFF800
FFFFFC00
FFFFFE00
FC07FF00
FC01FF00
FC007F80
FC003F80
FC003F80
FC001FC0
FC001FC0
FC001FC0
FC001FC0
FC001FC0
FC001FC0
FC001FC0
FC001FC0
FC001FC0
FC003F80
FC007F80
FC00FF80
FC01FF00
FC0FFF00
FFFFFE00
FFFFFC00
FFFFF800
FFFFE000
FFFFC000
FFFC0000
ENDCHAR
STARTCHAR 0110
ENCODING 272
SWIDTH 697 0
DWIDTH 31 0
BBX 29 31 1 0
BITMAP
1FFFC000
1FFFF800
1FFFFE00
1FFFFF00
1FFFFF80
1FFFFFC0
1F80FFE0
1F803FE0
1F800FF0
1F8007F0
1F8007F8
1F8003F8
FFFF03F8
FFFF03F8
FFFF03F8
FFFF01F8
FFFF03F8
FFFF03F8
1F8003F8
1F8003F8
1F8007F8
1F8007F0
1F800FF0
1F803FE0
1F81FFE0
1FFFFFC0
1FFFFF80
1FFFFF00
1FFFFE00
1FFFF800
1FFFC000
ENDCHAR
STARTCHAR 0111
ENCODING 273
SWIDTH 697 0
DWIDTH 31 0
BBX 29 31 1 0
BITMAP
1FFFC000
1FFFF800
1FFFFE00
1FFFFF00
1FFFFF80
1FFFFFC0
1F80FFE0
1F803FE0
1F800FF0
1F8007F0
1F8007F8
1F8003F8
FFFF03F8
FFFF03F8
FFFF03F8
FFFF01F8
FFFF03F8
FFFF03F8
1F8003F8
1F8003F8
1F8007F8
1F8007F0
1F800FF0
1F803FE0
1F81FFE0
1FFFFFC0
1FFFFF80
1FFFFF00
1FFFFE00
1FFFF800
1FFFC000
ENDCHAR
STARTCHAR 0112
ENCODING 274
SWIDTH 517 0
DWIDTH 23 0
BBX 22 39 1 0
BITMAP
1FFF00
1FFF00
1FFF00
1FFF00
1FFF00
000000
000000
000000
1FFF00
1FFF00
1FFF00
1FFF00
1FFF00
1FFF00
1FC000
1FC000
1FC000
1FC000
1FC000
1FC000
FFFFC0
FFFFC0
FFFFC0
FFFFC0
FFFFC0
FFFFC0
1FC000
1FC000
1FC000
1FC000
1FC000
1FC000
1FC000
1FFFFC
1FFFFC
1FFFFC
1FFFFC
1FFFFC
1FFFFC
ENDCHAR
STARTCHAR 0113
ENCODING 275
SWIDTH 517 0
DWIDTH 23 0
BBX 22 39 1 0
BITMAP
1FFF00
1FFF00
1FFF00
1FFF00
1FFF00
000000
000000
000000
1FFF00
1FFF00
1FFF00
1FFF00
1FFF00
1FFF00
1FC000
1FC000
1FC000
1FC000
1FC000
1FC000
FFFFC0
FFFFC0
FFFFC0
FFFFC0
FFFFC0
FFFFC0
1FC000
1FC000
1FC000
1FC000
1FC000
1FC000
1FC000
1FFFFC
1FFFFC
1FFFFC
1FFFFC
1FFFFC
1FFFFC
ENDCHAR
STARTCHAR 0116
ENCODING 278
SWIDTH 517 0
DWIDTH 23 0
BBX 22 41 1 1
BITMAP
01F000
03F800
03FC00
03FC00
03F800
01F800
00F000
000000
000000
000000
1FFF00
1FFF00
1FFF00
1FFF00
1FFF00
1FFF00
1FC000
1FC000
1FC000
1FC000
1FC000
1FC000
FFFFC0
FFFFC0
FFFFC0
FFFFC0
FFFFC0
FFFFC0
1FC000
1FC000
1FC000
1FC000
1FC000
1FC000
1FC000
1FFFFC
1FFFFC
1FFFFC
1FFFFC
1FFFFC
1FFFFC
ENDCHAR
STARTCHAR 0117
ENCODING 279
SWIDTH 517 0
DWIDTH 23 0
BBX 22 41 1 1
BITMAP
01F000
03F800
03FC00
03FC00
03F800
01F800
00F000
000000
000000
000000
1FFF00
1FFF00
1FFF00
1FFF00
1FFF00
1FFF00
1FC000
1FC000
1FC000
1FC000
1FC000
1FC000
FFFFC0
FFFFC0
FFFFC0
FFFFC0
FFFFC0
FFFFC0
1FC000
1FC000
1FC000
1FC000
1FC000
1FC000
1FC000
1FFFFC
1FFFFC
1FFFFC
1FFFFC
1FFFFC
1FFFFC
ENDCHAR
STARTCHAR 0118
ENCODING 280
SWIDTH 517 0
DWIDTH 23 0
BBX 24 40 1 -9
BITMAP
1FFF00
1FFF00
1FFF00
1FFF00
1FFF00
1FFF00
1FC000
1FC000
1FC000
1FC000
1FC000
1FC000
FFFFC0
FFFFC0
FFFFC0
FFFFC0
FFFFC0
FFFFC0
1FC000
1FC000
1FC000
1FC000
1FC000
1FC000
1FC000
1FFFFC
1FFFFC
1FFFFC
1FFFFC
1FFFFC
1FFFFC
0000F0
0001C0
000380
000380
000384
0003CE
0003FF
0001FE
0000FC
ENDCHAR
STARTCHAR 0119
ENCODING 281
SWIDTH 517 0
DWIDTH 23 0
BBX 24 40 1 -9
BITMAP
1FFF00
1FFF00
1FFF00
1FFF00
1FFF00
1FFF00
1FC000
1FC000
1FC000
1FC000
1FC000
1FC000
FFFFC0
FFFFC0
FFFFC0
FFFFC0
FFFFC0
FFFFC0
1FC000
1FC000
1FC000
1FC000
1FC000
1FC000
1FC000
1FFFFC
1FFFFC
1FFFFC
1FFFFC
1FFFFC
1FFFFC
0000F0
0001C0
000380
000380
000384
0003CE
0003FF
0001FE
0000FC
ENDCHAR
STARTCHAR 011A
ENCODING 282
SWIDTH 517 0
DWIDTH 23 0
BBX 22 40 1 0
BITMAP
0FFE00
07FC00
03F800
01F000
00F000
006000
004000
000000
000000
1FFF00
1FFF00
1FFF00
1FFF00
1FFF00
1FFF00
1FC000
1FC000
1FC000
1FC000
1FC000
1FC000
FFFFC0
FFFFC0
FFFFC0
FFFFC0
FFFFC0
FFFFC0
1FC000
1FC000
1FC000
1FC000
1FC000
1FC000
1FC000
1FFFFC
1FFFFC
1FFFFC
1FFFFC
1FFFFC
1FFFFC
ENDCHAR
STARTCHAR 011B
ENCODING 283
SWIDTH 517 0
DWIDTH 23 0
BBX 22 40 1 0
BITMAP
0FFE00
07FC00
03F800
01F000
00F000
006000
004000
000000
000000
1FFF00
1FFF00
1FFF00
1FFF00
1FFF00
1FFF00
1FC000
1FC000
1FC000
1FC000
1FC000
1FC000
FFFFC0
FFFFC0
FFFFC0
FFFFC0
FFFFC0
FFFFC0
1FC000
1FC000
1FC000
1FC000
1FC000
1FC000
1FC000
1FFFFC
1FFFFC
1FFFFC
1FFFFC
1FFFFC
1FFFFC
ENDCHAR
STARTCHAR 011E
ENCODING 286
SWIDTH 810 0
DWIDTH 36 0
BBX 34 40 2 -1
BITMAP
001FF80000
001FF80000
000FF00000
000FF00000
0007C00000
0000000000
0000000000
0007E00000
003FFE0000
00FFFF8000
03FFFFC000
07FFFFE000
0FFFFFF000
1FFF7FE000
3FF007C000
3FC0038000
7F80010000
7F00000000
FF00000000
FE00000000
FE00000000
FC01FFFFC0
FC01FFFFC0
FC01FFFFC0
FC01FFFFC0
FE01FFFFC0
FE01FFFFC0
FE00007F00
FF0000FE00
7F0000FE00
7F8001FE00
3FC003FC00
3FF00FFC00
1FFFFFF800
0FFFFFF000
07FFFFE000
03FFFFC000
00FFFF8000
003FFE0000
0001C00000
ENDCHAR
STARTCHAR 011F
ENCODING 287
SWIDTH 810 0
DWIDTH 36 0
BBX 34 40 2 -1
BITMAP
001FF80000
001FF80000
000FF00000
000FF00000
0007C00000
0000000000
0000000000
0007E00000
003FFE0000
00FFFF8000
03FFFFC000
07FFFFE000
0FFFFFF000
1FFF7FE000
3FF007C000
3FC0038000
7F80010000
7F00000000
FF00000000
FE00000000
FE00000000
FC01FFFFC0
FC01FFFFC0
FC01FFFFC0
FC01FFFFC0
FE01FFFFC0
FE01FFFFC0
FE00007F00
FF0000FE00
7F0000FE00
7F8001FE00
3FC003FC00
3FF00FFC00
1FFFFFF800
0FFFFFF000
07FFFFE000
03FFFFC000
00FFFF8000
003FFE0000
0001C00000
ENDCHAR
STARTCHAR 0120
ENCODING 288
SWIDTH 810 0
DWIDTH 36 0
BBX 34 42 2 0
BITMAP
0003E00000
0007F00000
000FF00000
000FF00000
000FF00000
0007E00000
0003C00000
0000000000
0000000000
0007E00000
003FFE0000
00FFFF8000
03FFFFC000
07FFFFE000
0FFFFFF000
1FFF7FE000
3FF007C000
3FC0038000
7F80010000
7F00000000
FF00000000
FE00000000
FE00000000
FC01FFFFC0
FC01FFFFC0
FC01FFFFC0
FC01FFFFC0
FE01FFFFC0
FE01FFFFC0
FE00007F00
FF0000FE00
7F0000FE00
7F8001FE00
3FC003FC00
3FF00FFC00
1FFFFFF800
0FFFFFF000
07FFFFE000
03FFFFC000
00FFFF8000
003FFE0000
0001C00000
ENDCHAR
STARTCHAR 0121
ENCODING 289
SWIDTH 810 0
DWIDTH 36 0
BBX 34 42 2 0
BITMAP
0003E00000
0007F00000
000FF00000
000FF00000
000FF00000
0007E00000
0003C00000
0000000000
0000000000
0007E00000
003FFE0000
00FFFF8000
03FFFFC000
07FFFFE000
0FFFFFF000
1FFF7FE000
3FF007C000
3FC0038000
7F80010000
7F00000000
FF00000000
FE00000000
FE00000000
FC01FFFFC0
FC01FFFFC0
FC01FFFFC0
FC01FFFFC0
FE01FFFFC0
FE01FFFFC0
FE00007F00
FF0000FE00
7F0000FE00
7F8001FE00
3FC003FC00
3FF00FFC00
1FFFFFF800
0FFFFFF000
07FFFFE000
03FFFFC000
00FFFF8000
003FFE0000
0001C00000
ENDCHAR
STARTCHAR 0124
ENCODING 292
SWIDTH 585 0
DWIDTH 26 0
BBX 23 40 1 1
BITMAP
000C00
001E00
003F00
007F00
00FF80
00FFC0
000000
000000
000000
1FC0FE
1FC0FE
1FC0FE
1FC0FE
1FC0FE
1FC0FE
1FC0FE
1FC0FE
1FC0FE
1FC0FE
1FC0FE
1FC0FE
1FC0FE
1FC0FE
FFFFFE
FFFFFE
FFFFFE
FFFFFE
FFFFFE
FFFFFE
1FC0FE
1FC0FE
1FC0FE
1FC0FE
1FC0FE
1FC0FE
1FC0FE
1FC0FE
1FC0FE
1FC0FE
1FC0FE
ENDCHAR
STARTCHAR 0125
ENCODING 293
SWIDTH 585 0
DWIDTH 26 0
BBX 23 40 1 1
BITMAP
000C00
001E00
003F00
007F00
00FF80
00FFC0
000000
000000
000000
1FC0FE
1FC0FE
1FC0FE
1FC0FE
1FC0FE
1FC0FE
1FC0FE
1FC0FE
1FC0FE
1FC0FE
1FC0FE
1FC0FE
1FC0FE
1FC0FE
FFFFFE
FFFFFE
FFFFFE
FFFFFE
FFFFFE
FFFFFE
1FC0FE
1FC0FE
1FC0FE
1FC0FE
1FC0FE
1FC0FE
1FC0FE
1FC0FE
1FC0FE
1FC0FE
1FC0FE
ENDCHAR
STARTCHAR 0128
ENCODING 296
SWIDTH 247 0
DWIDTH 11 0
BBX 11 28 0 0
BITMAP
7800
FFE0
FFE0
FFE0
07E0
0000
0000
0000
0000
1F80
1F80
1F80
1F80
1F80
1F80
1F80
1F80
1F80
1F80
1F80
1F80
1F80
1F80
1F80
1F80
1F80
1F80
1F80
ENDCHAR
STARTCHAR 0129
ENCODING 297
SWIDTH 247 0
DWIDTH 11 0
BBX 11 28 0 0
BITMAP
7800
FFE0
FFE0
FFE0
07E0
0000
0000
0000
0000
1F80
1F80
1F80
1F80
1F80
1F80
1F80
1F80
1F80
1F80
1F80
1F80
1F80
1F80
1F80
1F80
1F80
1F80
1F80
ENDCHAR
STARTCHAR 012A
ENCODING 298
SWIDTH 247 0
DWIDTH 11 0
BBX 12 27 0 0
BITMAP
FFF0
FFF0
FFF0
FFF0
FFF0
0000
0000
0000
1F80
1F80
1F80
1F80
1F80
1F80
1F80
1F80
1F80
1F80
1F80
1F80
1F80
1F80
1F80
1F80
1F80
1F80
1F80
ENDCHAR
STARTCHAR 012B
ENCODING 299
SWIDTH 247 0
DWIDTH 11 0
BBX 12 27 0 0
BITMAP
FFF0
FFF0
FFF0
FFF0
FFF0
0000
0000
0000
1F80
1F80
1F80
1F80
1F80
1F80
1F80
1F80
1F80
1F80
1F80
1F80
1F80
1F80
1F80
1F80
1F80
1F80
1F80
ENDCHAR
STARTCHAR 012E
ENCODING 302
SWIDTH 247 0
DWIDTH 11 0
BBX 13 45 -1 -9
BITMAP
0200
0200
0300
0700
0780
FFF8
7FF0
3FE0
1FC0
1FC0
1FC0
18E0
3020
0000
0000
0000
0000
1FC0
1FC0
1FC0
1FC0
1FC0
1FC0
1FC0
1FC0
1FC0
1FC0
1FC0
1FC0
1FC0
1FC0
1FC0
1FC0
1FC0
1FC0
1FC0
0F00
1E00
3C00
3800
3840
3CE0
3FF0
1FE0
0FC0
ENDCHAR
STARTCHAR 012F
ENCODING 303
SWIDTH 247 0
DWIDTH 11 0
BBX 13 45 -1 -9
BITMAP
0200
0200
0300
0700
0780
FFF8
7FF0
3FE0
1FC0
1FC0
1FC0
18E0
3020
0000
0000
0000
0000
1FC0
1FC0
1FC0
1FC0
1FC0
1FC0
1FC0
1FC0
1FC0
1FC0
1FC0
1FC0
1FC0
1FC0
1FC0
1FC0
1FC0
1FC0
1FC0
0F00
1E00
3C00
3800
3840
3CE0
3FF0
1FE0
0FC0
ENDCHAR
STARTCHAR 0130
ENCODING 304
SWIDTH 247 0
DWIDTH 11 0
BBX 8 29 2 1
BITMAP
7E
7E
FF
FF
FF
7E
3C
00
00
00
7E
7E
7E
7E
7E
7E
7E
7E
7E
7E
7E
7E
7E
7E
7E
7E
7E
7E
7E
ENDCHAR
STARTCHAR 0139
ENCODING 313
SWIDTH 472 0
DWIDTH 21 0
BBX 17 40 3 0
BITMAP
1F0000
1E0000
3E0000
3C0000
380000
780000
000000
000000
000000
FC0000
FC0000
FC0000
FC0000
FC0000
FC0000
FC0000
FC0000
FC0000
FC0000
FC0000
FC0000
FC0000
FC0000
FC0000
FC0000
FC0000
FC0000
FC0000
FC0000
FC0000
FC0000
FC0000
FC0000
FC0000
FFFF80
FFFF80
FFFF80
FFFF80
FFFF80
FFFF80
ENDCHAR
STARTCHAR 013A
ENCODING 314
SWIDTH 472 0
DWIDTH 21 0
BBX 17 40 3 0
BITMAP
1F0000
1E0000
3E0000
3C0000
380000
780000
000000
000000
000000
FC0000
FC0000
FC0000
FC0000
FC0000
FC0000
FC0000
FC0000
FC0000
FC0000
FC0000
FC0000
FC0000
FC0000
FC0000
FC0000
FC0000
FC0000
FC0000
FC0000
FC0000
FC0000
FC0000
FC0000
FC0000
FFFF80
FFFF80
FFFF80
FFFF80
FFFF80
FFFF80
ENDCHAR
STARTCHAR 013D
ENCODING 317
SWIDTH 472 0
DWIDTH 21 0
BBX 20 40 0 0
BITMAP
FFE000
7FC000
3FC000
1F8000
0F0000
060000
000000
000000
000000
1F8000
1F8000
1F8000
1F8000
1F8000
1F8000
1F8000
1F8000
1F8000
1F8000
1F8000
1F8000
1F8000
1F8000
1F8000
1F8000
1F8000
1F8000
1F8000
1F8000
1F8000
1F8000
1F8000
1F8000
1F8000
1FFFF0
1FFFF0
1FFFF0
1FFFF0
1FFFF0
1FFFF0
ENDCHAR
STARTCHAR 013E
ENCODING 318
SWIDTH 472 0
DWIDTH 21 0
BBX 20 40 0 0
BITMAP
FFE000
7FC000
3FC000
1F8000
0F0000
060000
000000
000000
000000
1F8000
1F8000
1F8000
1F8000
1F8000
1F8000
1F8000
1F8000
1F8000
1F8000
1F8000
1F8000
1F8000
1F8000
1F8000
1F8000
1F8000
1F8000
1F8000
1F8000
1F8000
1F8000
1F8000
1F8000
1F8000
1FFFF0
1FFFF0
1FFFF0
1FFFF0
1FFFF0
1FFFF0
ENDCHAR
STARTCHAR 0141
ENCODING 321
SWIDTH 517 0
DWIDTH 23 0
BBX 21 31 1 0
BITMAP
0FE000
0FE000
0FE000
0FE000
0FE000
0FE000
0FE000
0FE000
0FE000
0FE300
0FEF80
0FFF80
0FFF00
0FFC00
0FF000
1FE000
7FE000
FFE000
FFE000
6FE000
0FE000
0FE000
0FE000
0FE000
0FE000
0FFFF8
0FFFF8
0FFFF8
0FFFF8
0FFFF8
0FFFF8
ENDCHAR
STARTCHAR 0142
ENCODING 322
SWIDTH 517 0
DWIDTH 23 0
BBX 21 31 1 0
BITMAP
0FE000
0FE000
0FE000
0FE000
0FE000
0FE000
0FE000
0FE000
0FE000
0FE300
0FEF80
0FFF80
0FFF00
0FFC00
0FF000
1FE000
7FE000
FFE000
FFE000
6FE000
0FE000
0FE000
0FE000
0FE000
0FE000
0FFFF8
0FFFF8
0FFFF8
0FFFF8
0FFFF8
0FFFF8
ENDCHAR
STARTCHAR 0143
ENCODING 323
SWIDTH 585 0
DWIDTH 26 0
BBX 22 40 1 0
BITMAP
000780
000F80
000F00
001E00
001E00
003C00
000000
000000
100000
1C00FC
3E00FC
7F00FC
FFC0FC
FFE0FC
7FF0FC
3FF8FC
3FFEFC
3FFFFC
3FFFFC
3FFFFC
3FFFFC
3F9FFC
3F8FFC
3F87FC
3F83FC
3F80FC
3F80FC
3F80FC
3F80FC
3F80FC
3F80FC
3F80FC
3F80FC
3F80FC
3F80FC
3F80FC
3F80FC
3F80FC
3F80FC
3F80FC
ENDCHAR
STARTCHAR 0144
ENCODING 324
SWIDTH 585 0
DWIDTH 26 0
BBX 22 40 1 0
BITMAP
000780
000F80
000F00
001E00
001E00
003C00
000000
000000
100000
1C00FC
3E00FC
7F00FC
FFC0FC
FFE0FC
7FF0FC
3FF8FC
3FFEFC
3FFFFC
3FFFFC
3FFFFC
3FFFFC
3F9FFC
3F8FFC
3F87FC
3F83FC
3F80FC
3F80FC
3F80FC
3F80FC
3F80FC
3F80FC
3F80FC
3F80FC
3F80FC
3F80FC
3F80FC
3F80FC
3F80FC
3F80FC
3F80FC
ENDCHAR
STARTCHAR 0147
ENCODING 327
SWIDTH 585 0
DWIDTH 26 0
BBX 22 40 1 0
BITMAP
01FF80
00FF80
00FF00
007E00
003C00
001800
000000
000000
100000
1C00FC
3E00FC
7F00FC
FFC0FC
FFE0FC
7FF0FC
3FF8FC
3FFEFC
3FFFFC
3FFFFC
3FFFFC
3FFFFC
3F9FFC
3F8FFC
3F87FC
3F83FC
3F80FC
3F80FC
3F80FC
3F80FC
3F80FC
3F80FC
3F80FC
3F80FC
3F80FC
3F80FC
3F80FC
3F80FC
3F80FC
3F80FC
3F80FC
ENDCHAR
STARTCHAR 0148
ENCODING 328
SWIDTH 585 0
DWIDTH 26 0
BBX 22 40 1 0
BITMAP
01FF80
00FF80
00FF00
007E00
003C00
001800
000000
000000
100000
1C00FC
3E00FC
7F00FC
FFC0FC
FFE0FC
7FF0FC
3FF8FC
3FFEFC
3FFFFC
3FFFFC
3FFFFC
3FFFFC
3F9FFC
3F8FFC
3F87FC
3F83FC
3F80FC
3F80FC
3F80FC
3F80FC
3F80FC
3F80FC
3F80FC
3F80FC
3F80FC
3F80FC
3F80FC
3F80FC
3F80FC
3F80FC
3F80FC
ENDCHAR
STARTCHAR 014C
ENCODING 332
SWIDTH 810 0
DWIDTH 36 0
BBX 33 40 2 -1
BITMAP
003FFE0000
003FFE0000
003FFE0000
003FFE0000
003FFE0000
0000000000
0000000000
0007E00000
003FFE0000
00FFFF8000
03FFFFE000
07FFFFF000
0FFFFFF800
1FFF7FFC00
3FF007FE00
3FC001FE00
7F8000FF00
7F00007F00
FF00007F00
FE00003F80
FE00003F80
FC00003F80
FC00003F80
FC00003F80
FC00003F80
FE00003F80
FE00003F80
FE00003F80
FF00007F00
7F00007F00
7F8000FF00
3FC003FE00
3FF007FC00
1FFFFFFC00
0FFFFFF800
07FFFFF000
03FFFFE000
00FFFF8000
003FFE0000
0001C00000
ENDCHAR
STARTCHAR 014D
ENCODING 333
SWIDTH 810 0
DWIDTH 36 0
BBX 33 40 2 -1
BITMAP
003FFE0000
003FFE0000
003FFE0000
003FFE0000
003FFE0000
0000000000
0000000000
0007E00000
003FFE0000
00FFFF8000
03FFFFE000
07FFFFF000
0FFFFFF800
1FFF7FFC00
3FF007FE00
3FC001FE00
7F8000FF00
7F00007F00
FF00007F00
FE00003F80
FE00003F80
FC00003F80
FC00003F80
FC00003F80
FC00003F80
FE00003F80
FE00003F80
FE00003F80
FF00007F00
7F00007F00
7F8000FF00
3FC003FE00
3FF007FC00
1FFFFFFC00
0FFFFFF800
07FFFFF000
03FFFFE000
00FFFF8000
003FFE0000
0001C00000
ENDCHAR
STARTCHAR 0150
ENCODING 336
SWIDTH 810 0
DWIDTH 36 0
BBX 33 41 2 -1
BITMAP
00078F8000
000F8F0000
000F1F0000
001E1E0000
001E3C0000
003C3C0000
0000000000
0000000000
0007E00000
003FFE0000
00FFFF8000
03FFFFE000
07FFFFF000
0FFFFFF800
1FFF7FFC00
3FF007FE00
3FC001FE00
7F8000FF00
7F00007F00
FF00007F00
FE00003F80
FE00003F80
FC00003F80
FC00003F80
FC00003F80
FC00003F80
FE00003F80
FE00003F80
FE00003F80
FF00007F00
7F00007F00
7F8000FF00
3FC003FE00
3FF007FC00
1FFFFFFC00
0FFFFFF800
07FFFFF000
03FFFFE000
00FFFF8000
003FFE0000
0001C00000
ENDCHAR
STARTCHAR 0151
ENCODING 337
SWIDTH 810 0
DWIDTH 36 0
BBX 33 41 2 -1
BITMAP
00078F8000
000F8F0000
000F1F0000
001E1E0000
001E3C0000
003C3C0000
0000000000
0000000000
0007E00000
003FFE0000
00FFFF8000
03FFFFE000
07FFFFF000
0FFFFFF800
1FFF7FFC00
3FF007FE00
3FC001FE00
7F8000FF00
7F00007F00
FF00007F00
FE00003F80
FE00003F80
FC00003F80
FC00003F80
FC00003F80
FC00003F80
FE00003F80
FE00003F80
FE00003F80
FF00007F00
7F00007F00
7F8000FF00
3FC003FE00
3FF007FC00
1FFFFFFC00
0FFFFFF800
07FFFFF000
03FFFFE000
00FFFF8000
003FFE0000
0001C00000
ENDCHAR
STARTCHAR 0154
ENCODING 340
SWIDTH 607 0
DWIDTH 27 0
BBX 25 40 1 0
BITMAP
0007C000
00078000
000F8000
000F0000
000E0000
001E0000
00000000
00000000
00000000
1FFFE000
1FFFF800
1FFFFC00
1FFFFE00
1FFFFF00
1FFFFF00
1FC07F80
1FC03F80
1FC01F80
1FC01F80
1FC01F80
1FC03F80
1FC07F80
FFFFFF00
FFFFFF00
FFFFFE00
FFFFFC00
FFFFFC00
FFFFFC00
1FC3FE00
1FC0FE00
1FC07F00
1FC07F00
1FC07F00
1FC07F00
1FC07F00
1FC07F00
1FC07F00
1FC07F00
1FC07F00
1FC07F00
ENDCHAR
STARTCHAR 0155
ENCODING 341
SWIDTH 607 0
DWIDTH 27 0
BBX 25 40 1 0
BITMAP
0007C000
00078000
000F8000
000F0000
000E0000
001E0000
00000000
00000000
00000000
1FFFE000
1FFFF800
1FFFFC00
1FFFFE00
1FFFFF00
1FFFFF00
1FC07F80
1FC03F80
1FC01F80
1FC01F80
1FC01F80
1FC03F80
1FC07F80
FFFFFF00
FFFFFF00
FFFFFE00
FFFFFC00
FFFFFC00
FFFFFC00
1FC3FE00
1FC0FE00
1FC07F00
1FC07F00
1FC07F00
1FC07F00
1FC07F00
1FC07F00
1FC07F00
1FC07F00
1FC07F00
1FC07F00
ENDCHAR
STARTCHAR 0158
ENCODING 344
SWIDTH 607 0
DWIDTH 27 0
BBX 25 40 1 0
BITMAP
01FFC000
00FF8000
007F8000
003F0000
001E0000
000C0000
00000000
00000000
00000000
1FFFE000
1FFFF800
1FFFFC00
1FFFFE00
1FFFFF00
1FFFFF00
1FC07F80
1FC03F80
1FC01F80
1FC01F80
1FC01F80
1FC03F80
1FC07F80
FFFFFF00
FFFFFF00
FFFFFE00
FFFFFC00
FFFFFC00
FFFFFC00
1FC3FE00
1FC0FE00
1FC07F00
1FC07F00
1FC07F00
1FC07F00
1FC07F00
1FC07F00
1FC07F00
1FC07F00
1FC07F00
1FC07F00
ENDCHAR
STARTCHAR 0159
ENCODING 345
SWIDTH 607 0
DWIDTH 27 0
BBX 25 40 1 0
BITMAP
01FFC000
00FF8000
007F8000
003F0000
001E0000
000C0000
00000000
00000000
00000000
1FFFE000
1FFFF800
1FFFFC00
1FFFFE00
1FFFFF00
1FFFFF00
1FC07F80
1FC03F80
1FC01F80
1FC01F80
1FC01F80
1FC03F80
1FC07F80
FFFFFF00
FFFFFF00
FFFFFE00
FFFFFC00
FFFFFC00
FFFFFC00
1FC3FE00
1FC0FE00
1FC07F00
1FC07F00
1FC07F00
1FC07F00
1FC07F00
1FC07F00
1FC07F00
1FC07F00
1FC07F00
1FC07F00
ENDCHAR
STARTCHAR 015A
ENCODING 346
SWIDTH 517 0
DWIDTH 23 0
BBX 21 41 1 -1
BITMAP
001F00
001E00
003C00
003C00
007800
007000
000000
000000
00F800
07FF00
0FFF80
1FFFC0
3FFFE0
3FFFE0
3FFFF0
7F87F0
7F03C0
7F0200
3F8000
3FC000
3FE000
1FF800
0FFE00
07FF00
03FF80
01FFC0
007FE0
001FF0
000FF0
0007F8
0003F8
0E03F8
FE03F8
7F07F8
7FFFF0
3FFFF0
3FFFE0
1FFFE0
0FFFC0
03FF00
007800
ENDCHAR
STARTCHAR 015B
ENCODING 347
SWIDTH 517 0
DWIDTH 23 0
BBX 21 41 1 -1
BITMAP
001F00
001E00
003C00
003C00
007800
007000
000000
000000
00F800
07FF00
0FFF80
1FFFC0
3FFFE0
3FFFE0
3FFFF0
7F87F0
7F03C0
7F0200
3F8000
3FC000
3FE000
1FF800
0FFE00
07FF00
03FF80
01FFC0
007FE0
001FF0
000FF0
0007F8
0003F8
0E03F8
FE03F8
7F07F8
7FFFF0
3FFFF0
3FFFE0
1FFFE0
0FFFC0
03FF00
007800
ENDCHAR
STARTCHAR 015E
ENCODING 350
SWIDTH 517 0
DWIDTH 23 0
BBX 21 42 1 -10
BITMAP
00F800
07FF00
0FFF80
1FFFC0
3FFFE0
3FFFE0
3FFFF0
7F87F0
7F03C0
7F0200
3F8000
3FC000
3FE000
1FF800
0FFE00
07FF00
03FF80
01FFC0
007FE0
001FF0
000FF0
0007F8
0003F8
0E03F8
FE03F8
7F07F8
7FFFF0
3FFFF0
3FFFE0
1FFFE0
0FFFC0
03FF00
007800
007000
007800
003C00
001C00
021E00
07FC00
0FFC00
03F800
01F000
ENDCHAR
STARTCHAR 015F
ENCODING 351
SWIDTH 517 0
DWIDTH 23 0
BBX 21 42 1 -10
BITMAP
00F800
07FF00
0FFF80
1FFFC0
3FFFE0
3FFFE0
3FFFF0
7F87F0
7F03C0
7F0200
3F8000
3FC000
3FE000
1FF800
0FFE00
07FF00
03FF80
01FFC0
007FE0
001FF0
000FF0
0007F8
0003F8
0E03F8
FE03F8
7F07F8
7FFFF0
3FFFF0
3FFFE0
1FFFE0
0FFFC0
03FF00
007800
007000
007800
003C00
001C00
021E00
07FC00
0FFC00
03F800
01F000
ENDCHAR
STARTCHAR 0160
ENCODING 352
SWIDTH 517 0
DWIDTH 23 0
BBX 21 41 1 -1
BITMAP
07FF00
03FE00
01FC00
00F800
007000
007000
002000
000000
00F800
07FF00
0FFF80
1FFFC0
3FFFE0
3FFFE0
3FFFF0
7F87F0
7F03C0
7F0200
3F8000
3FC000
3FE000
1FF800
0FFE00
07FF00
03FF80
01FFC0
007FE0
001FF0
000FF0
0007F8
0003F8
0E03F8
FE03F8
7F07F8
7FFFF0
3FFFF0
3FFFE0
1FFFE0
0FFFC0
03FF00
007800
ENDCHAR
STARTCHAR 0161
ENCODING 353
SWIDTH 517 0
DWIDTH 23 0
BBX 21 41 1 -1
BITMAP
07FF00
03FE00
01FC00
00F800
007000
007000
002000
000000
00F800
07FF00
0FFF80
1FFFC0
3FFFE0
3FFFE0
3FFFF0
7F87F0
7F03C0
7F0200
3F8000
3FC000
3FE000
1FF800
0FFE00
07FF00
03FF80
01FFC0
007FE0
001FF0
000FF0
0007F8
0003F8
0E03F8
FE03F8
7F07F8
7FFFF0
3FFFF0
3FFFE0
1FFFE0
0FFFC0
03FF00
007800
ENDCHAR
STARTCHAR 0162
ENCODING 354
SWIDTH 517 0
DWIDTH 23 0
BBX 21 41 1 -10
BITMAP
FFFFF8
FFFFF8
FFFFF8
FFFFF8
FFFFF8
FFFFF8
01FC00
01FC00
01FC00
01FC00
01FC00
01FC00
01FC00
01FC00
01FC00
01FC00
01FC00
01FC00
01FC00
01FC00
01FC00
01FC00
01FC00
01FC00
01FC00
01FC00
01FC00
01FC00
01FC00
01FC00
01FC00
007000
007000
007800
007C00
001C00
021C00
07FC00
0FFC00
07F800
01F000
ENDCHAR
STARTCHAR 0163
ENCODING 355
SWIDTH 517 0
DWIDTH 23 0
BBX 21 41 1 -10
BITMAP
FFFFF8
FFFFF8
FFFFF8
FFFFF8
FFFFF8
FFFFF8
01FC00
01FC00
01FC00
01FC00
01FC00
01FC00
01FC00
01FC00
01FC00
01FC00
01FC00
01FC00
01FC00
01FC00
01FC00
01FC00
01FC00
01FC00
01FC00
01FC00
01FC00
01FC00
01FC00
01FC00
01FC00
007000
007000
007800
007C00
001C00
021C00
07FC00
0FFC00
07F800
01F000
ENDCHAR
STARTCHAR 0164
ENCODING 356
SWIDTH 517 0
DWIDTH 23 0
BBX 21 40 1 0
BITMAP
07FF00
03FE00
01FC00
00FC00
007800
003000
000000
000000
000000
FFFFF8
FFFFF8
FFFFF8
FFFFF8
FFFFF8
FFFFF8
01FC00
01FC00
01FC00
01FC00
01FC00
01FC00
01FC00
01FC00
01FC00
01FC00
01FC00
01FC00
01FC00
01FC00
01FC00
01FC00
01FC00
01FC00
01FC00
01FC00
01FC00
01FC00
01FC00
01FC00
01FC00
ENDCHAR
STARTCHAR 0165
ENCODING 357
SWIDTH 517 0
DWIDTH 23 0
BBX 21 40 1 0
BITMAP
07FF00
03FE00
01FC00
00FC00
007800
003000
000000
000000
000000
FFFFF8
FFFFF8
FFFFF8
FFFFF8
FFFFF8
FFFFF8
01FC00
01FC00
01FC00
01FC00
01FC00
01FC00
01FC00
01FC00
01FC00
01FC00
01FC00
01FC00
01FC00
01FC00
01FC00
01FC00
01FC00
01FC00
01FC00
01FC00
01FC00
01FC00
01FC00
01FC00
01FC00
ENDCHAR
STARTCHAR 0168
ENCODING 360
SWIDTH 540 0
DWIDTH 24 0
BBX 20 41 2 -1
BITMAP
078000
0FFE00
0FFE00
0FFE00
087E00
000000
000000
000000
000000
FE03F0
FE03F0
FE03F0
FE03F0
FE03F0
FE03F0
FE03F0
FE03F0
FE03F0
FE03F0
FE03F0
FE03F0
FE03F0
FE03F0
FE03F0
FE03F0
FE03F0
FE03F0
FE03F0
FE03F0
FE03F0
FE07F0
FE07F0
FE07F0
7F0FF0
7FFFE0
7FFFE0
3FFFC0
1FFFC0
0FFF80
07FE00
00F000
ENDCHAR
STARTCHAR 0169
ENCODING 361
SWIDTH 540 0
DWIDTH 24 0
BBX 20 41 2 -1
BITMAP
078000
0FFE00
0FFE00
0FFE00
087E00
000000
000000
000000
000000
FE03F0
FE03F0
FE03F0
FE03F0
FE03F0
FE03F0
FE03F0
FE03F0
FE03F0
FE03F0
FE03F0
FE03F0
FE03F0
FE03F0
FE03F0
FE03F0
FE03F0
FE03F0
FE03F0
FE03F0
FE03F0
FE07F0
FE07F0
FE07F0
7F0FF0
7FFFE0
7FFFE0
3FFFC0
1FFFC0
0FFF80
07FE00
00F000
ENDCHAR
STARTCHAR 016A
ENCODING 362
SWIDTH 540 0
DWIDTH 24 0
BBX 20 40 2 -1
BITMAP
0FFF00
0FFF00
0FFF00
0FFF00
0FFF00
000000
000000
000000
FE03F0
FE03F0
FE03F0
FE03F0
FE03F0
FE03F0
FE03F0
FE03F0
FE03F0
FE03F0
FE03F0
FE03F0
FE03F0
FE03F0
FE03F0
FE03F0
FE03F0
FE03F0
FE03F0
FE03F0
FE03F0
FE07F0
FE07F0
FE07F0
7F0FF0
7FFFE0
7FFFE0
3FFFC0
1FFFC0
0FFF80
07FE00
00F000
ENDCHAR
STARTCHAR 016B
ENCODING 363
SWIDTH 540 0
DWIDTH 24 0
BBX 20 40 2 -1
BITMAP
0FFF00
0FFF00
0FFF00
0FFF00
0FFF00
000000
000000
000000
FE03F0
FE03F0
FE03F0
FE03F0
FE03F0
FE03F0
FE03F0
FE03F0
FE03F0
FE03F0
FE03F0
FE03F0
FE03F0
FE03F0
FE03F0
FE03F0
FE03F0
FE03F0
FE03F0
FE03F0
FE03F0
FE07F0
FE07F0
FE07F0
7F0FF0
7FFFE0
7FFFE0
3FFFC0
1FFFC0
0FFF80
07FE00
00F000
ENDCHAR
STARTCHAR 016E
ENCODING 366
SWIDTH 540 0
DWIDTH 24 0
BBX 20 44 2 -1
BITMAP
007000
01F800
03FC00
039E00
070E00
070E00
039C00
03FC00
01F800
000000
000000
000000
FE03F0
FE03F0
FE03F0
FE03F0
FE03F0
FE03F0
FE03F0
FE03F0
FE03F0
FE03F0
FE03F0
FE03F0
FE03F0
FE03F0
FE03F0
FE03F0
FE03F0
FE03F0
FE03F0
FE03F0
FE03F0
FE07F0
FE07F0
FE07F0
7F0FF0
7FFFE0
7FFFE0
3FFFC0
1FFFC0
0FFF80
07FE00
00F000
ENDCHAR
STARTCHAR 016F
ENCODING 367
SWIDTH 540 0
DWIDTH 24 0
BBX 20 44 2 -1
BITMAP
007000
01F800
03FC00
039E00
070E00
070E00
039C00
03FC00
01F800
000000
000000
000000
FE03F0
FE03F0
FE03F0
FE03F0
FE03F0
FE03F0
FE03F0
FE03F0
FE03F0
FE03F0
FE03F0
FE03F0
FE03F0
FE03F0
FE03F0
FE03F0
FE03F0
FE03F0
FE03F0
FE03F0
FE03F0
FE07F0
FE07F0
FE07F0
7F0FF0
7FFFE0
7FFFE0
3FFFC0
1FFFC0
0FFF80
07FE00
00F000
ENDCHAR
STARTCHAR 0170
ENCODING 368
SWIDTH 540 0
DWIDTH 24 0
BBX 20 41 2 -1
BITMAP
03E3E0
03C7C0
07C780
078F80
0F0F00
0F0E00
000000
000000
000000
FE03F0
FE03F0
FE03F0
FE03F0
FE03F0
FE03F0
FE03F0
FE03F0
FE03F0
FE03F0
FE03F0
FE03F0
FE03F0
FE03F0
FE03F0
FE03F0
FE03F0
FE03F0
FE03F0
FE03F0
FE03F0
FE07F0
FE07F0
FE07F0
7F0FF0
7FFFE0
7FFFE0
3FFFC0
1FFFC0
0FFF80
07FE00
00F000
ENDCHAR
STARTCHAR 0171
ENCODING 369
SWIDTH 540 0
DWIDTH 24 0
BBX 20 41 2 -1
BITMAP
03E3E0
03C7C0
07C780
078F80
0F0F00
0F0E00
000000
000000
000000
FE03F0
FE03F0
FE03F0
FE03F0
FE03F0
FE03F0
FE03F0
FE03F0
FE03F0
FE03F0
FE03F0
FE03F0
FE03F0
FE03F0
FE03F0
FE03F0
FE03F0
FE03F0
FE03F0
FE03F0
FE03F0
FE07F0
FE07F0
FE07F0
7F0FF0
7FFFE0
7FFFE0
3FFFC0
1FFFC0
0FFF80
07FE00
00F000
ENDCHAR
STARTCHAR 0172
ENCODING 370
SWIDTH 540 0
DWIDTH 24 0
BBX 20 40 2 -9
BITMAP
FE03F0
FE03F0
FE03F0
FE03F0
FE03F0
FE03F0
FE03F0
FE03F0
FE03F0
FE03F0
FE03F0
FE03F0
FE03F0
FE03F0
FE03F0
FE03F0
FE03F0
FE03F0
FE03F0
FE03F0
FE03F0
FE07F0
FE07F0
FE07F0
7F0FF0
7FFFE0
7FFFE0
3FFFC0
1FFFC0
0FFF00
07FE00
00F000
01C000
03C000
038000
038400
03EE00
03FF00
01FE00
007800
ENDCHAR
STARTCHAR 0173
ENCODING 371
SWIDTH 540 0
DWIDTH 24 0
BBX 20 40 2 -9
BITMAP
FE03F0
FE03F0
FE03F0
FE03F0
FE03F0
FE03F0
FE03F0
FE03F0
FE03F0
FE03F0
FE03F0
FE03F0
FE03F0
FE03F0
FE03F0
FE03F0
FE03F0
FE03F0
FE03F0
FE03F0
FE03F0
FE07F0
FE07F0
FE07F0
7F0FF0
7FFFE0
7FFFE0
3FFFC0
1FFFC0
0FFF00
07FE00
00F000
01C000
03C000
038000
038400
03EE00
03FF00
01FE00
007800
ENDCHAR
STARTCHAR 0176
ENCODING 374
SWIDTH 517 0
DWIDTH 23 0
BBX 20 40 2 1
BITMAP
006000
00F000
01F800
03F800
07FC00
07FE00
000000
000000
000000
FE07F0
FE07F0
FE07F0
FE07F0
FE07F0
FE07F0
FE07F0
FE07F0
FE07F0
FE07F0
FE07F0
FE07F0
FE07F0
FE07F0
FE07F0
FE07F0
FE0FF0
FF1FE0
7FFFE0
7FFFC0
3FFFC0
1FFF80
0FFE00
03F800
01F800
01F800
01F800
01F800
01F800
01F800
01F800
ENDCHAR
STARTCHAR 0177
ENCODING 375
SWIDTH 517 0
DWIDTH 23 0
BBX 20 40 2 1
BITMAP
006000
00F000
01F800
03F800
07FC00
07FE00
000000
000000
000000
FE07F0
FE07F0
FE07F0
FE07F0
FE07F0
FE07F0
FE07F0
FE07F0
FE07F0
FE07F0
FE07F0
FE07F0
FE07F0
FE07F0
FE07F0
FE07F0
FE0FF0
FF1FE0
7FFFE0
7FFFC0
3FFFC0
1FFF80
0FFE00
03F800
01F800
01F800
01F800
01F800
01F800
01F800
01F800
ENDCHAR
STARTCHAR 0178
ENCODING 376
SWIDTH 517 0
DWIDTH 23 0
BBX 20 41 2 0
BITMAP
1C0380
3E07C0
7F0FE0
7F0FE0
7F0FE0
7F0FE0
3F07E0
1C0380
000000
000000
FE07F0
FE07F0
FE07F0
FE07F0
FE07F0
FE07F0
FE07F0
FE07F0
FE07F0
FE07F0
FE07F0
FE07F0
FE07F0
FE07F0
FE07F0
FE07F0
FE0FF0
FF1FE0
7FFFE0
7FFFC0
3FFFC0
1FFF80
0FFE00
03F800
01F800
01F800
01F800
01F800
01F800
01F800
01F800
ENDCHAR
STARTCHAR 0179
ENCODING 377
SWIDTH 540 0
DWIDTH 24 0
BBX 22 40 1 0
BITMAP
000F00
001F00
001E00
003C00
003C00
007800
000000
000000
000000
FFFFFC
FFFFFC
FFFFFC
FFFFFC
FFFFF8
FFFFF0
0007F0
000FE0
001FE0
001FC0
003F80
003F80
007F00
00FF00
00FE00
01FC00
01FC00
03F800
07F800
07F000
0FF000
0FE000
1FC000
1FC000
3F8000
7FFFF8
7FFFF8
FFFFF8
FFFFF8
FFFFF8
FFFFF8
ENDCHAR
STARTCHAR 017A
ENCODING 378
SWIDTH 540 0
DWIDTH 24 0
BBX 22 40 1 0
BITMAP
000F00
001F00
001E00
003C00
003C00
007800
000000
000000
000000
FFFFFC
FFFFFC
FFFFFC
FFFFFC
FFFFF8
FFFFF0
0007F0
000FE0
001FE0
001FC0
003F80
003F80
007F00
00FF00
00FE00
01FC00
01FC00
03F800
07F800
07F000
0FF000
0FE000
1FC000
1FC000
3F8000
7FFFF8
7FFFF8
FFFFF8
FFFFF8
FFFFF8
FFFFF8
ENDCHAR
STARTCHAR 017B
ENCODING 379
SWIDTH 540 0
DWIDTH 24 0
BBX 22 41 1 1
BITMAP
007C00
00FE00
00FE00
00FE00
00FE00
00FE00
007C00
000000
000000
000000
FFFFFC
FFFFFC
FFFFFC
FFFFFC
FFFFF8
FFFFF0
0007F0
000FE0
001FE0
001FC0
003F80
003F80
007F00
00FF00
00FE00
01FC00
01FC00
03F800
07F800
07F000
0FF000
0FE000
1FC000
1FC000
3F8000
7FFFF8
7FFFF8
FFFFF8
FFFFF8
FFFFF8
FFFFF8
ENDCHAR
STARTCHAR 017C
ENCODING 380
SWIDTH 540 0
DWIDTH 24 0
BBX 22 41 1 1
BITMAP
007C00
00FE00
00FE00
00FE00
00FE00
00FE00
007C00
000000
000000
000000
FFFFFC
FFFFFC
FFFFFC
FFFFFC
FFFFF8
FFFFF0
0007F0
000FE0
001FE0
001FC0
003F80
003F80
007F00
00FF00
00FE00
01FC00
01FC00
03F800
07F800
07F000
0FF000
0FE000
1FC000
1FC000
3F8000
7FFFF8
7FFFF8
FFFFF8
FFFFF8
FFFFF8
FFFFF8
ENDCHAR
STARTCHAR 017D
ENCODING 381
SWIDTH 540 0
DWIDTH 24 0
BBX 22 40 1 0
BITMAP
03FF80
01FF00
01FE00
00FC00
007800
003000
000000
000000
000000
FFFFFC
FFFFFC
FFFFFC
FFFFFC
FFFFF8
FFFFF0
0007F0
000FE0
001FE0
001FC0
003F80
003F80
007F00
00FF00
00FE00
01FC00
01FC00
03F800
07F800
07F000
0FF000
0FE000
1FC000
1FC000
3F8000
7FFFF8
7FFFF8
FFFFF8
FFFFF8
FFFFF8
FFFFF8
ENDCHAR
STARTCHAR 017E
ENCODING 382
SWIDTH 540 0
DWIDTH 24 0
BBX 22 40 1 0
BITMAP
03FF80
01FF00
01FE00
00FC00
007800
003000
000000
000000
000000
FFFFFC
FFFFFC
FFFFFC
FFFFFC
FFFFF8
FFFFF0
0007F0
000FE0
001FE0
001FC0
003F80
003F80
007F00
00FF00
00FE00
01FC00
01FC00
03F800
07F800
07F000
0FF000
0FE000
1FC000
1FC000
3F8000
7FFFF8
7FFFF8
FFFFF8
FFFFF8
FFFFF8
FFFFF8
ENDCHAR
STARTCHAR 01A0
ENCODING 416
SWIDTH 810 0
DWIDTH 36 0
BBX 33 36 2 -1
BITMAP
0000001F00
0000001F00
0000001E00
0007E01E00
003FFE1E00
00FFFF9E00
03FFFFE000
07FFFFF000
0FFFFFF800
1FFF7FFC00
3FF007FE00
3FC001FE00
7F8000FF00
7F00007F00
FF00007F00
FE00003F80
FE00003F80
FC00003F80
FC00003F80
FC00003F80
FC00003F80
FE00003F80
FE00003F80
FE00003F80
FF00007F00
7F00007F00
7F8000FF00
3FC003FE00
3FF007FC00
1FFFFFFC00
0FFFFFF800
07FFFFF000
03FFFFE000
00FFFF8000
003FFE0000
0001C00000
ENDCHAR
STARTCHAR 01A1
ENCODING 417
SWIDTH 810 0
DWIDTH 36 0
BBX 33 36 2 -1
BITMAP
0000001F00
0000001F00
0000001E00
0007E01E00
003FFE1E00
00FFFF9E00
03FFFFE000
07FFFFF000
0FFFFFF800
1FFF7FFC00
3FF007FE00
3FC001FE00
7F8000FF00
7F00007F00
FF00007F00
FE00003F80
FE00003F80
FC00003F80
FC00003F80
FC00003F80
FC00003F80
FE00003F80
FE00003F80
FE00003F80
FF00007F00
7F00007F00
7F8000FF00
3FC003FE00
3FF007FC00
1FFFFFFC00
0FFFFFF800
07FFFFF000
03FFFFE000
00FFFF8000
003FFE0000
0001C00000
ENDCHAR
STARTCHAR 01AF
ENCODING 431
SWIDTH 540 0
DWIDTH 24 0
BBX 26 36 2 -1
BITMAP
000007C0
00000780
00000780
00000780
FE03F780
FE03F700
FE03F000
FE03F000
FE03F000
FE03F000
FE03F000
FE03F000
FE03F000
FE03F000
FE03F000
FE03F000
FE03F000
FE03F000
FE03F000
FE03F000
FE03F000
FE03F000
FE03F000
FE03F000
FE03F000
FE07F000
FE07F000
FE07F000
7F0FF000
7FFFE000
7FFFE000
3FFFC000
1FFFC000
0FFF8000
07FE0000
00F00000
ENDCHAR
STARTCHAR 01B0
ENCODING 432
SWIDTH 540 0
DWIDTH 24 0
BBX 26 36 2 -1
BITMAP
000007C0
00000780
00000780
00000780
FE03F780
FE03F700
FE03F000
FE03F000
FE03F000
FE03F000
FE03F000
FE03F000
FE03F000
FE03F000
FE03F000
FE03F000
FE03F000
FE03F000
FE03F000
FE03F000
FE03F000
FE03F000
FE03F000
FE03F000
FE03F000
FE07F000
FE07F000
FE07F000
7F0FF000
7FFFE000
7FFFE000
3FFFC000
1FFFC000
0FFF8000
07FE0000
00F00000
ENDCHAR
STARTCHAR 01CD
ENCODING 461
SWIDTH 562 0
DWIDTH 25 0
BBX 23 40 2 0
BITMAP
07FF00
03FE00
01FC00
01F800
00F000
006000
000000
000000
00F800
07FE00
0FFF80
1FFFC0
3FFFE0
7FFFE0
7FDFF0
7F07F0
FE07F0
FE07F0
FE03F0
FE03F0
FE03F0
FE03F0
FE03F0
FE03F0
FE03F0
FE03F0
FE03F0
FE03F0
FE03F0
FE03F0
FE03F0
FE03F0
FE03F0
FE03F0
FFFFFE
FFFFFE
FFFFFE
FFFFFE
FFFFFE
FFFFFE
ENDCHAR
STARTCHAR 01CE
ENCODING 462
SWIDTH 562 0
DWIDTH 25 0
BBX 23 40 2 0
BITMAP
07FF00
03FE00
01FC00
01F800
00F000
006000
000000
000000
00F800
07FE00
0FFF80
1FFFC0
3FFFE0
7FFFE0
7FDFF0
7F07F0
FE07F0
FE07F0
FE03F0
FE03F0
FE03F0
FE03F0
FE03F0
FE03F0
FE03F0
FE03F0
FE03F0
FE03F0
FE03F0
FE03F0
FE03F0
FE03F0
FE03F0
FE03F0
FFFFFE
FFFFFE
FFFFFE
FFFFFE
FFFFFE
FFFFFE
ENDCHAR
STARTCHAR 01CF
ENCODING 463
SWIDTH 247 0
DWIDTH 11 0
BBX 11 28 0 0
BITMAP
FFE0
7FC0
3FC0
1F80
0F00
0600
0000
0000
0000
1F80
1F80
1F80
1F80
1F80
1F80
1F80
1F80
1F80
1F80
1F80
1F80
1F80
1F80
1F80
1F80
1F80
1F80
1F80
ENDCHAR
STARTCHAR 01D0
ENCODING 464
SWIDTH 247 0
DWIDTH 11 0
BBX 11 28 0 0
BITMAP
FFE0
7FC0
3FC0
1F80
0F00
0600
0000
0000
0000
1F80
1F80
1F80
1F80
1F80
1F80
1F80
1F80
1F80
1F80
1F80
1F80
1F80
1F80
1F80
1F80
1F80
1F80
1F80
ENDCHAR
STARTCHAR 01D1
ENCODING 465
SWIDTH 810 0
DWIDTH 36 0
BBX 33 41 2 -1
BITMAP
001FFC0000
000FF80000
0007F00000
0003E00000
0003C00000
0001800000
0000800000
0000000000
0007E00000
003FFE0000
00FFFF8000
03FFFFE000
07FFFFF000
0FFFFFF800
1FFF7FFC00
3FF007FE00
3FC001FE00
7F8000FF00
7F00007F00
FF00007F00
FE00003F80
FE00003F80
FC00003F80
FC00003F80
FC00003F80
FC00003F80
FE00003F80
FE00003F80
FE00003F80
FF00007F00
7F00007F00
7F8000FF00
3FC003FE00
3FF007FC00
1FFFFFFC00
0FFFFFF800
07FFFFF000
03FFFFE000
00FFFF8000
003FFE0000
0001C00000
ENDCHAR
STARTCHAR 01D2
ENCODING 466
SWIDTH 810 0
DWIDTH 36 0
BBX 33 41 2 -1
BITMAP
001FFC0000
000FF80000
0007F00000
0003E00000
0003C00000
0001800000
0000800000
0000000000
0007E00000
003FFE0000
00FFFF8000
03FFFFE000
07FFFFF000
0FFFFFF800
1FFF7FFC00
3FF007FE00
3FC001FE00
7F8000FF00
7F00007F00
FF00007F00
FE00003F80
FE00003F80
FC00003F80
FC00003F80
FC00003F80
FC00003F80
FE00003F80
FE00003F80
FE00003F80
FF00007F00
7F00007F00
7F8000FF00
3FC003FE00
3FF007FC00
1FFFFFFC00
0FFFFFF800
07FFFFF000
03FFFFE000
00FFFF8000
003FFE0000
0001C00000
ENDCHAR
STARTCHAR 01D3
ENCODING 467
SWIDTH 540 0
DWIDTH 24 0
BBX 20 41 2 -1
BITMAP
07FF00
03FE00
03FC00
01F800
00F000
006000
000000
000000
000000
FE03F0
FE03F0
FE03F0
FE03F0
FE03F0
FE03F0
FE03F0
FE03F0
FE03F0
FE03F0
FE03F0
FE03F0
FE03F0
FE03F0
FE03F0
FE03F0
FE03F0
FE03F0
FE03F0
FE03F0
FE03F0
FE07F0
FE07F0
FE07F0
7F0FF0
7FFFE0
7FFFE0
3FFFC0
1FFFC0
0FFF80
07FE00
00F000
ENDCHAR
STARTCHAR 01D4
ENCODING 468
SWIDTH 540 0
DWIDTH 24 0
BBX 20 41 2 -1
BITMAP
07FF00
03FE00
03FC00
01F800
00F000
006000
000000
000000
000000
FE03F0
FE03F0
FE03F0
FE03F0
FE03F0
FE03F0
FE03F0
FE03F0
FE03F0
FE03F0
FE03F0
FE03F0
FE03F0
FE03F0
FE03F0
FE03F0
FE03F0
FE03F0
FE03F0
FE03F0
FE03F0
FE07F0
FE07F0
FE07F0
7F0FF0
7FFFE0
7FFFE0
3FFFC0
1FFFC0
0FFF80
07FE00
00F000
ENDCHAR
STARTCHAR 02C6
ENCODING 710
SWIDTH 337 0
DWIDTH 15 0
BBX 11 7 0 34
BITMAP
0400
0600
0E00
1F00
3F80
7FC0
FFE0
ENDCHAR
STARTCHAR 02C7
ENCODING 711
SWIDTH 247 0
DWIDTH 11 0
BBX 11 7 0 33
BITMAP
FFE0
7FC0
3F80
1F00
0E00
0E00
0400
ENDCHAR
STARTCHAR 02D8
ENCODING 728
SWIDTH 292 0
DWIDTH 13 0
BBX 10 5 0 34
BITMAP
FFC0
FFC0
7F80
7F80
3E00
ENDCHAR
STARTCHAR 02D9
ENCODING 729
SWIDTH 157 0
DWIDTH 7 0
BBX 8 8 0 34
BITMAP
18
7E
7F
FF
FF
FF
7E
3C
ENDCHAR
STARTCHAR 02DA
ENCODING 730
SWIDTH 202 0
DWIDTH 9 0
BBX 9 9 0 34
BITMAP
1C00
7F00
7F80
E380
E380
E380
F780
7F00
3F00
ENDCHAR
STARTCHAR 02DB
ENCODING 731
SWIDTH 225 0
DWIDTH 10 0
BBX 10 9 0 -9
BITMAP
3F00
7800
F000
F000
F000
F380
FFC0
7FC0
1F00
ENDCHAR
STARTCHAR 02DC
ENCODING 732
SWIDTH 225 0
DWIDTH 10 0
BBX 11 5 0 35
BITMAP
7800
FFE0
FFE0
FFE0
87E0
ENDCHAR
STARTCHAR 02DD
ENCODING 733
SWIDTH 337 0
DWIDTH 15 0
BBX 15 6 0 34
BITMAP
3E3E
3C7C
7C78
7878
70F0
F0E0
ENDCHAR
STARTCHAR 0300
ENCODING 768
SWIDTH 0 0
DWIDTH 0 0
BBX 7 6 -7 34
BITMAP
F8
78
7C
3C
1C
1E
ENDCHAR
STARTCHAR 0301
ENCODING 769
SWIDTH 0 0
DWIDTH 0 0
BBX 7 6 -7 34
BITMAP
3E
3C
78
78
F0
F0
ENDCHAR
STARTCHAR 0302
ENCODING 770
SWIDTH 0 0
DWIDTH 0 0
BBX 11 7 -11 34
BITMAP
0400
0C00
0E00
1F00
3F80
7FC0
FFE0
ENDCHAR
STARTCHAR 0303
ENCODING 771
SWIDTH 0 0
DWIDTH 0 0
BBX 11 5 -11 35
BITMAP
7800
FFE0
FFE0
FFE0
87E0
ENDCHAR
STARTCHAR 0304
ENCODING 772
SWIDTH 0 0
DWIDTH 0 0
BBX 13 5 -13 34
BITMAP
FFF8
FFF8
FFF8
FFF8
FFF8
ENDCHAR
STARTCHAR 0306
ENCODING 774
SWIDTH 0 0
DWIDTH 0 0
BBX 10 5 -10 34
BITMAP
FFC0
FFC0
7F80
7F80
3E00
ENDCHAR
STARTCHAR 0307
ENCODING 775
SWIDTH 0 0
DWIDTH 0 0
BBX 7 8 -7 34
BITMAP
10
7C
FE
FE
FE
FE
FC
78
ENDCHAR
STARTCHAR 0308
ENCODING 776
SWIDTH 0 0
DWIDTH 0 0
BBX 18 8 -18 33
BITMAP
380700
7C0F80
FE1FC0
FE1FC0
FE1FC0
FE1FC0
FC1F80
380700
ENDCHAR
STARTCHAR 0309
ENCODING 777
SWIDTH 0 0
DWIDTH 0 0
BBX 5 8 -5 34
BITMAP
78
78
78
78
F0
F0
F0
F0
ENDCHAR
STARTCHAR 030A
ENCODING 778
SWIDTH 0 0
DWIDTH 0 0
BBX 9 9 -9 34
BITMAP
1C00
7F00
FF00
E380
E380
E380
F780
7F00
3E00
ENDCHAR
STARTCHAR 030B
ENCODING 779
SWIDTH 0 0
DWIDTH 0 0
BBX 15 6 -15 34
BITMAP
3E3E
3C7C
7C78
78F8
70F0
F0E0
ENDCHAR
STARTCHAR 030C
ENCODING 780
SWIDTH 0 0
DWIDTH 0 0
BBX 11 7 -11 33
BITMAP
FFE0
7FC0
3F80
1F00
0E00
0E00
0400
ENDCHAR
STARTCHAR 031B
ENCODING 795
SWIDTH 0 0
DWIDTH 0 0
BBX 5 6 -5 29
BITMAP
F8
F8
F0
F0
F0
F0
ENDCHAR
STARTCHAR 0323
ENCODING 803
SWIDTH 0 0
DWIDTH 0 0
BBX 8 7 -8 -12
BITMAP
3E
7E
FF
FF
FF
7E
3C
ENDCHAR
STARTCHAR 0326
ENCODING 806
SWIDTH 0 0
DWIDTH 0 0
BBX 7 8 -7 -10
BITMAP
3E
3E
7C
7C
78
F8
F0
F0
ENDCHAR
STARTCHAR 0327
ENCODING 807
SWIDTH 0 0
DWIDTH 0 0
BBX 10 10 -10 -10
BITMAP
0700
0E00
0F00
0780
01C0
61C0
FFC0
FFC0
7F80
1E00
ENDCHAR
STARTCHAR 0328
ENCODING 808
SWIDTH 0 0
DWIDTH 0 0
BBX 11 9 -11 -9
BITMAP
3F00
7800
7000
7000
F080
79C0
7FE0
3FC0
1F00
ENDCHAR
STARTCHAR 0335
ENCODING 821
SWIDTH 0 0
DWIDTH 0 0
BBX 15 6 -15 6
BITMAP
FFFE
FFFE
FFFE
FFFE
FFFE
FFFE
ENDCHAR
STARTCHAR 1EA0
ENCODING 7840
SWIDTH 562 0
DWIDTH 25 0
BBX 23 44 2 -12
BITMAP
00F800
07FE00
0FFF80
1FFFC0
3FFFE0
7FFFE0
7FDFF0
7F07F0
FE07F0
FE07F0
FE03F0
FE03F0
FE03F0
FE03F0
FE03F0
FE03F0
FE03F0
FE03F0
FE03F0
FE03F0
FE03F0
FE03F0
FE03F0
FE03F0
FE03F0
FE03F0
FFFFFE
FFFFFE
FFFFFE
FFFFFE
FFFFFE
FFFFFE
000000
000000
000000
000000
000000
00F800
01FC00
01FC00
01FC00
01FC00
01FC00
00F800
ENDCHAR
STARTCHAR 1EA1
ENCODING 7841
SWIDTH 562 0
DWIDTH 25 0
BBX 23 44 2 -12
BITMAP
00F800
07FE00
0FFF80
1FFFC0
3FFFE0
7FFFE0
7FDFF0
7F07F0
FE07F0
FE07F0
FE03F0
FE03F0
FE03F0
FE03F0
FE03F0
FE03F0
FE03F0
FE03F0
FE03F0
FE03F0
FE03F0
FE03F0
FE03F0
FE03F0
FE03F0
FE03F0
FFFFFE
FFFFFE
FFFFFE
FFFFFE
FFFFFE
FFFFFE
000000
000000
000000
000000
000000
00F800
01FC00
01FC00
01FC00
01FC00
01FC00
00F800
ENDCHAR
STARTCHAR 1EA2
ENCODING 7842
SWIDTH 562 0
DWIDTH 25 0
BBX 23 42 2 0
BITMAP
00F000
007800
007800
00F000
00F000
00F000
00F000
00F000
000000
000000
00F800
07FE00
0FFF80
1FFFC0
3FFFE0
7FFFE0
7FDFF0
7F07F0
FE07F0
FE07F0
FE03F0
FE03F0
FE03F0
FE03F0
FE03F0
FE03F0
FE03F0
FE03F0
FE03F0
FE03F0
FE03F0
FE03F0
FE03F0
FE03F0
FE03F0
FE03F0
FFFFFE
FFFFFE
FFFFFE
FFFFFE
FFFFFE
FFFFFE
ENDCHAR
STARTCHAR 1EA3
ENCODING 7843
SWIDTH 562 0
DWIDTH 25 0
BBX 23 42 2 0
BITMAP
00F000
007800
007800
00F000
00F000
00F000
00F000
00F000
000000
000000
00F800
07FE00
0FFF80
1FFFC0
3FFFE0
7FFFE0
7FDFF0
7F07F0
FE07F0
FE07F0
FE03F0
FE03F0
FE03F0
FE03F0
FE03F0
FE03F0
FE03F0
FE03F0
FE03F0
FE03F0
FE03F0
FE03F0
FE03F0
FE03F0
FE03F0
FE03F0
FFFFFE
FFFFFE
FFFFFE
FFFFFE
FFFFFE
FFFFFE
ENDCHAR
STARTCHAR 1EA4
ENCODING 7844
SWIDTH 562 0
DWIDTH 25 0
BBX 23 43 2 0
BITMAP
00007C
000078
0000F0
0060F0
00F1E0
00F9E0
01FC00
03FE00
07FF00
000000
000000
00F800
07FE00
0FFF80
1FFFC0
3FFFE0
7FFFE0
7FDFF0
7F07F0
FE07F0
FE07F0
FE03F0
FE03F0
FE03F0
FE03F0
FE03F0
FE03F0
FE03F0
FE03F0
FE03F0
FE03F0
FE03F0
FE03F0
FE03F0
FE03F0
FE03F0
FE03F0
FFFFFE
FFFFFE
FFFFFE
FFFFFE
FFFFFE
FFFFFE
ENDCHAR
STARTCHAR 1EA5
ENCODING 7845
SWIDTH 562 0
DWIDTH 25 0
BBX 23 43 2 0
BITMAP
00007C
000078
0000F0
0060F0
00F1E0
00F9E0
01FC00
03FE00
07FF00
000000
000000
00F800
07FE00
0FFF80
1FFFC0
3FFFE0
7FFFE0
7FDFF0
7F07F0
FE07F0
FE07F0
FE03F0
FE03F0
FE03F0
FE03F0
FE03F0
FE03F0
FE03F0
FE03F0
FE03F0
FE03F0
FE03F0
FE03F0
FE03F0
FE03F0
FE03F0
FE03F0
FFFFFE
FFFFFE
FFFFFE
FFFFFE
FFFFFE
FFFFFE
ENDCHAR
STARTCHAR 1EA6
ENCODING 7846
SWIDTH 562 0
DWIDTH 25 0
BBX 24 43 1 0
BITMAP
F80000
F80000
780000
3C3000
3C7800
1E7C00
00FE00
01FF00
03FF80
000000
000000
007C00
03FF00
07FFC0
0FFFE0
1FFFF0
3FFFF0
3FEFF8
3F83F8
7F03F8
7F03F8
7F01F8
7F01F8
7F01F8
7F01F8
7F01F8
7F01F8
7F01F8
7F01F8
7F01F8
7F01F8
7F01F8
7F01F8
7F01F8
7F01F8
7F01F8
7F01F8
7FFFFF
7FFFFF
7FFFFF
7FFFFF
7FFFFF
7FFFFF
ENDCHAR
STARTCHAR 1EA7
ENCODING 7847
SWIDTH 562 0
DWIDTH 25 0
BBX 24 43 1 0
BITMAP
F80000
F80000
780000
3C3000
3C7800
1E7C00
00FE00
01FF00
03FF80
000000
000000
007C00
03FF00
07FFC0
0FFFE0
1FFFF0
3FFFF0
3FEFF8
3F83F8
7F03F8
7F03F8
7F01F8
7F01F8
7F01F8
7F01F8
7F01F8
7F01F8
7F01F8
7F01F8
7F01F8
7F01F8
7F01F8
7F01F8
7F01F8
7F01F8
7F01F8
7F01F8
7FFFFF
7FFFFF
7FFFFF
7FFFFF
7FFFFF
7FFFFF
ENDCHAR
STARTCHAR 1EA8
ENCODING 7848
SWIDTH 562 0
DWIDTH 25 0
BBX 23 46 2 0
BITMAP
0001E0
0000F0
0000F0
0001E0
0001E0
0001E0
0061E0
00F1E0
00F9E0
01FC00
03FE00
07FF00
000000
000000
00F800
07FE00
0FFF80
1FFFC0
3FFFE0
7FFFE0
7FDFF0
7F07F0
FE07F0
FE07F0
FE03F0
FE03F0
FE03F0
FE03F0
FE03F0
FE03F0
FE03F0
FE03F0
FE03F0
FE03F0
FE03F0
FE03F0
FE03F0
FE03F0
FE03F0
FE03F0
FFFFFE
FFFFFE
FFFFFE
FFFFFE
FFFFFE
FFFFFE
ENDCHAR
STARTCHAR 1EA9
ENCODING 7849
SWIDTH 562 0
DWIDTH 25 0
BBX 23 46 2 0
BITMAP
0001E0
0000F0
0000F0
0001E0
0001E0
0001E0
0061E0
00F1E0
00F9E0
01FC00
03FE00
07FF00
000000
000000
00F800
07FE00
0FFF80
1FFFC0
3FFFE0
7FFFE0
7FDFF0
7F07F0
FE07F0
FE07F0
FE03F0
FE03F0
FE03F0
FE03F0
FE03F0
FE03F0
FE03F0
FE03F0
FE03F0
FE03F0
FE03F0
FE03F0
FE03F0
FE03F0
FE03F0
FE03F0
FFFFFE
FFFFFE
FFFFFE
FFFFFE
FFFFFE
FFFFFE
ENDCHAR
STARTCHAR 1EAA
ENCODING 7850
SWIDTH 562 0
DWIDTH 25 0
BBX 25 43 2 0
BITMAP
0001F000
0003FF80
0003FF80
0063FF80
00F21F80
00F80000
01FC0000
03FE0000
07FF0000
00000000
00000000
00F80000
07FE0000
0FFF8000
1FFFC000
3FFFE000
7FFFE000
7FDFF000
7F07F000
FE07F000
FE07F000
FE03F000
FE03F000
FE03F000
FE03F000
FE03F000
FE03F000
FE03F000
FE03F000
FE03F000
FE03F000
FE03F000
FE03F000
FE03F000
FE03F000
FE03F000
FE03F000
FFFFFE00
FFFFFE00
FFFFFE00
FFFFFE00
FFFFFE00
FFFFFE00
ENDCHAR
STARTCHAR 1EAB
ENCODING 7851
SWIDTH 562 0
DWIDTH 25 0
BBX 25 43 2 0
BITMAP
0001F000
0003FF80
0003FF80
0063FF80
00F21F80
00F80000
01FC0000
03FE0000
07FF0000
00000000
00000000
00F80000
07FE0000
0FFF8000
1FFFC000
3FFFE000
7FFFE000
7FDFF000
7F07F000
FE07F000
FE07F000
FE03F000
FE03F000
FE03F000
FE03F000
FE03F000
FE03F000
FE03F000
FE03F000
FE03F000
FE03F000
FE03F000
FE03F000
FE03F000
FE03F000
FE03F000
FE03F000
FFFFFE00
FFFFFE00
FFFFFE00
FFFFFE00
FFFFFE00
FFFFFE00
ENDCHAR
STARTCHAR 1EAC
ENCODING 7852
SWIDTH 562 0
DWIDTH 25 0
BBX 23 52 2 -11
BITMAP
006000
00F000
00F800
01FC00
03FE00
07FF00
000000
000000
00F800
07FE00
0FFF80
1FFFC0
3FFFE0
7FFFE0
7FDFF0
7F07F0
FE07F0
FE07F0
FE03F0
FE03F0
FE03F0
FE03F0
FE03F0
FE03F0
FE03F0
FE03F0
FE03F0
FE03F0
FE03F0
FE03F0
FE03F0
FE03F0
FE03F0
FE03F0
FFFFFE
FFFFFE
FFFFFE
FFFFFE
FFFFFE
FFFFFE
000000
000000
000000
000000
000000
00F800
01FC00
01FC00
01FC00
01FC00
01FC00
00F800
ENDCHAR
STARTCHAR 1EAD
ENCODING 7853
SWIDTH 562 0
DWIDTH 25 0
BBX 23 52 2 -11
BITMAP
006000
00F000
00F800
01FC00
03FE00
07FF00
000000
000000
00F800
07FE00
0FFF80
1FFFC0
3FFFE0
7FFFE0
7FDFF0
7F07F0
FE07F0
FE07F0
FE03F0
FE03F0
FE03F0
FE03F0
FE03F0
FE03F0
FE03F0
FE03F0
FE03F0
FE03F0
FE03F0
FE03F0
FE03F0
FE03F0
FE03F0
FE03F0
FFFFFE
FFFFFE
FFFFFE
FFFFFE
FFFFFE
FFFFFE
000000
000000
000000
000000
000000
00F800
01FC00
01FC00
01FC00
01FC00
01FC00
00F800
ENDCHAR
STARTCHAR 1EAE
ENCODING 7854
SWIDTH 562 0
DWIDTH 25 0
BBX 23 43 2 0
BITMAP
00001E
00003E
00003C
000078
07FE78
07FEF0
03FE00
01FC00
00F800
000000
000000
00F800
07FE00
0FFF80
1FFFC0
3FFFE0
7FFFE0
7FDFF0
7F07F0
FE07F0
FE07F0
FE03F0
FE03F0
FE03F0
FE03F0
FE03F0
FE03F0
FE03F0
FE03F0
FE03F0
FE03F0
FE03F0
FE03F0
FE03F0
FE03F0
FE03F0
FE03F0
FFFFFE
FFFFFE
FFFFFE
FFFFFE
FFFFFE
FFFFFE
ENDCHAR
STARTCHAR 1EAF
ENCODING 7855
SWIDTH 562 0
DWIDTH 25 0
BBX 23 43 2 0
BITMAP
00001E
00003E
00003C
000078
07FE78
07FEF0
03FE00
01FC00
00F800
000000
000000
00F800
07FE00
0FFF80
1FFFC0
3FFFE0
7FFFE0
7FDFF0
7F07F0
FE07F0
FE07F0
FE03F0
FE03F0
FE03F0
FE03F0
FE03F0
FE03F0
FE03F0
FE03F0
FE03F0
FE03F0
FE03F0
FE03F0
FE03F0
FE03F0
FE03F0
FE03F0
FFFFFE
FFFFFE
FFFFFE
FFFFFE
FFFFFE
FFFFFE
ENDCHAR
STARTCHAR 1EB0
ENCODING 7856
SWIDTH 562 0
DWIDTH 25 0
BBX 25 43 0 0
BITMAP
F0000000
F8000000
78000000
3C000000
3DFF8000
1FFF8000
00FF8000
007F0000
003E0000
00000000
00000000
003E0000
01FF8000
03FFE000
07FFF000
0FFFF800
1FFFF800
1FF7FC00
1FC1FC00
3F81FC00
3F81FC00
3F80FC00
3F80FC00
3F80FC00
3F80FC00
3F80FC00
3F80FC00
3F80FC00
3F80FC00
3F80FC00
3F80FC00
3F80FC00
3F80FC00
3F80FC00
3F80FC00
3F80FC00
3F80FC00
3FFFFF80
3FFFFF80
3FFFFF80
3FFFFF80
3FFFFF80
3FFFFF80
ENDCHAR
STARTCHAR 1EB1
ENCODING 7857
SWIDTH 562 0
DWIDTH 25 0
BBX 25 43 0 0
BITMAP
F0000000
F8000000
78000000
3C000000
3DFF8000
1FFF8000
00FF8000
007F0000
003E0000
00000000
00000000
003E0000
01FF8000
03FFE000
07FFF000
0FFFF800
1FFFF800
1FF7FC00
1FC1FC00
3F81FC00
3F81FC00
3F80FC00
3F80FC00
3F80FC00
3F80FC00
3F80FC00
3F80FC00
3F80FC00
3F80FC00
3F80FC00
3F80FC00
3F80FC00
3F80FC00
3F80FC00
3F80FC00
3F80FC00
3F80FC00
3FFFFF80
3FFFFF80
3FFFFF80
3FFFFF80
3FFFFF80
3FFFFF80
ENDCHAR
STARTCHAR 1EB2
ENCODING 7858
SWIDTH 562 0
DWIDTH 25 0
BBX 23 44 2 0
BITMAP
000038
00003C
000038
000078
000078
07FE78
07FE78
03FE78
01FC00
00F800
000000
000000
00F800
07FE00
0FFF80
1FFFC0
3FFFE0
7FFFE0
7FDFF0
7F07F0
FE07F0
FE07F0
FE03F0
FE03F0
FE03F0
FE03F0
FE03F0
FE03F0
FE03F0
FE03F0
FE03F0
FE03F0
FE03F0
FE03F0
FE03F0
FE03F0
FE03F0
FE03F0
FFFFFE
FFFFFE
FFFFFE
FFFFFE
FFFFFE
FFFFFE
ENDCHAR
STARTCHAR 1EB3
ENCODING 7859
SWIDTH 562 0
DWIDTH 25 0
BBX 23 44 2 0
BITMAP
000038
00003C
000038
000078
000078
07FE78
07FE78
03FE78
01FC00
00F800
000000
000000
00F800
07FE00
0FFF80
1FFFC0
3FFFE0
7FFFE0
7FDFF0
7F07F0
FE07F0
FE07F0
FE03F0
FE03F0
FE03F0
FE03F0
FE03F0
FE03F0
FE03F0
FE03F0
FE03F0
FE03F0
FE03F0
FE03F0
FE03F0
FE03F0
FE03F0
FE03F0
FFFFFE
FFFFFE
FFFFFE
FFFFFE
FFFFFE
FFFFFE
ENDCHAR
STARTCHAR 1EB4
ENCODING 7860
SWIDTH 562 0
DWIDTH 25 0
BBX 23 45 2 0
BITMAP
003C00
007FF0
007FF0
007FF0
0003F0
000000
07FE00
07FE00
03FE00
01FC00
00F800
000000
000000
00F800
07FE00
0FFF80
1FFFC0
3FFFE0
7FFFE0
7FDFF0
7F07F0
FE07F0
FE07F0
FE03F0
FE03F0
FE03F0
FE03F0
FE03F0
FE03F0
FE03F0
FE03F0
FE03F0
FE03F0
FE03F0
FE03F0
FE03F0
FE03F0
FE03F0
FE03F0
FFFFFE
FFFFFE
FFFFFE
FFFFFE
FFFFFE
FFFFFE
ENDCHAR
STARTCHAR 1EB5
ENCODING 7861
SWIDTH 562 0
DWIDTH 25 0
BBX 23 45 2 0
BITMAP
003C00
007FF0
007FF0
007FF0
0003F0
000000
07FE00
07FE00
03FE00
01FC00
00F800
000000
000000
00F800
07FE00
0FFF80
1FFFC0
3FFFE0
7FFFE0
7FDFF0
7F07F0
FE07F0
FE07F0
FE03F0
FE03F0
FE03F0
FE03F0
FE03F0
FE03F0
FE03F0
FE03F0
FE03F0
FE03F0
FE03F0
FE03F0
FE03F0
FE03F0
FE03F0
FE03F0
FFFFFE
FFFFFE
FFFFFE
FFFFFE
FFFFFE
FFFFFE
ENDCHAR
STARTCHAR 1EB6
ENCODING 7862
SWIDTH 562 0
DWIDTH 25 0
BBX 23 51 2 -12
BITMAP
07FE00
07FE00
03FE00
01FC00
00F800
000000
000000
00F800
07FE00
0FFF80
1FFFC0
3FFFE0
7FFFE0
7FDFF0
7F07F0
FE07F0
FE07F0
FE03F0
FE03F0
FE03F0
FE03F0
FE03F0
FE03F0
FE03F0
FE03F0
FE03F0
FE03F0
FE03F0
FE03F0
FE03F0
FE03F0
FE03F0
FE03F0
FFFFFE
FFFFFE
FFFFFE
FFFFFE
FFFFFE
FFFFFE
000000
000000
000000
000000
000000
00F800
01FC00
01FC00
01FC00
01FC00
01FC00
00F800
ENDCHAR
STARTCHAR 1EB7
ENCODING 7863
SWIDTH 562 0
DWIDTH 25 0
BBX 23 51 2 -12
BITMAP
07FE00
07FE00
03FE00
01FC00
00F800
000000
000000
00F800
07FE00
0FFF80
1FFFC0
3FFFE0
7FFFE0
7FDFF0
7F07F0
FE07F0
FE07F0
FE03F0
FE03F0
FE03F0
FE03F0
FE03F0
FE03F0
FE03F0
FE03F0
FE03F0
FE03F0
FE03F0
FE03F0
FE03F0
FE03F0
FE03F0
FE03F0
FFFFFE
FFFFFE
FFFFFE
FFFFFE
FFFFFE
FFFFFE
000000
000000
000000
000000
000000
00F800
01FC00
01FC00
01FC00
01FC00
01FC00
00F800
ENDCHAR
STARTCHAR 1EB8
ENCODING 7864
SWIDTH 517 0
DWIDTH 23 0
BBX 22 43 1 -12
BITMAP
1FFF00
1FFF00
1FFF00
1FFF00
1FFF00
1FFF00
1FC000
1FC000
1FC000
1FC000
1FC000
1FC000
FFFFC0
FFFFC0
FFFFC0
FFFFC0
FFFFC0
FFFFC0
1FC000
1FC000
1FC000
1FC000
1FC000
1FC000
1FC000
1FFFFC
1FFFFC
1FFFFC
1FFFFC
1FFFFC
1FFFFC
000000
000000
000000
000000
000000
003E00
007F00
007F00
007F00
007F00
007F00
003E00
ENDCHAR
STARTCHAR 1EB9
ENCODING 7865
SWIDTH 517 0
DWIDTH 23 0
BBX 22 43 1 -12
BITMAP
1FFF00
1FFF00
1FFF00
1FFF00
1FFF00
1FFF00
1FC000
1FC000
1FC000
1FC000
1FC000
1FC000
FFFFC0
FFFFC0
FFFFC0
FFFFC0
FFFFC0
FFFFC0
1FC000
1FC000
1FC000
1FC000
1FC000
1FC000
1FC000
1FFFFC
1FFFFC
1FFFFC
1FFFFC
1FFFFC
1FFFFC
000000
000000
000000
000000
000000
003E00
007F00
007F00
007F00
007F00
007F00
003E00
ENDCHAR
STARTCHAR 1EBA
ENCODING 7866
SWIDTH 517 0
DWIDTH 23 0
BBX 22 42 1 0
BITMAP
00F000
00F000
00F000
00F000
01E000
01E000
01E000
01E000
000000
000000
000000
1FFF00
1FFF00
1FFF00
1FFF00
1FFF00
1FFF00
1FC000
1FC000
1FC000
1FC000
1FC000
1FC000
FFFFC0
FFFFC0
FFFFC0
FFFFC0
FFFFC0
FFFFC0
1FC000
1FC000
1FC000
1FC000
1FC000
1FC000
1FC000
1FFFFC
1FFFFC
1FFFFC
1FFFFC
1FFFFC
1FFFFC
ENDCHAR
STARTCHAR 1EBB
ENCODING 7867
SWIDTH 517 0
DWIDTH 23 0
BBX 22 42 1 0
BITMAP
00F000
00F000
00F000
00F000
01E000
01E000
01E000
01E000
000000
000000
000000
1FFF00
1FFF00
1FFF00
1FFF00
1FFF00
1FFF00
1FC000
1FC000
1FC000
1FC000
1FC000
1FC000
FFFFC0
FFFFC0
FFFFC0
FFFFC0
FFFFC0
FFFFC0
1FC000
1FC000
1FC000
1FC000
1FC000
1FC000
1FC000
1FFFFC
1FFFFC
1FFFFC
1FFFFC
1FFFFC
1FFFFC
ENDCHAR
STARTCHAR 1EBC
ENCODING 7868
SWIDTH 517 0
DWIDTH 23 0
BBX 22 40 1 0
BITMAP
0F8000
0FFC00
0FFC00
0FFC00
007C00
000000
000000
000000
000000
1FFF00
1FFF00
1FFF00
1FFF00
1FFF00
1FFF00
1FC000
1FC000
1FC000
1FC000
1FC000
1FC000
FFFFC0
FFFFC0
FFFFC0
FFFFC0
FFFFC0
FFFFC0
1FC000
1FC000
1FC000
1FC000
1FC000
1FC000
1FC000
1FFFFC
1FFFFC
1FFFFC
1FFFFC
1FFFFC
1FFFFC
ENDCHAR
STARTCHAR 1EBD
ENCODING 7869
SWIDTH 517 0
DWIDTH 23 0
BBX 22 40 1 0
BITMAP
0F8000
0FFC00
0FFC00
0FFC00
007C00
000000
000000
000000
000000
1FFF00
1FFF00
1FFF00
1FFF00
1FFF00
1FFF00
1FC000
1FC000
1FC000
1FC000
1FC000
1FC000
FFFFC0
FFFFC0
FFFFC0
FFFFC0
FFFFC0
FFFFC0
1FC000
1FC000
1FC000
1FC000
1FC000
1FC000
1FC000
1FFFFC
1FFFFC
1FFFFC
1FFFFC
1FFFFC
1FFFFC
ENDCHAR
STARTCHAR 1EBE
ENCODING 7870
SWIDTH 517 0
DWIDTH 23 0
BBX 22 43 1 0
BITMAP
0000F8
0000F0
0000F0
0061E0
00E1E0
01F3C0
03F800
07FC00
0FFE00
000000
000000
000000
1FFF00
1FFF00
1FFF00
1FFF00
1FFF00
1FFF00
1FC000
1FC000
1FC000
1FC000
1FC000
1FC000
FFFFC0
FFFFC0
FFFFC0
FFFFC0
FFFFC0
FFFFC0
1FC000
1FC000
1FC000
1FC000
1FC000
1FC000
1FC000
1FFFFC
1FFFFC
1FFFFC
1FFFFC
1FFFFC
1FFFFC
ENDCHAR
STARTCHAR 1EBF
ENCODING 7871
SWIDTH 517 0
DWIDTH 23 0
BBX 22 43 1 0
BITMAP
0000F8
0000F0
0000F0
0061E0
00E1E0
01F3C0
03F800
07FC00
0FFE00
000000
000000
000000
1FFF00
1FFF00
1FFF00
1FFF00
1FFF00
1FFF00
1FC000
1FC000
1FC000
1FC000
1FC000
1FC000
FFFFC0
FFFFC0
FFFFC0
FFFFC0
FFFFC0
FFFFC0
1FC000
1FC000
1FC000
1FC000
1FC000
1FC000
1FC000
1FFFFC
1FFFFC
1FFFFC
1FFFFC
1FFFFC
1FFFFC
ENDCHAR
STARTCHAR 1EC0
ENCODING 7872
SWIDTH 517 0
DWIDTH 23 0
BBX 24 43 -1 0
BITMAP
F80000
780000
7C0000
3C1800
1E3800
1E7C00
00FE00
01FF00
03FF80
000000
000000
000000
07FFC0
07FFC0
07FFC0
07FFC0
07FFC0
07FFC0
07F000
07F000
07F000
07F000
07F000
07F000
3FFFF0
3FFFF0
3FFFF0
3FFFF0
3FFFF0
3FFFF0
07F000
07F000
07F000
07F000
07F000
07F000
07F000
07FFFF
07FFFF
07FFFF
07FFFF
07FFFF
07FFFF
ENDCHAR
STARTCHAR 1EC1
ENCODING 7873
SWIDTH 517 0
DWIDTH 23 0
BBX 24 43 -1 0
BITMAP
F80000
780000
7C0000
3C1800
1E3800
1E7C00
00FE00
01FF00
03FF80
000000
000000
000000
07FFC0
07FFC0
07FFC0
07FFC0
07FFC0
07FFC0
07F000
07F000
07F000
07F000
07F000
07F000
3FFFF0
3FFFF0
3FFFF0
3FFFF0
3FFFF0
3FFFF0
07F000
07F000
07F000
07F000
07F000
07F000
07F000
07FFFF
07FFFF
07FFFF
07FFFF
07FFFF
07FFFF
ENDCHAR
STARTCHAR 1EC2
ENCODING 7874
SWIDTH 517 0
DWIDTH 23 0
BBX 22 46 1 0
BITMAP
0001E0
0001E0
0001E0
0001E0
0003C0
0003C0
0063C0
00E3C0
01F1C0
03F800
07FC00
0FFE00
000000
000000
000000
1FFF00
1FFF00
1FFF00
1FFF00
1FFF00
1FFF00
1FC000
1FC000
1FC000
1FC000
1FC000
1FC000
FFFFC0
FFFFC0
FFFFC0
FFFFC0
FFFFC0
FFFFC0
1FC000
1FC000
1FC000
1FC000
1FC000
1FC000
1FC000
1FFFFC
1FFFFC
1FFFFC
1FFFFC
1FFFFC
1FFFFC
ENDCHAR
STARTCHAR 1EC3
ENCODING 7875
SWIDTH 517 0
DWIDTH 23 0
BBX 22 46 1 0
BITMAP
0001E0
0001E0
0001E0
0001E0
0003C0
0003C0
0063C0
00E3C0
01F1C0
03F800
07FC00
0FFE00
000000
000000
000000
1FFF00
1FFF00
1FFF00
1FFF00
1FFF00
1FFF00
1FC000
1FC000
1FC000
1FC000
1FC000
1FC000
FFFFC0
FFFFC0
FFFFC0
FFFFC0
FFFFC0
FFFFC0
1FC000
1FC000
1FC000
1FC000
1FC000
1FC000
1FC000
1FFFFC
1FFFFC
1FFFFC
1FFFFC
1FFFFC
1FFFFC
ENDCHAR
STARTCHAR 1EC4
ENCODING 7876
SWIDTH 517 0
DWIDTH 23 0
BBX 24 43 1 0
BITMAP
0003E0
0003FF
0003FF
0063FF
00E01F
01F000
03F800
07FC00
0FFE00
000000
000000
000000
1FFF00
1FFF00
1FFF00
1FFF00
1FFF00
1FFF00
1FC000
1FC000
1FC000
1FC000
1FC000
1FC000
FFFFC0
FFFFC0
FFFFC0
FFFFC0
FFFFC0
FFFFC0
1FC000
1FC000
1FC000
1FC000
1FC000
1FC000
1FC000
1FFFFC
1FFFFC
1FFFFC
1FFFFC
1FFFFC
1FFFFC
ENDCHAR
STARTCHAR 1EC5
ENCODING 7877
SWIDTH 517 0
DWIDTH 23 0
BBX 24 43 1 0
BITMAP
0003E0
0003FF
0003FF
0063FF
00E01F
01F000
03F800
07FC00
0FFE00
000000
000000
000000
1FFF00
1FFF00
1FFF00
1FFF00
1FFF00
1FFF00
1FC000
1FC000
1FC000
1FC000
1FC000
1FC000
FFFFC0
FFFFC0
FFFFC0
FFFFC0
FFFFC0
FFFFC0
1FC000
1FC000
1FC000
1FC000
1FC000
1FC000
1FC000
1FFFFC
1FFFFC
1FFFFC
1FFFFC
1FFFFC
1FFFFC
ENDCHAR
STARTCHAR 1EC6
ENCODING 7878
SWIDTH 517 0
DWIDTH 23 0
BBX 22 52 1 -11
BITMAP
006000
00E000
01F000
03F800
07FC00
0FFE00
000000
000000
000000
1FFF00
1FFF00
1FFF00
1FFF00
1FFF00
1FFF00
1FC000
1FC000
1FC000
1FC000
1FC000
1FC000
FFFFC0
FFFFC0
FFFFC0
FFFFC0
FFFFC0
FFFFC0
1FC000
1FC000
1FC000
1FC000
1FC000
1FC000
1FC000
1FFFFC
1FFFFC
1FFFFC
1FFFFC
1FFFFC
1FFFFC
000000
000000
000000
000000
000000
003E00
007F00
007F00
007F00
007F00
007F00
003E00
ENDCHAR
STARTCHAR 1EC7
ENCODING 7879
SWIDTH 517 0
DWIDTH 23 0
BBX 22 52 1 -11
BITMAP
006000
00E000
01F000
03F800
07FC00
0FFE00
000000
000000
000000
1FFF00
1FFF00
1FFF00
1FFF00
1FFF00
1FFF00
1FC000
1FC000
1FC000
1FC000
1FC000
1FC000
FFFFC0
FFFFC0
FFFFC0
FFFFC0
FFFFC0
FFFFC0
1FC000
1FC000
1FC000
1FC000
1FC000
1FC000
1FC000
1FFFFC
1FFFFC
1FFFFC
1FFFFC
1FFFFC
1FFFFC
000000
000000
000000
000000
000000
003E00
007F00
007F00
007F00
007F00
007F00
003E00
ENDCHAR
STARTCHAR 1EC8
ENCODING 7880
SWIDTH 247 0
DWIDTH 11 0
BBX 6 30 3 0
BITMAP
78
78
78
78
F0
F0
F0
70
00
00
00
FC
FC
FC
FC
FC
FC
FC
FC
FC
FC
FC
FC
FC
FC
FC
FC
FC
FC
FC
ENDCHAR
STARTCHAR 1EC9
ENCODING 7881
SWIDTH 247 0
DWIDTH 11 0
BBX 6 30 3 0
BITMAP
78
78
78
78
F0
F0
F0
70
00
00
00
FC
FC
FC
FC
FC
FC
FC
FC
FC
FC
FC
FC
FC
FC
FC
FC
FC
FC
FC
ENDCHAR
STARTCHAR 1ECA
ENCODING 7882
SWIDTH 247 0
DWIDTH 11 0
BBX 13 48 -1 -12
BITMAP
0200
0200
0300
0700
0780
FFF8
7FF0
3FE0
1FC0
1FC0
1FC0
18E0
3020
0000
0000
0000
0000
1FC0
1FC0
1FC0
1FC0
1FC0
1FC0
1FC0
1FC0
1FC0
1FC0
1FC0
1FC0
1FC0
1FC0
1FC0
1FC0
1FC0
1FC0
1FC0
0000
0000
0000
0000
0000
0F80
1FC0
1FC0
1FC0
1FC0
1FC0
0F80
ENDCHAR
STARTCHAR 1ECB
ENCODING 7883
SWIDTH 247 0
DWIDTH 11 0
BBX 13 48 -1 -12
BITMAP
0200
0200
0300
0700
0780
FFF8
7FF0
3FE0
1FC0
1FC0
1FC0
18E0
3020
0000
0000
0000
0000
1FC0
1FC0
1FC0
1FC0
1FC0
1FC0
1FC0
1FC0
1FC0
1FC0
1FC0
1FC0
1FC0
1FC0
1FC0
1FC0
1FC0
1FC0
1FC0
0000
0000
0000
0000
0000
0F80
1FC0
1FC0
1FC0
1FC0
1FC0
0F80
ENDCHAR
STARTCHAR 1ECC
ENCODING 7884
SWIDTH 810 0
DWIDTH 36 0
BBX 33 44 2 -12
BITMAP
0007E00000
003FFE0000
00FFFF8000
03FFFFE000
07FFFFF000
0FFFFFF800
1FFF7FFC00
3FF007FE00
3FC001FE00
7F8000FF00
7F00007F00
FF00007F00
FE00003F80
FE00003F80
FC00003F80
FC00003F80
FC00003F80
FC00003F80
FE00003F80
FE00003F80
FE00003F80
FF00007F00
7F00007F00
7F8000FF00
3FC003FE00
3FF007FC00
1FFFFFFC00
0FFFFFF800
07FFFFF000
03FFFFE000
00FFFF8000
003FFE0000
0001C00000
0000000000
0000000000
0000000000
0000000000
0003E00000
0007F00000
0007F00000
0007F00000
0007F00000
0007F00000
0003E00000
ENDCHAR
STARTCHAR 1ECD
ENCODING 7885
SWIDTH 810 0
DWIDTH 36 0
BBX 33 44 2 -12
BITMAP
0007E00000
003FFE0000
00FFFF8000
03FFFFE000
07FFFFF000
0FFFFFF800
1FFF7FFC00
3FF007FE00
3FC001FE00
7F8000FF00
7F00007F00
FF00007F00
FE00003F80
FE00003F80
FC00003F80
FC00003F80
FC00003F80
FC00003F80
FE00003F80
FE00003F80
FE00003F80
FF00007F00
7F00007F00
7F8000FF00
3FC003FE00
3FF007FC00
1FFFFFFC00
0FFFFFF800
07FFFFF000
03FFFFE000
00FFFF8000
003FFE0000
0001C00000
0000000000
0000000000
0000000000
0000000000
0003E00000
0007F00000
0007F00000
0007F00000
0007F00000
0007F00000
0003E00000
ENDCHAR
STARTCHAR 1ECE
ENCODING 7886
SWIDTH 810 0
DWIDTH 36 0
BBX 33 43 2 -1
BITMAP
0001E00000
0001E00000
0001E00000
0003C00000
0003C00000
0003C00000
0003C00000
0003C00000
0000000000
0000000000
0007E00000
003FFE0000
00FFFF8000
03FFFFE000
07FFFFF000
0FFFFFF800
1FFF7FFC00
3FF007FE00
3FC001FE00
7F8000FF00
7F00007F00
FF00007F00
FE00003F80
FE00003F80
FC00003F80
FC00003F80
FC00003F80
FC00003F80
FE00003F80
FE00003F80
FE00003F80
FF00007F00
7F00007F00
7F8000FF00
3FC003FE00
3FF007FC00
1FFFFFFC00
0FFFFFF800
07FFFFF000
03FFFFE000
00FFFF8000
003FFE0000
0001C00000
ENDCHAR
STARTCHAR 1ECF
ENCODING 7887
SWIDTH 810 0
DWIDTH 36 0
BBX 33 43 2 -1
BITMAP
0001E00000
0001E00000
0001E00000
0003C00000
0003C00000
0003C00000
0003C00000
0003C00000
0000000000
0000000000
0007E00000
003FFE0000
00FFFF8000
03FFFFE000
07FFFFF000
0FFFFFF800
1FFF7FFC00
3FF007FE00
3FC001FE00
7F8000FF00
7F00007F00
FF00007F00
FE00003F80
FE00003F80
FC00003F80
FC00003F80
FC00003F80
FC00003F80
FE00003F80
FE00003F80
FE00003F80
FF00007F00
7F00007F00
7F8000FF00
3FC003FE00
3FF007FC00
1FFFFFFC00
0FFFFFF800
07FFFFF000
03FFFFE000
00FFFF8000
003FFE0000
0001C00000
ENDCHAR
STARTCHAR 1ED0
ENCODING 7888
SWIDTH 810 0
DWIDTH 36 0
BBX 33 44 2 -1
BITMAP
000001F000
000001E000
000003E000
000183C000
0001C78000
0003E78000
0007F00000
000FF80000
001FFC0000
0000000000
0000000000
0007E00000
003FFE0000
00FFFF8000
03FFFFE000
07FFFFF000
0FFFFFF800
1FFF7FFC00
3FF007FE00
3FC001FE00
7F8000FF00
7F00007F00
FF00007F00
FE00003F80
FE00003F80
FC00003F80
FC00003F80
FC00003F80
FC00003F80
FE00003F80
FE00003F80
FE00003F80
FF00007F00
7F00007F00
7F8000FF00
3FC003FE00
3FF007FC00
1FFFFFFC00
0FFFFFF800
07FFFFF000
03FFFFE000
00FFFF8000
003FFE0000
0001C00000
ENDCHAR
STARTCHAR 1ED1
ENCODING 7889
SWIDTH 810 0
DWIDTH 36 0
BBX 33 44 2 -1
BITMAP
000001F000
000001E000
000003E000
000183C000
0001C78000
0003E78000
0007F00000
000FF80000
001FFC0000
0000000000
0000000000
0007E00000
003FFE0000
00FFFF8000
03FFFFE000
07FFFFF000
0FFFFFF800
1FFF7FFC00
3FF007FE00
3FC001FE00
7F8000FF00
7F00007F00
FF00007F00
FE00003F80
FE00003F80
FC00003F80
FC00003F80
FC00003F80
FC00003F80
FE00003F80
FE00003F80
FE00003F80
FF00007F00
7F00007F00
7F8000FF00
3FC003FE00
3FF007FC00
1FFFFFFC00
0FFFFFF800
07FFFFF000
03FFFFE000
00FFFF8000
003FFE0000
0001C00000
ENDCHAR
STARTCHAR 1ED2
ENCODING 7890
SWIDTH 810 0
DWIDTH 36 0
BBX 33 44 2 -1
BITMAP
07C0000000
03C0000000
03E0000000
01E1800000
01E1C00000
00F3E00000
0007F00000
000FF80000
001FFC0000
0000000000
0000000000
0007E00000
003FFE0000
00FFFF8000
03FFFFE000
07FFFFF000
0FFFFFF800
1FFF7FFC00
3FF007FE00
3FC001FE00
7F8000FF00
7F00007F00
FF00007F00
FE00003F80
FE00003F80
FC00003F80
FC00003F80
FC00003F80
FC00003F80
FE00003F80
FE00003F80
FE00003F80
FF00007F00
7F00007F00
7F8000FF00
3FC003FE00
3FF007FC00
1FFFFFFC00
0FFFFFF800
07FFFFF000
03FFFFE000
00FFFF8000
003FFE0000
0001C00000
ENDCHAR
STARTCHAR 1ED3
ENCODING 7891
SWIDTH 810 0
DWIDTH 36 0
BBX 33 44 2 -1
BITMAP
07C0000000
03C0000000
03E0000000
01E1800000
01E1C00000
00F3E00000
0007F00000
000FF80000
001FFC0000
0000000000
0000000000
0007E00000
003FFE0000
00FFFF8000
03FFFFE000
07FFFFF000
0FFFFFF800
1FFF7FFC00
3FF007FE00
3FC001FE00
7F8000FF00
7F00007F00
FF00007F00
FE00003F80
FE00003F80
FC00003F80
FC00003F80
FC00003F80
FC00003F80
FE00003F80
FE00003F80
FE00003F80
FF00007F00
7F00007F00
7F8000FF00
3FC003FE00
3FF007FC00
1FFFFFFC00
0FFFFFF800
07FFFFF000
03FFFFE000
00FFFF8000
003FFE0000
0001C00000
ENDCHAR
STARTCHAR 1ED4
ENCODING 7892
SWIDTH 810 0
DWIDTH 36 0
BBX 33 47 2 -1
BITMAP
0000038000
000003C000
000003C000
0000038000
0000078000
0000078000
0001878000
0001C78000
0003E78000
0007F00000
000FF80000
001FFC0000
0000000000
0000000000
0007E00000
003FFE0000
00FFFF8000
03FFFFE000
07FFFFF000
0FFFFFF800
1FFF7FFC00
3FF007FE00
3FC001FE00
7F8000FF00
7F00007F00
FF00007F00
FE00003F80
FE00003F80
FC00003F80
FC00003F80
FC00003F80
FC00003F80
FE00003F80
FE00003F80
FE00003F80
FF00007F00
7F00007F00
7F8000FF00
3FC003FE00
3FF007FC00
1FFFFFFC00
0FFFFFF800
07FFFFF000
03FFFFE000
00FFFF8000
003FFE0000
0001C00000
ENDCHAR
STARTCHAR 1ED5
ENCODING 7893
SWIDTH 810 0
DWIDTH 36 0
BBX 33 47 2 -1
BITMAP
0000038000
000003C000
000003C000
0000038000
0000078000
0000078000
0001878000
0001C78000
0003E78000
0007F00000
000FF80000
001FFC0000
0000000000
0000000000
0007E00000
003FFE0000
00FFFF8000
03FFFFE000
07FFFFF000
0FFFFFF800
1FFF7FFC00
3FF007FE00
3FC001FE00
7F8000FF00
7F00007F00
FF00007F00
FE00003F80
FE00003F80
FC00003F80
FC00003F80
FC00003F80
FC00003F80
FE00003F80
FE00003F80
FE00003F80
FF00007F00
7F00007F00
7F8000FF00
3FC003FE00
3FF007FC00
1FFFFFFC00
0FFFFFF800
07FFFFF000
03FFFFE000
00FFFF8000
003FFE0000
0001C00000
ENDCHAR
STARTCHAR 1ED6
ENCODING 7894
SWIDTH 810 0
DWIDTH 36 0
BBX 33 44 2 -1
BITMAP
000007C000
00000FFE00
00000FFE00
00018FFE00
0001C83E00
0003E00000
0007F00000
000FF80000
001FFC0000
0000000000
0000000000
0007E00000
003FFE0000
00FFFF8000
03FFFFE000
07FFFFF000
0FFFFFF800
1FFF7FFC00
3FF007FE00
3FC001FE00
7F8000FF00
7F00007F00
FF00007F00
FE00003F80
FE00003F80
FC00003F80
FC00003F80
FC00003F80
FC00003F80
FE00003F80
FE00003F80
FE00003F80
FF00007F00
7F00007F00
7F8000FF00
3FC003FE00
3FF007FC00
1FFFFFFC00
0FFFFFF800
07FFFFF000
03FFFFE000
00FFFF8000
003FFE0000
0001C00000
ENDCHAR
STARTCHAR 1ED7
ENCODING 7895
SWIDTH 810 0
DWIDTH 36 0
BBX 33 44 2 -1
BITMAP
000007C000
00000FFE00
00000FFE00
00018FFE00
0001C83E00
0003E00000
0007F00000
000FF80000
001FFC0000
0000000000
0000000000
0007E00000
003FFE0000
00FFFF8000
03FFFFE000
07FFFFF000
0FFFFFF800
1FFF7FFC00
3FF007FE00
3FC001FE00
7F8000FF00
7F00007F00
FF00007F00
FE00003F80
FE00003F80
FC00003F80
FC00003F80
FC00003F80
FC00003F80
FE00003F80
FE00003F80
FE00003F80
FF00007F00
7F00007F00
7F8000FF00
3FC003FE00
3FF007FC00
1FFFFFFC00
0FFFFFF800
07FFFFF000
03FFFFE000
00FFFF8000
003FFE0000
0001C00000
ENDCHAR
STARTCHAR 1ED8
ENCODING 7896
SWIDTH 810 0
DWIDTH 36 0
BBX 33 52 2 -11
BITMAP
0001800000
0001C00000
0003E00000
0007F00000
000FF80000
001FFC0000
0000000000
0000000000
0007E00000
003FFE0000
00FFFF8000
03FFFFE000
07FFFFF000
0FFFFFF800
1FFF7FFC00
3FF007FE00
3FC001FE00
7F8000FF00
7F00007F00
FF00007F00
FE00003F80
FE00003F80
FC00003F80
FC00003F80
FC00003F80
FC00003F80
FE00003F80
FE00003F80
FE00003F80
FF00007F00
7F00007F00
7F8000FF00
3FC003FE00
3FF007FC00
1FFFFFFC00
0FFFFFF800
07FFFFF000
03FFFFE000
00FFFF8000
003FFE0000
0001C00000
0000000000
0000000000
0000000000
0000000000
0003E00000
0007F00000
0007F00000
0007F00000
0007F00000
0007F00000
0003E00000
ENDCHAR
STARTCHAR 1ED9
ENCODING 7897
SWIDTH 810 0
DWIDTH 36 0
BBX 33 52 2 -11
BITMAP
0001800000
0001C00000
0003E00000
0007F00000
000FF80000
001FFC0000
0000000000
0000000000
0007E00000
003FFE0000
00FFFF8000
03FFFFE000
07FFFFF000
0FFFFFF800
1FFF7FFC00
3FF007FE00
3FC001FE00
7F8000FF00
7F00007F00
FF00007F00
FE00003F80
FE00003F80
FC00003F80
FC00003F80
FC00003F80
FC00003F80
FE00003F80
FE00003F80
FE00003F80
FF00007F00
7F00007F00
7F8000FF00
3FC003FE00
3FF007FC00
1FFFFFFC00
0FFFFFF800
07FFFFF000
03FFFFE000
00FFFF8000
003FFE0000
0001C00000
0000000000
0000000000
0000000000
0000000000
0003E00000
0007F00000
0007F00000
0007F00000
0007F00000
0007F00000
0003E00000
ENDCHAR
STARTCHAR 1EDA
ENCODING 7898
SWIDTH 810 0
DWIDTH 36 0
BBX 33 41 2 -1
BITMAP
00007C0000
0000780000
0000F00000
0000F00000
0001E00000
0001C01F00
0000001F00
0000001E00
0007E01E00
003FFE1E00
00FFFF9E00
03FFFFE000
07FFFFF000
0FFFFFF800
1FFF7FFC00
3FF007FE00
3FC001FE00
7F8000FF00
7F00007F00
FF00007F00
FE00003F80
FE00003F80
FC00003F80
FC00003F80
FC00003F80
FC00003F80
FE00003F80
FE00003F80
FE00003F80
FF00007F00
7F00007F00
7F8000FF00
3FC003FE00
3FF007FC00
1FFFFFFC00
0FFFFFF800
07FFFFF000
03FFFFE000
00FFFF8000
003FFE0000
0001C00000
ENDCHAR
STARTCHAR 1EDB
ENCODING 7899
SWIDTH 810 0
DWIDTH 36 0
BBX 33 41 2 -1
BITMAP
00007C0000
0000780000
0000F00000
0000F00000
0001E00000
0001C01F00
0000001F00
0000001E00
0007E01E00
003FFE1E00
00FFFF9E00
03FFFFE000
07FFFFF000
0FFFFFF800
1FFF7FFC00
3FF007FE00
3FC001FE00
7F8000FF00
7F00007F00
FF00007F00
FE00003F80
FE00003F80
FC00003F80
FC00003F80
FC00003F80
FC00003F80
FE00003F80
FE00003F80
FE00003F80
FF00007F00
7F00007F00
7F8000FF00
3FC003FE00
3FF007FC00
1FFFFFFC00
0FFFFFF800
07FFFFF000
03FFFFE000
00FFFF8000
003FFE0000
0001C00000
ENDCHAR
STARTCHAR 1EDC
ENCODING 7900
SWIDTH 810 0
DWIDTH 36 0
BBX 33 41 2 -1
BITMAP
001F000000
000F000000
000F800000
0007800000
0003C00000
0003C01F00
0000001F00
0000001E00
0007E01E00
003FFE1E00
00FFFF9E00
03FFFFE000
07FFFFF000
0FFFFFF800
1FFF7FFC00
3FF007FE00
3FC001FE00
7F8000FF00
7F00007F00
FF00007F00
FE00003F80
FE00003F80
FC00003F80
FC00003F80
FC00003F80
FC00003F80
FE00003F80
FE00003F80
FE00003F80
FF00007F00
7F00007F00
7F8000FF00
3FC003FE00
3FF007FC00
1FFFFFFC00
0FFFFFF800
07FFFFF000
03FFFFE000
00FFFF8000
003FFE0000
0001C00000
ENDCHAR
STARTCHAR 1EDD
ENCODING 7901
SWIDTH 810 0
DWIDTH 36 0
BBX 33 41 2 -1
BITMAP
001F000000
000F000000
000F800000
0007800000
0003C00000
0003C01F00
0000001F00
0000001E00
0007E01E00
003FFE1E00
00FFFF9E00
03FFFFE000
07FFFFF000
0FFFFFF800
1FFF7FFC00
3FF007FE00
3FC001FE00
7F8000FF00
7F00007F00
FF00007F00
FE00003F80
FE00003F80
FC00003F80
FC00003F80
FC00003F80
FC00003F80
FE00003F80
FE00003F80
FE00003F80
FF00007F00
7F00007F00
7F8000FF00
3FC003FE00
3FF007FC00
1FFFFFFC00
0FFFFFF800
07FFFFF000
03FFFFE000
00FFFF8000
003FFE0000
0001C00000
ENDCHAR
STARTCHAR 1EDE
ENCODING 7902
SWIDTH 810 0
DWIDTH 36 0
BBX 33 43 2 -1
BITMAP
0001E00000
0001E00000
0001E00000
0003C00000
0003C00000
0003C00000
0003C00000
0003C01F00
0000001F00
0000001E00
0007E01E00
003FFE1E00
00FFFF9E00
03FFFFE000
07FFFFF000
0FFFFFF800
1FFF7FFC00
3FF007FE00
3FC001FE00
7F8000FF00
7F00007F00
FF00007F00
FE00003F80
FE00003F80
FC00003F80
FC00003F80
FC00003F80
FC00003F80
FE00003F80
FE00003F80
FE00003F80
FF00007F00
7F00007F00
7F8000FF00
3FC003FE00
3FF007FC00
1FFFFFFC00
0FFFFFF800
07FFFFF000
03FFFFE000
00FFFF8000
003FFE0000
0001C00000
ENDCHAR
STARTCHAR 1EDF
ENCODING 7903
SWIDTH 810 0
DWIDTH 36 0
BBX 33 43 2 -1
BITMAP
0001E00000
0001E00000
0001E00000
0003C00000
0003C00000
0003C00000
0003C00000
0003C01F00
0000001F00
0000001E00
0007E01E00
003FFE1E00
00FFFF9E00
03FFFFE000
07FFFFF000
0FFFFFF800
1FFF7FFC00
3FF007FE00
3FC001FE00
7F8000FF00
7F00007F00
FF00007F00
FE00003F80
FE00003F80
FC00003F80
FC00003F80
FC00003F80
FC00003F80
FE00003F80
FE00003F80
FE00003F80
FF00007F00
7F00007F00
7F8000FF00
3FC003FE00
3FF007FC00
1FFFFFFC00
0FFFFFF800
07FFFFF000
03FFFFE000
00FFFF8000
003FFE0000
0001C00000
ENDCHAR
STARTCHAR 1EE0
ENCODING 7904
SWIDTH 810 0
DWIDTH 36 0
BBX 33 41 2 -1
BITMAP
001E000000
003FF80000
003FF80000
003FF80000
0021F80000
0000001F00
0000001F00
0000001E00
0007E01E00
003FFE1E00
00FFFF9E00
03FFFFE000
07FFFFF000
0FFFFFF800
1FFF7FFC00
3FF007FE00
3FC001FE00
7F8000FF00
7F00007F00
FF00007F00
FE00003F80
FE00003F80
FC00003F80
FC00003F80
FC00003F80
FC00003F80
FE00003F80
FE00003F80
FE00003F80
FF00007F00
7F00007F00
7F8000FF00
3FC003FE00
3FF007FC00
1FFFFFFC00
0FFFFFF800
07FFFFF000
03FFFFE000
00FFFF8000
003FFE0000
0001C00000
ENDCHAR
STARTCHAR 1EE1
ENCODING 7905
SWIDTH 810 0
DWIDTH 36 0
BBX 33 41 2 -1
BITMAP
001E000000
003FF80000
003FF80000
003FF80000
0021F80000
0000001F00
0000001F00
0000001E00
0007E01E00
003FFE1E00
00FFFF9E00
03FFFFE000
07FFFFF000
0FFFFFF800
1FFF7FFC00
3FF007FE00
3FC001FE00
7F8000FF00
7F00007F00
FF00007F00
FE00003F80
FE00003F80
FC00003F80
FC00003F80
FC00003F80
FC00003F80
FE00003F80
FE00003F80
FE00003F80
FF00007F00
7F00007F00
7F8000FF00
3FC003FE00
3FF007FC00
1FFFFFFC00
0FFFFFF800
07FFFFF000
03FFFFE000
00FFFF8000
003FFE0000
0001C00000
ENDCHAR
STARTCHAR 1EE2
ENCODING 7906
SWIDTH 810 0
DWIDTH 36 0
BBX 33 47 2 -12
BITMAP
0000001F00
0000001F00
0000001E00
0007E01E00
003FFE1E00
00FFFF9E00
03FFFFE000
07FFFFF000
0FFFFFF800
1FFF7FFC00
3FF007FE00
3FC001FE00
7F8000FF00
7F00007F00
FF00007F00
FE00003F80
FE00003F80
FC00003F80
FC00003F80
FC00003F80
FC00003F80
FE00003F80
FE00003F80
FE00003F80
FF00007F00
7F00007F00
7F8000FF00
3FC003FE00
3FF007FC00
1FFFFFFC00
0FFFFFF800
07FFFFF000
03FFFFE000
00FFFF8000
003FFE0000
0001C00000
0000000000
0000000000
0000000000
0000000000
0003E00000
0007F00000
0007F00000
0007F00000
0007F00000
0007F00000
0003E00000
ENDCHAR
STARTCHAR 1EE3
ENCODING 7907
SWIDTH 810 0
DWIDTH 36 0
BBX 33 47 2 -12
BITMAP
0000001F00
0000001F00
0000001E00
0007E01E00
003FFE1E00
00FFFF9E00
03FFFFE000
07FFFFF000
0FFFFFF800
1FFF7FFC00
3FF007FE00
3FC001FE00
7F8000FF00
7F00007F00
FF00007F00
FE00003F80
FE00003F80
FC00003F80
FC00003F80
FC00003F80
FC00003F80
FE00003F80
FE00003F80
FE00003F80
FF00007F00
7F00007F00
7F8000FF00
3FC003FE00
3FF007FC00
1FFFFFFC00
0FFFFFF800
07FFFFF000
03FFFFE000
00FFFF8000
003FFE0000
0001C00000
0000000000
0000000000
0000000000
0000000000
0003E00000
0007F00000
0007F00000
0007F00000
0007F00000
0007F00000
0003E00000
ENDCHAR
STARTCHAR 1EE4
ENCODING 7908
SWIDTH 540 0
DWIDTH 24 0
BBX 20 43 2 -12
BITMAP
FE03F0
FE03F0
FE03F0
FE03F0
FE03F0
FE03F0
FE03F0
FE03F0
FE03F0
FE03F0
FE03F0
FE03F0
FE03F0
FE03F0
FE03F0
FE03F0
FE03F0
FE03F0
FE03F0
FE03F0
FE03F0
FE07F0
FE07F0
FE07F0
7F0FF0
7FFFE0
7FFFE0
3FFFC0
1FFFC0
0FFF80
07FE00
00F000
000000
000000
000000
000000
00F800
01F800
03FC00
03FC00
03FC00
01F800
00F000
ENDCHAR
STARTCHAR 1EE5
ENCODING 7909
SWIDTH 540 0
DWIDTH 24 0
BBX 20 43 2 -12
BITMAP
FE03F0
FE03F0
FE03F0
FE03F0
FE03F0
FE03F0
FE03F0
FE03F0
FE03F0
FE03F0
FE03F0
FE03F0
FE03F0
FE03F0
FE03F0
FE03F0
FE03F0
FE03F0
FE03F0
FE03F0
FE03F0
FE07F0
FE07F0
FE07F0
7F0FF0
7FFFE0
7FFFE0
3FFFC0
1FFFC0
0FFF80
07FE00
00F000
000000
000000
000000
000000
00F800
01F800
03FC00
03FC00
03FC00
01F800
00F000
ENDCHAR
STARTCHAR 1EE6
ENCODING 7910
SWIDTH 540 0
DWIDTH 24 0
BBX 20 43 2 -1
BITMAP
00F000
007000
00F000
00F000
00F000
01E000
01E000
00F000
000000
000000
000000
FE03F0
FE03F0
FE03F0
FE03F0
FE03F0
FE03F0
FE03F0
FE03F0
FE03F0
FE03F0
FE03F0
FE03F0
FE03F0
FE03F0
FE03F0
FE03F0
FE03F0
FE03F0
FE03F0
FE03F0
FE03F0
FE07F0
FE07F0
FE07F0
7F0FF0
7FFFE0
7FFFE0
3FFFC0
1FFFC0
0FFF80
07FE00
00F000
ENDCHAR
STARTCHAR 1EE7
ENCODING 7911
SWIDTH 540 0
DWIDTH 24 0
BBX 20 43 2 -1
BITMAP
00F000
007000
00F000
00F000
00F000
01E000
01E000
00F000
000000
000000
000000
FE03F0
FE03F0
FE03F0
FE03F0
FE03F0
FE03F0
FE03F0
FE03F0
FE03F0
FE03F0
FE03F0
FE03F0
FE03F0
FE03F0
FE03F0
FE03F0
FE03F0
FE03F0
FE03F0
FE03F0
FE03F0
FE07F0
FE07F0
FE07F0
7F0FF0
7FFFE0
7FFFE0
3FFFC0
1FFFC0
0FFF80
07FE00
00F000
ENDCHAR
STARTCHAR 1EE8
ENCODING 7912
SWIDTH 540 0
DWIDTH 24 0
BBX 26 41 2 -1
BITMAP
001E0000
003E0000
003C0000
00780000
00780000
00F007C0
00000780
00000780
00000780
FE03F780
FE03F700
FE03F000
FE03F000
FE03F000
FE03F000
FE03F000
FE03F000
FE03F000
FE03F000
FE03F000
FE03F000
FE03F000
FE03F000
FE03F000
FE03F000
FE03F000
FE03F000
FE03F000
FE03F000
FE03F000
FE07F000
FE07F000
FE07F000
7F0FF000
7FFFE000
7FFFE000
3FFFC000
1FFFC000
0FFF8000
07FE0000
00F00000
ENDCHAR
STARTCHAR 1EE9
ENCODING 7913
SWIDTH 540 0
DWIDTH 24 0
BBX 26 41 2 -1
BITMAP
001E0000
003E0000
003C0000
00780000
00780000
00F007C0
00000780
00000780
00000780
FE03F780
FE03F700
FE03F000
FE03F000
FE03F000
FE03F000
FE03F000
FE03F000
FE03F000
FE03F000
FE03F000
FE03F000
FE03F000
FE03F000
FE03F000
FE03F000
FE03F000
FE03F000
FE03F000
FE03F000
FE03F000
FE07F000
FE07F000
FE07F000
7F0FF000
7FFFE000
7FFFE000
3FFFC000
1FFFC000
0FFF8000
07FE0000
00F00000
ENDCHAR
STARTCHAR 1EEA
ENCODING 7914
SWIDTH 540 0
DWIDTH 24 0
BBX 26 41 2 -1
BITMAP
07C00000
07C00000
03C00000
01E00000
01E00000
00F007C0
00000780
00000780
00000780
FE03F780
FE03F700
FE03F000
FE03F000
FE03F000
FE03F000
FE03F000
FE03F000
FE03F000
FE03F000
FE03F000
FE03F000
FE03F000
FE03F000
FE03F000
FE03F000
FE03F000
FE03F000
FE03F000
FE03F000
FE03F000
FE07F000
FE07F000
FE07F000
7F0FF000
7FFFE000
7FFFE000
3FFFC000
1FFFC000
0FFF8000
07FE0000
00F00000
ENDCHAR
STARTCHAR 1EEB
ENCODING 7915
SWIDTH 540 0
DWIDTH 24 0
BBX 26 41 2 -1
BITMAP
07C00000
07C00000
03C00000
01E00000
01E00000
00F007C0
00000780
00000780
00000780
FE03F780
FE03F700
FE03F000
FE03F000
FE03F000
FE03F000
FE03F000
FE03F000
FE03F000
FE03F000
FE03F000
FE03F000
FE03F000
FE03F000
FE03F000
FE03F000
FE03F000
FE03F000
FE03F000
FE03F000
FE03F000
FE07F000
FE07F000
FE07F000
7F0FF000
7FFFE000
7FFFE000
3FFFC000
1FFFC000
0FFF8000
07FE0000
00F00000
ENDCHAR
STARTCHAR 1EEC
ENCODING 7916
SWIDTH 540 0
DWIDTH 24 0
BBX 26 43 2 -1
BITMAP
00F00000
00700000
00F00000
00F00000
00F00000
01E00000
01E00000
00F007C0
00000780
00000780
00000780
FE03F780
FE03F700
FE03F000
FE03F000
FE03F000
FE03F000
FE03F000
FE03F000
FE03F000
FE03F000
FE03F000
FE03F000
FE03F000
FE03F000
FE03F000
FE03F000
FE03F000
FE03F000
FE03F000
FE03F000
FE03F000
FE07F000
FE07F000
FE07F000
7F0FF000
7FFFE000
7FFFE000
3FFFC000
1FFFC000
0FFF8000
07FE0000
00F00000
ENDCHAR
STARTCHAR 1EED
ENCODING 7917
SWIDTH 540 0
DWIDTH 24 0
BBX 26 43 2 -1
BITMAP
00F00000
00700000
00F00000
00F00000
00F00000
01E00000
01E00000
00F007C0
00000780
00000780
00000780
FE03F780
FE03F700
FE03F000
FE03F000
FE03F000
FE03F000
FE03F000
FE03F000
FE03F000
FE03F000
FE03F000
FE03F000
FE03F000
FE03F000
FE03F000
FE03F000
FE03F000
FE03F000
FE03F000
FE03F000
FE03F000
FE07F000
FE07F000
FE07F000
7F0FF000
7FFFE000
7FFFE000
3FFFC000
1FFFC000
0FFF8000
07FE0000
00F00000
ENDCHAR
STARTCHAR 1EEE
ENCODING 7918
SWIDTH 540 0
DWIDTH 24 0
BBX 26 41 2 -1
BITMAP
07800000
0FFE0000
0FFE0000
0FFE0000
087E0000
000007C0
00000780
00000780
00000780
FE03F780
FE03F700
FE03F000
FE03F000
FE03F000
FE03F000
FE03F000
FE03F000
FE03F000
FE03F000
FE03F000
FE03F000
FE03F000
FE03F000
FE03F000
FE03F000
FE03F000
FE03F000
FE03F000
FE03F000
FE03F000
FE07F000
FE07F000
FE07F000
7F0FF000
7FFFE000
7FFFE000
3FFFC000
1FFFC000
0FFF8000
07FE0000
00F00000
ENDCHAR
STARTCHAR 1EEF
ENCODING 7919
SWIDTH 540 0
DWIDTH 24 0
BBX 26 41 2 -1
BITMAP
07800000
0FFE0000
0FFE0000
0FFE0000
087E0000
000007C0
00000780
00000780
00000780
FE03F780
FE03F700
FE03F000
FE03F000
FE03F000
FE03F000
FE03F000
FE03F000
FE03F000
FE03F000
FE03F000
FE03F000
FE03F000
FE03F000
FE03F000
FE03F000
FE03F000
FE03F000
FE03F000
FE03F000
FE03F000
FE07F000
FE07F000
FE07F000
7F0FF000
7FFFE000
7FFFE000
3FFFC000
1FFFC000
0FFF8000
07FE0000
00F00000
ENDCHAR
STARTCHAR 1EF0
ENCODING 7920
SWIDTH 540 0
DWIDTH 24 0
BBX 26 47 2 -12
BITMAP
000007C0
00000780
00000780
00000780
FE03F780
FE03F700
FE03F000
FE03F000
FE03F000
FE03F000
FE03F000
FE03F000
FE03F000
FE03F000
FE03F000
FE03F000
FE03F000
FE03F000
FE03F000
FE03F000
FE03F000
FE03F000
FE03F000
FE03F000
FE03F000
FE07F000
FE07F000
FE07F000
7F0FF000
7FFFE000
7FFFE000
3FFFC000
1FFFC000
0FFF8000
07FE0000
00F00000
00000000
00000000
00000000
00000000
00F80000
01F80000
03FC0000
03FC0000
03FC0000
01F80000
00F00000
ENDCHAR
STARTCHAR 1EF1
ENCODING 7921
SWIDTH 540 0
DWIDTH 24 0
BBX 26 47 2 -12
BITMAP
000007C0
00000780
00000780
00000780
FE03F780
FE03F700
FE03F000
FE03F000
FE03F000
FE03F000
FE03F000
FE03F000
FE03F000
FE03F000
FE03F000
FE03F000
FE03F000
FE03F000
FE03F000
FE03F000
FE03F000
FE03F000
FE03F000
FE03F000
FE03F000
FE07F000
FE07F000
FE07F000
7F0FF000
7FFFE000
7FFFE000
3FFFC000
1FFFC000
0FFF8000
07FE0000
00F00000
00000000
00000000
00000000
00000000
00F80000
01F80000
03FC0000
03FC0000
03FC0000
01F80000
00F00000
ENDCHAR
STARTCHAR 1EF2
ENCODING 7922
SWIDTH 517 0
DWIDTH 23 0
BBX 20 40 2 0
BITMAP
078000
07C000
03C000
01E000
01E000
00F000
000000
000000
000000
FE07F0
FE07F0
FE07F0
FE07F0
FE07F0
FE07F0
FE07F0
FE07F0
FE07F0
FE07F0
FE07F0
FE07F0
FE07F0
FE07F0
FE07F0
FE07F0
FE0FF0
FF1FE0
7FFFE0
7FFFC0
3FFFC0
1FFF80
0FFE00
03F800
01F800
01F800
01F800
01F800
01F800
01F800
01F800
ENDCHAR
STARTCHAR 1EF3
ENCODING 7923
SWIDTH 517 0
DWIDTH 23 0
BBX 20 40 2 0
BITMAP
078000
07C000
03C000
01E000
01E000
00F000
000000
000000
000000
FE07F0
FE07F0
FE07F0
FE07F0
FE07F0
FE07F0
FE07F0
FE07F0
FE07F0
FE07F0
FE07F0
FE07F0
FE07F0
FE07F0
FE07F0
FE07F0
FE0FF0
FF1FE0
7FFFE0
7FFFC0
3FFFC0
1FFF80
0FFE00
03F800
01F800
01F800
01F800
01F800
01F800
01F800
01F800
ENDCHAR
STARTCHAR 1EF4
ENCODING 7924
SWIDTH 517 0
DWIDTH 23 0
BBX 20 43 2 -12
BITMAP
FE07F0
FE07F0
FE07F0
FE07F0
FE07F0
FE07F0
FE07F0
FE07F0
FE07F0
FE07F0
FE07F0
FE07F0
FE07F0
FE07F0
FE07F0
FE07F0
FE0FF0
FF1FE0
7FFFE0
7FFFC0
3FFFC0
1FFF80
0FFE00
03F800
01F800
01F800
01F800
01F800
01F800
01F800
01F800
000000
000000
000000
000000
000000
01F000
01F800
03FC00
03FC00
03FC00
01F800
00F000
ENDCHAR
STARTCHAR 1EF5
ENCODING 7925
SWIDTH 517 0
DWIDTH 23 0
BBX 20 43 2 -12
BITMAP
FE07F0
FE07F0
FE07F0
FE07F0
FE07F0
FE07F0
FE07F0
FE07F0
FE07F0
FE07F0
FE07F0
FE07F0
FE07F0
FE07F0
FE07F0
FE07F0
FE0FF0
FF1FE0
7FFFE0
7FFFC0
3FFFC0
1FFF80
0FFE00
03F800
01F800
01F800
01F800
01F800
01F800
01F800
01F800
000000
000000
000000
000000
000000
01F000
01F800
03FC00
03FC00
03FC00
01F800
00F000
ENDCHAR
STARTCHAR 1EF6
ENCODING 7926
SWIDTH 517 0
DWIDTH 23 0
BBX 20 42 2 0
BITMAP
00F000
00F000
00F000
00F000
01E000
01E000
01E000
00E000
000000
000000
000000
FE07F0
FE07F0
FE07F0
FE07F0
FE07F0
FE07F0
FE07F0
FE07F0
FE07F0
FE07F0
FE07F0
FE07F0
FE07F0
FE07F0
FE07F0
FE07F0
FE0FF0
FF1FE0
7FFFE0
7FFFC0
3FFFC0
1FFF80
0FFE00
03F800
01F800
01F800
01F800
01F800
01F800
01F800
01F800
ENDCHAR
STARTCHAR 1EF7
ENCODING 7927
SWIDTH 517 0
DWIDTH 23 0
BBX 20 42 2 0
BITMAP
00F000
00F000
00F000
00F000
01E000
01E000
01E000
00E000
000000
000000
000000
FE07F0
FE07F0
FE07F0
FE07F0
FE07F0
FE07F0
FE07F0
FE07F0
FE07F0
FE07F0
FE07F0
FE07F0
FE07F0
FE07F0
FE07F0
FE07F0
FE0FF0
FF1FE0
7FFFE0
7FFFC0
3FFFC0
1FFF80
0FFE00
03F800
01F800
01F800
01F800
01F800
01F800
01F800
01F800
ENDCHAR
STARTCHAR 1EF8
ENCODING 7928
SWIDTH 517 0
DWIDTH 23 0
BBX 20 40 2 0
BITMAP
078000
0FFE00
0FFE00
0FFE00
087E00
000000
000000
000000
000000
FE07F0
FE07F0
FE07F0
FE07F0
FE07F0
FE07F0
FE07F0
FE07F0
FE07F0
FE07F0
FE07F0
FE07F0
FE07F0
FE07F0
FE07F0
FE07F0
FE0FF0
FF1FE0
7FFFE0
7FFFC0
3FFFC0
1FFF80
0FFE00
03F800
01F800
01F800
01F800
01F800
01F800
01F800
01F800
ENDCHAR
STARTCHAR 1EF9
ENCODING 7929
SWIDTH 517 0
DWIDTH 23 0
BBX 20 40 2 0
BITMAP
078000
0FFE00
0FFE00
0FFE00
087E00
000000
000000
000000
000000
FE07F0
FE07F0
FE07F0
FE07F0
FE07F0
FE07F0
FE07F0
FE07F0
FE07F0
FE07F0
FE07F0
FE07F0
FE07F0
FE07F0
FE07F0
FE07F0
FE0FF0
FF1FE0
7FFFE0
7FFFC0
3FFFC0
1FFF80
0FFE00
03F800
01F800
01F800
01F800
01F800
01F800
01F800
01F800
ENDCHAR
STARTCHAR 2013
ENCODING 8211
SWIDTH 562 0
DWIDTH 25 0
BBX 20 4 3 9
BITMAP
FFFFF0
FFFFF0
FFFFF0
FFFFF0
ENDCHAR
STARTCHAR 2014
ENCODING 8212
SWIDTH 832 0
DWIDTH 37 0
BBX 32 4 3 9
BITMAP
FFFFFFFF
FFFFFFFF
FFFFFFFF
FFFFFFFF
ENDCHAR
STARTCHAR 2018
ENCODING 8216
SWIDTH 247 0
DWIDTH 11 0
BBX 6 8 3 23
BITMAP
3C
3C
3C
7C
78
78
F8
F8
ENDCHAR
STARTCHAR 2019
ENCODING 8217
SWIDTH 247 0
DWIDTH 11 0
BBX 6 8 3 23
BITMAP
7C
7C
78
78
F8
F0
F0
F0
ENDCHAR
STARTCHAR 201A
ENCODING 8218
SWIDTH 247 0
DWIDTH 11 0
BBX 6 8 3 -5
BITMAP
7C
7C
78
F8
F8
F0
F0
E0
ENDCHAR
STARTCHAR 201C
ENCODING 8220
SWIDTH 450 0
DWIDTH 20 0
BBX 15 8 3 23
BITMAP
1C1E
3C3C
3C3C
3C3C
7C7C
787C
F878
F8F8
ENDCHAR
STARTCHAR 201D
ENCODING 8221
SWIDTH 450 0
DWIDTH 20 0
BBX 14 8 3 23
BITMAP
7C7C
7C7C
787C
7878
F8F8
F0F8
F0F0
F0F0
ENDCHAR
STARTCHAR 201E
ENCODING 8222
SWIDTH 450 0
DWIDTH 20 0
BBX 15 8 3 -5
BITMAP
7C3E
7C3E
783C
F83C
F87C
F078
F078
E078
ENDCHAR
STARTCHAR 2020
ENCODING 8224
SWIDTH 427 0
DWIDTH 19 0
BBX 14 22 3 10
BITMAP
0780
0780
0780
0780
FFFC
FFFC
FFFC
FFFC
0780
0780
0780
0780
0780
0780
0780
0780
0780
0780
0780
0780
0780
0780
ENDCHAR
STARTCHAR 2021
ENCODING 8225
SWIDTH 427 0
DWIDTH 19 0
BBX 14 22 3 10
BITMAP
0780
0780
0780
0780
FFFC
FFFC
FFFC
FFFC
0780
0780
0780
0780
0780
0780
FFFC
FFFC
FFFC
FFFC
0780
0780
0780
0780
ENDCHAR
STARTCHAR 2022
ENCODING 8226
SWIDTH 337 0
DWIDTH 15 0
BBX 10 10 3 8
BITMAP
1E00
7F00
FF80
FFC0
FFC0
FFC0
FFC0
FF80
7F80
3F00
ENDCHAR
STARTCHAR 2026
ENCODING 8230
SWIDTH 742 0
DWIDTH 33 0
BBX 28 8 3 -1
BITMAP
780F03C0
FC1F87E0
FE3F87F0
FE3FCFF0
FE3FCFF0
FE3F87F0
7C1F87E0
10060180
ENDCHAR
STARTCHAR 2030
ENCODING 8240
SWIDTH 1372 0
DWIDTH 61 0
BBX 56 32 3 0
BITMAP
07C00000000000
1FF0003E000000
3FFC003E000000
7FFC007C000000
FFFE00F8000000
FC3E01F0000000
F83F01F0000000
F81F03E0000000
F81F07C0000000
F83F07C0000000
FC7E0F80000000
FFFE1F00000000
7FFC3F00000000
3FF83E00000000
1FF07C00000000
0380F800000000
0000F800000000
0001F03F0007E0
0003E0FFC01FF8
0003E1FFE03FFC
0007C3FFF07FFE
000F87FFF07FFE
001F87E1F8FC3F
001F07C0F8F81F
003E07C0F8F81F
007C07C0F8F81F
007C07C1F8FC3F
00F807F3F8FE7F
01F003FFF07FFE
01F003FFE07FFE
03E001FFE03FFC
07C0007F800FF0
ENDCHAR
STARTCHAR 2039
ENCODING 8249
SWIDTH 405 0
DWIDTH 18 0
BBX 12 19 3 4
BITMAP
03F0
03E0
07E0
0FC0
1F80
1F00
3F00
7E00
FC00
FC00
FC00
7E00
3F00
1F80
1F80
0FC0
07E0
03F0
03F0
ENDCHAR
STARTCHAR 203A
ENCODING 8250
SWIDTH 405 0
DWIDTH 18 0
BBX 13 19 3 4
BITMAP
FC00
7E00
3F00
3F80
1F80
0FC0
07E0
07F0
03F0
01F8
03F0
03E0
07E0
0FC0
1F80
3F00
3F00
7E00
FC00
ENDCHAR
STARTCHAR 2044
ENCODING 8260
SWIDTH 697 0
DWIDTH 31 0
BBX 26 31 3 0
BITMAP
000007C0
00000F80
00001F00
00001E00
00003E00
00007C00
0000F800
0000F800
0001F000
0003E000
0003E000
0007C000
000F8000
000F8000
001F0000
003E0000
007C0000
007C0000
00F80000
01F00000
01F00000
03E00000
07C00000
0FC00000
0F800000
1F000000
3E000000
3E000000
7C000000
F8000000
F8000000
ENDCHAR
STARTCHAR 20AC
ENCODING 8364
SWIDTH 630 0
DWIDTH 28 0
BBX 23 33 3 -1
BITMAP
00007E
0007FE
001FFE
003FFE
007FFE
00FFFE
01FFFE
03FF00
07FC00
07F800
0FF000
FFFFF0
FFFFF0
FFFFF0
FFFFF0
1FC000
1FC000
FFFFF0
FFFFF0
FFFFF0
FFFFF0
FFFFF0
0FF000
07F800
07FC00
03FF00
01FFFE
00FFFE
007FFE
003FFE
000FFE
0003FE
000038
ENDCHAR
STARTCHAR 2122
ENCODING 8482
SWIDTH 855 0
DWIDTH 38 0
BBX 33 17 3 15
BITMAP
FFF0080F80
FFF80E0F80
FFFE0F0F80
FFFF8FCF80
FFFFCFEF80
1F0FFFFF80
1F0FFFFF80
1F0FFFFF80
1F0FFFBF80
1F0FBF9F80
1F0F9F8F80
1F0F8F8F80
1F0F8F8F80
1F0F8F8F80
1F0F8F8F80
1F0F8F8F80
1F0F8F8F80
ENDCHAR
STARTCHAR 2190
ENCODING 8592
SWIDTH 832 0
DWIDTH 37 0
BBX 32 24 3 4
BITMAP
00100000
00380000
007C0000
00FE0000
01FC0000
03F80000
07F00000
0FE00000
1FC00000
3FFFFFFF
7FFFFFFF
FFFFFFFF
FFFFFFFF
7FFFFFFF
3FFFFFFF
1FC00000
0FE00000
07F00000
03F80000
01FC0000
00FE0000
007C0000
00380000
00100000
ENDCHAR
STARTCHAR 2191
ENCODING 8593
SWIDTH 630 0
DWIDTH 28 0
BBX 23 32 3 0
BITMAP
001000
003800
007C00
00FE00
01FF00
03FF80
07FFC0
0FFFE0
1FFFF0
3FFFF8
7F7DFC
FE7CFE
FC7C7C
787C38
307C10
007C00
007C00
007C00
007C00
007C00
007C00
007C00
007C00
007C00
007C00
007C00
007C00
007C00
007C00
007C00
007C00
007C00
ENDCHAR
STARTCHAR 2192
ENCODING 8594
SWIDTH 832 0
DWIDTH 37 0
BBX 31 24 3 4
BITMAP
00001000
00003800
00007C00
0000FE00
00007F00
00003F80
00001FC0
00000FE0
000007F0
FFFFFFF8
FFFFFFFC
FFFFFFFE
FFFFFFFE
FFFFFFFC
FFFFFFF8
000007F0
00000FE0
00001FC0
00003F80
00007F00
0000FE00
00007C00
00003800
00001000
ENDCHAR
STARTCHAR 2193
ENCODING 8595
SWIDTH 630 0
DWIDTH 28 0
BBX 23 32 3 -1
BITMAP
007C00
007C00
007C00
007C00
007C00
007C00
007C00
007C00
007C00
007C00
007C00
007C00
007C00
007C00
007C00
007C00
007C00
307C18
787C3C
FC7C7C
FE7CFE
7F7DFC
3FFFF8
1FFFF0
0FFFE0
07FFC0
03FF80
01FF00
00FE00
007C00
003800
001000
ENDCHAR
STARTCHAR 2194
ENCODING 8596
SWIDTH 945 0
DWIDTH 42 0
BBX 36 24 3 4
BITMAP
0010000000
003800C000
007C01E000
00FE03F000
01FC01F800
03F800FC00
07F0007E00
0FE0003F00
1FC0001F80
3FFFFFFFC0
7FFFFFFFE0
FFFFFFFFF0
FFFFFFFFF0
7FFFFFFFE0
3FFFFFFFC0
1FC0001F80
0FE0003F00
07F0007E00
03F800FC00
01FC01F800
00FE03F000
007C01E000
003800C000
0010000000
ENDCHAR
STARTCHAR 2195
ENCODING 8597
SWIDTH 697 0
DWIDTH 31 0
BBX 26 33 3 -1
BITMAP
00080000
001E0000
007F0000
00FF8000
01FFE000
03FFF000
0FFFF800
1FFFFE00
3FBEFF00
FF3E7F80
FE3E1FC0
783E0F80
703E0700
203E0100
003E0000
003E0000
003E0000
003E0000
003E0000
203E0100
703E0700
FC3E0F80
FE3E1FC0
FF3E7F80
3FBEFF00
1FFFFE00
0FFFF800
03FFF000
01FFE000
00FF8000
003F0000
001E0000
00080000
ENDCHAR
STARTCHAR 2196
ENCODING 8598
SWIDTH 652 0
DWIDTH 29 0
BBX 24 24 3 3
BITMAP
FFFF00
FFFF00
FFFF00
FFFF00
FF0000
FF8000
FFC000
FFE000
F7F000
F3F800
F1FC00
F0FE00
F07F00
F03F80
F01FC0
F00FE0
0007F0
0003F8
0001FC
0000FE
00007F
00003E
00003C
000018
ENDCHAR
STARTCHAR 2197
ENCODING 8599
SWIDTH 652 0
DWIDTH 29 0
BBX 24 24 3 3
BITMAP
01FFFF
01FFFF
01FFFF
01FFFF
0001FF
0003FF
0007FF
000FFF
001FFF
003FDF
007F9F
00FF1F
01FE1F
03FC1F
07F81F
0FF01F
1FE000
3FC000
7F8000
FF0000
FE0000
7C0000
380000
100000
ENDCHAR
STARTCHAR 2198
ENCODING 8600
SWIDTH 652 0
DWIDTH 29 0
BBX 24 24 3 3
BITMAP
100000
380000
7C0000
FE0000
FF0000
7F8000
3FC000
1FE000
0FF01F
07F81F
03FC1F
01FE1F
00FF1F
007F9F
003FDF
001FFF
000FFF
0007FF
0003FF
0000FF
01FFFF
01FFFF
01FFFF
01FFFF
ENDCHAR
STARTCHAR 2199
ENCODING 8601
SWIDTH 652 0
DWIDTH 29 0
BBX 24 24 3 3
BITMAP
000018
00003C
00007E
0000FF
0001FE
0003FC
0007F8
000FF0
F01FE0
F01FC0
F03F80
F07F00
F0FE00
F1FC00
F3F800
F7F000
FFE000
FFC000
FF8000
FF0000
FFFF00
FFFF00
FFFF00
FFFF00
ENDCHAR
STARTCHAR 2202
ENCODING 8706
SWIDTH 607 0
DWIDTH 27 0
BBX 22 35 3 -1
BITMAP
010000
03C000
03F000
07FC00
07FE00
0FFF00
07FF80
01FFC0
007FE0
003FE0
001FF0
000FF0
0007F8
0003F8
03FBF8
0FFDFC
1FFFFC
3FFFFC
7FFFFC
FFFFFC
FF87FC
FE03FC
FE01FC
FC01FC
FC01FC
FE03F8
FE07F8
FF0FF8
FFFFF0
7FFFE0
3FFFE0
3FFFC0
0FFF80
07FE00
006000
ENDCHAR
STARTCHAR 2205
ENCODING 8709
SWIDTH 742 0
DWIDTH 33 0
BBX 28 28 3 2
BITMAP
00040040
00FFE0E0
03FFF9F0
07FFFFE0
0FC03FC0
1F000F80
3C001F80
3C003FC0
78007FC0
7000F9E0
F001F1E0
F003E0E0
E007C0E0
E00F80E0
E01F00E0
E03E00E0
F07C00E0
F0F801E0
71F001E0
7BE003C0
3FC003C0
3F000780
1F000F00
3F803F00
7FFFFC00
F3FFF800
E0FFE000
40000000
ENDCHAR
STARTCHAR 220F
ENCODING 8719
SWIDTH 652 0
DWIDTH 29 0
BBX 24 37 3 -5
BITMAP
FFFFFF
FFFFFF
FFFFFF
FFFFFF
FFFFFF
1F00F8
1F00F8
1F00F8
1F00F8
1F00F8
1F00F8
1F00F8
1F00F8
1F00F8
1F00F8
1F00F8
1F00F8
1F00F8
1F00F8
1F00F8
1F00F8
1F00F8
1F00F8
1F00F8
1F00F8
1F00F8
1F00F8
1F00F8
1F00F8
1F00F8
1F00F8
1F00F8
1F00F8
1F00F8
1F00F8
1F00F8
1F00F8
ENDCHAR
STARTCHAR 2211
ENCODING 8721
SWIDTH 517 0
DWIDTH 23 0
BBX 17 37 3 -5
BITMAP
FFFF80
FFFF80
FFFF80
FFFF80
FFFF80
FE0000
FE0000
7F0000
3F0000
3F8000
1F8000
1FC000
0FC000
0FE000
07F000
03F000
03F800
01F800
01F800
01F800
03F000
07F000
07E000
0FE000
0FC000
1F8000
3F8000
3F0000
7F0000
7E0000
FE0000
FC0000
FFFF80
FFFF80
FFFF80
FFFF80
FFFF80
ENDCHAR
STARTCHAR 2212
ENCODING 8722
SWIDTH 585 0
DWIDTH 26 0
BBX 20 5 3 12
BITMAP
FFFFF0
FFFFF0
FFFFF0
FFFFF0
FFFFF0
ENDCHAR
STARTCHAR 221A
ENCODING 8730
SWIDTH 742 0
DWIDTH 33 0
BBX 28 37 3 -5
BITMAP
00007FF0
00007FF0
0000FFF0
0000FFF0
0000FFF0
0000FFF0
0001F800
0001F800
0001F800
0003F000
0003F000
0003F000
0003E000
0007E000
0007E000
0007E000
000FC000
000FC000
FC0FC000
FC0F8000
FC1F8000
7E1F8000
7E1F8000
7E1F0000
3F3F0000
3F3F0000
3F3E0000
1FFE0000
1FFE0000
1FFC0000
0FFC0000
0FFC0000
0FFC0000
07F80000
07F80000
03F80000
03F00000
ENDCHAR
STARTCHAR 221E
ENCODING 8734
SWIDTH 855 0
DWIDTH 38 0
BBX 32 16 3 8
BITMAP
038001C0
1FF00FF8
3FF81FFC
7FFE3FFE
FFFF7FFF
F03FFC0F
F00FF00F
E007E007
E007E007
F00FF00F
F01FF80F
F87FFE1F
7FFE7FFE
7FFC3FFE
1FF00FF8
0FC003E0
ENDCHAR
STARTCHAR 222B
ENCODING 8747
SWIDTH 540 0
DWIDTH 24 0
BBX 19 37 3 -5
BITMAP
0007E0
001FE0
003FE0
007FE0
007F80
007E00
00FC00
00FC00
00FC00
00F800
00F800
00F800
01F800
01F800
01F800
01F000
01F000
03F000
03F000
03F000
03F000
03E000
03E000
07E000
07E000
07E000
07C000
07C000
07C000
0FC000
0FC000
1FC000
3F8000
FF8000
FF0000
FE0000
F80000
ENDCHAR
STARTCHAR 2248
ENCODING 8776
SWIDTH 562 0
DWIDTH 25 0
BBX 20 16 3 6
BITMAP
FFC010
FFFFF0
FFFFF0
FFFFF0
C3FFF0
001FC0
000000
000000
000000
7C0000
FFF030
FFFFF0
FFFFF0
FFFFF0
01FFF0
000200
ENDCHAR
STARTCHAR 2260
ENCODING 8800
SWIDTH 585 0
DWIDTH 26 0
BBX 20 24 3 2
BITMAP
001F00
003F00
003E00
003E00
FFFFF0
FFFFF0
FFFFF0
FFFFF0
FFFFF0
01F800
01F000
01F000
03E000
03E000
FFFFF0
FFFFF0
FFFFF0
FFFFF0
FFFFF0
0F8000
1F8000
1F0000
1F0000
3E0000
ENDCHAR
STARTCHAR 2264
ENCODING 8804
SWIDTH 585 0
DWIDTH 26 0
BBX 20 20 3 4
BITMAP
000070
0007F0
00FFF0
1FFFF0
FFFFF0
FFFC00
FF8000
FFC000
FFFE00
FFFFF0
1FFFF0
00FFF0
0007F0
000030
000000
000000
FFFFF0
FFFFF0
FFFFF0
FFFFF0
ENDCHAR
STARTCHAR 2265
ENCODING 8805
SWIDTH 585 0
DWIDTH 26 0
BBX 20 20 3 4
BITMAP
E00000
FE0000
FFF000
FFFF80
FFFFF0
07FFF0
003FF0
001FF0
03FFF0
FFFFF0
FFFF80
FFF000
FE0000
C00000
000000
000000
FFFFF0
FFFFF0
FFFFF0
FFFFF0
ENDCHAR
STARTCHAR 25CA
ENCODING 9674
SWIDTH 540 0
DWIDTH 24 0
BBX 19 26 3 3
BITMAP
03F000
07F800
07F800
0FFC00
0FFC00
1F3E00
1F3E00
3E1F00
3E1F00
7C0F80
7C0F80
FC07C0
F807E0
F807C0
FC07C0
7C0F80
7E0F80
3E1F00
3F1F00
1F3E00
1FBE00
0FFC00
0FFC00
07F800
07F800
03F000
ENDCHAR
ENDFONT
